<svg xmlns="http://www.w3.org/2000/svg" xmlns:xlink="http://www.w3.org/1999/xlink" contentStyleType="text/css" data-diagram-type="CLASS" height="982px" preserveAspectRatio="none" style="width:2089px;height:982px;background:#FFFFFF;" version="1.1" viewBox="0 0 2089 982" width="2089px" zoomAndPan="magnify"><defs/><g><!--cluster Banco --><g class="cluster" data-entity="Banco " data-source-line="2" data-uid="ent0002" id="cluster_Banco "><path d="M586.5,482.0137 L634.1758,482.0137 A3.75,3.75 0 0 1 636.6758,484.5137 L643.6758,506.6348 L685.5,506.6348 A2.5,2.5 0 0 1 688,509.1348 L688,668.5137 A2.5,2.5 0 0 1 685.5,671.0137 L586.5,671.0137 A2.5,2.5 0 0 1 584,668.5137 L584,484.5137 A2.5,2.5 0 0 1 586.5,482.0137" fill="none" style="stroke:#000000;stroke-width:1.5;"/><line style="stroke:#000000;stroke-width:1.5;" x1="584" x2="643.6758" y1="506.6348" y2="506.6348"/><text fill="#000000" font-family="sans-serif" font-size="14" font-weight="bold" lengthAdjust="spacing" textLength="42.7861" x="588" y="499.1211">Banco</text><text fill="#000000" font-family="sans-serif" font-size="14" font-style="italic" lengthAdjust="spacing" textLength="78.627" x="600.6865" y="523.7422">&#171;aggregate&#187;</text></g><!--cluster Conta --><g class="cluster" data-entity="Conta " data-source-line="7" data-uid="ent0004" id="cluster_Conta "><path d="M1164.5,482.0137 L1209.0518,482.0137 A3.75,3.75 0 0 1 1211.5518,484.5137 L1218.5518,506.6348 L1263.5,506.6348 A2.5,2.5 0 0 1 1266,509.1348 L1266,668.5137 A2.5,2.5 0 0 1 1263.5,671.0137 L1164.5,671.0137 A2.5,2.5 0 0 1 1162,668.5137 L1162,484.5137 A2.5,2.5 0 0 1 1164.5,482.0137" fill="none" style="stroke:#000000;stroke-width:1.5;"/><line style="stroke:#000000;stroke-width:1.5;" x1="1162" x2="1218.5518" y1="506.6348" y2="506.6348"/><text fill="#000000" font-family="sans-serif" font-size="14" font-weight="bold" lengthAdjust="spacing" textLength="39.6621" x="1166" y="499.1211">Conta</text><text fill="#000000" font-family="sans-serif" font-size="14" font-style="italic" lengthAdjust="spacing" textLength="78.627" x="1178.6865" y="523.7422">&#171;aggregate&#187;</text></g><!--cluster CartaoCredito --><g class="cluster" data-entity="CartaoCredito " data-source-line="12" data-uid="ent0006" id="cluster_CartaoCredito "><path d="M754.5,244.0137 L852.7344,244.0137 A3.75,3.75 0 0 1 855.2344,246.5137 L862.2344,268.6348 L901.5,268.6348 A2.5,2.5 0 0 1 904,271.1348 L904,660.5137 A2.5,2.5 0 0 1 901.5,663.0137 L754.5,663.0137 A2.5,2.5 0 0 1 752,660.5137 L752,246.5137 A2.5,2.5 0 0 1 754.5,244.0137" fill="none" style="stroke:#000000;stroke-width:1.5;"/><line style="stroke:#000000;stroke-width:1.5;" x1="752" x2="862.2344" y1="268.6348" y2="268.6348"/><text fill="#000000" font-family="sans-serif" font-size="14" font-weight="bold" lengthAdjust="spacing" textLength="93.3447" x="756" y="261.1211">CartaoCredito</text><text fill="#000000" font-family="sans-serif" font-size="14" font-style="italic" lengthAdjust="spacing" textLength="78.627" x="792.6865" y="285.7422">&#171;aggregate&#187;</text></g><!--cluster Transacao --><g class="cluster" data-entity="Transacao " data-source-line="23" data-uid="ent0010" id="cluster_Transacao "><path d="M8.5,6.0137 L83.4238,6.0137 A3.75,3.75 0 0 1 85.9238,8.5137 L92.9238,30.6348 L725.5,30.6348 A2.5,2.5 0 0 1 728,33.1348 L728,422.5137 A2.5,2.5 0 0 1 725.5,425.0137 L8.5,425.0137 A2.5,2.5 0 0 1 6,422.5137 L6,8.5137 A2.5,2.5 0 0 1 8.5,6.0137" fill="none" style="stroke:#000000;stroke-width:1.5;"/><line style="stroke:#000000;stroke-width:1.5;" x1="6" x2="92.9238" y1="30.6348" y2="30.6348"/><text fill="#000000" font-family="sans-serif" font-size="14" font-weight="bold" lengthAdjust="spacing" textLength="70.0342" x="10" y="23.1211">Transacao</text><text fill="#000000" font-family="sans-serif" font-size="14" font-style="italic" lengthAdjust="spacing" textLength="78.627" x="331.6865" y="47.7422">&#171;aggregate&#187;</text></g><!--cluster Agendamento --><g class="cluster" data-entity="Agendamento " data-source-line="50" data-uid="ent0022" id="cluster_Agendamento "><path d="M1510.5,244.0137 L1608.7275,244.0137 A3.75,3.75 0 0 1 1611.2275,246.5137 L1618.2275,268.6348 L1695.5,268.6348 A2.5,2.5 0 0 1 1698,271.1348 L1698,652.5137 A2.5,2.5 0 0 1 1695.5,655.0137 L1510.5,655.0137 A2.5,2.5 0 0 1 1508,652.5137 L1508,246.5137 A2.5,2.5 0 0 1 1510.5,244.0137" fill="none" style="stroke:#000000;stroke-width:1.5;"/><line style="stroke:#000000;stroke-width:1.5;" x1="1508" x2="1618.2275" y1="268.6348" y2="268.6348"/><text fill="#000000" font-family="sans-serif" font-size="14" font-weight="bold" lengthAdjust="spacing" textLength="93.3379" x="1512" y="261.1211">Agendamento</text><text fill="#000000" font-family="sans-serif" font-size="14" font-style="italic" lengthAdjust="spacing" textLength="78.627" x="1567.6865" y="285.7422">&#171;aggregate&#187;</text></g><!--cluster Categoria --><g class="cluster" data-entity="Categoria " data-source-line="59" data-uid="ent0027" id="cluster_Categoria "><path d="M1825.5,482.0137 L1894.9619,482.0137 A3.75,3.75 0 0 1 1897.4619,484.5137 L1904.4619,506.6348 L1946.5,506.6348 A2.5,2.5 0 0 1 1949,509.1348 L1949,668.5137 A2.5,2.5 0 0 1 1946.5,671.0137 L1825.5,671.0137 A2.5,2.5 0 0 1 1823,668.5137 L1823,484.5137 A2.5,2.5 0 0 1 1825.5,482.0137" fill="none" style="stroke:#000000;stroke-width:1.5;"/><line style="stroke:#000000;stroke-width:1.5;" x1="1823" x2="1904.4619" y1="506.6348" y2="506.6348"/><text fill="#000000" font-family="sans-serif" font-size="14" font-weight="bold" lengthAdjust="spacing" textLength="64.5723" x="1827" y="499.1211">Categoria</text><text fill="#000000" font-family="sans-serif" font-size="14" font-style="italic" lengthAdjust="spacing" textLength="78.627" x="1850.6865" y="523.7422">&#171;aggregate&#187;</text></g><!--cluster Shared --><g class="cluster" data-entity="Shared " data-source-line="64" data-uid="ent0029" id="cluster_Shared "><path d="M1106.5,802.0137 L1158.8516,802.0137 A3.75,3.75 0 0 1 1161.3516,804.5137 L1168.3516,826.6348 L1533.5,826.6348 A2.5,2.5 0 0 1 1536,829.1348 L1536,972.5137 A2.5,2.5 0 0 1 1533.5,975.0137 L1106.5,975.0137 A2.5,2.5 0 0 1 1104,972.5137 L1104,804.5137 A2.5,2.5 0 0 1 1106.5,802.0137" fill="none" style="stroke:#000000;stroke-width:1.5;"/><line style="stroke:#000000;stroke-width:1.5;" x1="1104" x2="1168.3516" y1="826.6348" y2="826.6348"/><text fill="#000000" font-family="sans-serif" font-size="14" font-weight="bold" lengthAdjust="spacing" textLength="47.4619" x="1108" y="819.1211">Shared</text><text fill="#000000" font-family="sans-serif" font-size="14" font-style="italic" lengthAdjust="spacing" textLength="58.3789" x="1294.8105" y="843.7422">&#171;shared&#187;</text></g><!--class Banco--><g class="entity" data-entity="Banco" data-source-line="3" data-uid="ent0003" id="entity_Banco"><rect fill="#F1F1F1" height="76.543" rx="2.5" ry="2.5" style="stroke:#181818;stroke-width:0.5;" width="71.6963" x="600" y="578.0137"/><ellipse cx="615" cy="608.2852" fill="#ADD1B2" rx="11" ry="11" style="stroke:#181818;stroke-width:1;"/><path d="M617.7656,604.1602 Q617.9219,603.9414 618.1094,603.832 Q618.2969,603.7227 618.5156,603.7227 Q618.8906,603.7227 619.125,603.9883 Q619.3594,604.2383 619.3594,604.8477 L619.3594,606.3008 Q619.3594,606.9102 619.125,607.1758 Q618.8906,607.4414 618.5156,607.4414 Q618.1719,607.4414 617.9688,607.2383 Q617.7656,607.0508 617.6563,606.5352 Q617.6094,606.1758 617.4219,605.9883 Q617.0938,605.6133 616.4844,605.3945 Q615.875,605.1758 615.25,605.1758 Q614.4844,605.1758 613.8438,605.5039 Q613.2188,605.832 612.7188,606.582 Q612.2344,607.332 612.2344,608.3633 L612.2344,609.457 Q612.2344,610.6914 613.125,611.5195 Q614.0156,612.332 615.6094,612.332 Q616.5469,612.332 617.2031,612.082 Q617.5938,611.9258 618.0156,611.4883 Q618.2813,611.2227 618.4219,611.1445 Q618.5781,611.0664 618.7813,611.0664 Q619.1094,611.0664 619.3594,611.332 Q619.625,611.582 619.625,611.9258 Q619.625,612.2695 619.2813,612.6758 Q618.7813,613.2539 617.9844,613.582 Q616.9063,614.0352 615.6094,614.0352 Q614.0938,614.0352 612.8906,613.4102 Q611.9063,612.9102 611.2188,611.8477 Q610.5313,610.7695 610.5313,609.4883 L610.5313,608.332 Q610.5313,607.0039 611.1406,605.8633 Q611.7656,604.707 612.8594,604.0977 Q613.9531,603.4727 615.1875,603.4727 Q615.9219,603.4727 616.5625,603.6445 Q617.2188,603.8008 617.7656,604.1602 Z " fill="#000000"/><text fill="#000000" font-family="sans-serif" font-size="12" font-style="italic" lengthAdjust="spacing" textLength="43.3594" x="627.1685" y="595.9629">&#171;Entity&#187;</text><text fill="#000000" font-family="sans-serif" font-size="12" font-style="italic" lengthAdjust="spacing" textLength="34.0254" x="631.8354" y="611.9238">&#171;root&#187;</text><text fill="#000000" font-family="sans-serif" font-size="14" lengthAdjust="spacing" textLength="39.6963" x="629" y="630.043">Banco</text><line style="stroke:#181818;stroke-width:0.5;" x1="601" x2="670.6963" y1="638.5566" y2="638.5566"/><line style="stroke:#181818;stroke-width:0.5;" x1="601" x2="670.6963" y1="646.5566" y2="646.5566"/></g><!--class Conta--><g class="entity" data-entity="Conta" data-source-line="8" data-uid="ent0005" id="entity_Conta"><rect fill="#F1F1F1" height="76.543" rx="2.5" ry="2.5" style="stroke:#181818;stroke-width:0.5;" width="71.3594" x="1178.5" y="578.0137"/><ellipse cx="1193.5" cy="608.2852" fill="#ADD1B2" rx="11" ry="11" style="stroke:#181818;stroke-width:1;"/><path d="M1196.2656,604.1602 Q1196.4219,603.9414 1196.6094,603.832 Q1196.7969,603.7227 1197.0156,603.7227 Q1197.3906,603.7227 1197.625,603.9883 Q1197.8594,604.2383 1197.8594,604.8477 L1197.8594,606.3008 Q1197.8594,606.9102 1197.625,607.1758 Q1197.3906,607.4414 1197.0156,607.4414 Q1196.6719,607.4414 1196.4688,607.2383 Q1196.2656,607.0508 1196.1563,606.5352 Q1196.1094,606.1758 1195.9219,605.9883 Q1195.5938,605.6133 1194.9844,605.3945 Q1194.375,605.1758 1193.75,605.1758 Q1192.9844,605.1758 1192.3438,605.5039 Q1191.7188,605.832 1191.2188,606.582 Q1190.7344,607.332 1190.7344,608.3633 L1190.7344,609.457 Q1190.7344,610.6914 1191.625,611.5195 Q1192.5156,612.332 1194.1094,612.332 Q1195.0469,612.332 1195.7031,612.082 Q1196.0938,611.9258 1196.5156,611.4883 Q1196.7813,611.2227 1196.9219,611.1445 Q1197.0781,611.0664 1197.2813,611.0664 Q1197.6094,611.0664 1197.8594,611.332 Q1198.125,611.582 1198.125,611.9258 Q1198.125,612.2695 1197.7813,612.6758 Q1197.2813,613.2539 1196.4844,613.582 Q1195.4063,614.0352 1194.1094,614.0352 Q1192.5938,614.0352 1191.3906,613.4102 Q1190.4063,612.9102 1189.7188,611.8477 Q1189.0313,610.7695 1189.0313,609.4883 L1189.0313,608.332 Q1189.0313,607.0039 1189.6406,605.8633 Q1190.2656,604.707 1191.3594,604.0977 Q1192.4531,603.4727 1193.6875,603.4727 Q1194.4219,603.4727 1195.0625,603.6445 Q1195.7188,603.8008 1196.2656,604.1602 Z " fill="#000000"/><text fill="#000000" font-family="sans-serif" font-size="12" font-style="italic" lengthAdjust="spacing" textLength="43.3594" x="1205.5" y="595.9629">&#171;Entity&#187;</text><text fill="#000000" font-family="sans-serif" font-size="12" font-style="italic" lengthAdjust="spacing" textLength="34.0254" x="1210.167" y="611.9238">&#171;root&#187;</text><text fill="#000000" font-family="sans-serif" font-size="14" lengthAdjust="spacing" textLength="37.3584" x="1208.5005" y="630.043">Conta</text><line style="stroke:#181818;stroke-width:0.5;" x1="1179.5" x2="1248.8594" y1="638.5566" y2="638.5566"/><line style="stroke:#181818;stroke-width:0.5;" x1="1179.5" x2="1248.8594" y1="646.5566" y2="646.5566"/></g><!--class CartaoCredito--><g class="entity" data-entity="CartaoCredito" data-source-line="13" data-uid="ent0007" id="entity_CartaoCredito"><rect fill="#F1F1F1" height="76.543" rx="2.5" ry="2.5" style="stroke:#181818;stroke-width:0.5;" width="119.1514" x="768.5" y="340.0137"/><ellipse cx="783.5" cy="370.2852" fill="#ADD1B2" rx="11" ry="11" style="stroke:#181818;stroke-width:1;"/><path d="M786.2656,366.1602 Q786.4219,365.9414 786.6094,365.832 Q786.7969,365.7227 787.0156,365.7227 Q787.3906,365.7227 787.625,365.9883 Q787.8594,366.2383 787.8594,366.8477 L787.8594,368.3008 Q787.8594,368.9102 787.625,369.1758 Q787.3906,369.4414 787.0156,369.4414 Q786.6719,369.4414 786.4688,369.2383 Q786.2656,369.0508 786.1563,368.5352 Q786.1094,368.1758 785.9219,367.9883 Q785.5938,367.6133 784.9844,367.3945 Q784.375,367.1758 783.75,367.1758 Q782.9844,367.1758 782.3438,367.5039 Q781.7188,367.832 781.2188,368.582 Q780.7344,369.332 780.7344,370.3633 L780.7344,371.457 Q780.7344,372.6914 781.625,373.5195 Q782.5156,374.332 784.1094,374.332 Q785.0469,374.332 785.7031,374.082 Q786.0938,373.9258 786.5156,373.4883 Q786.7813,373.2227 786.9219,373.1445 Q787.0781,373.0664 787.2813,373.0664 Q787.6094,373.0664 787.8594,373.332 Q788.125,373.582 788.125,373.9258 Q788.125,374.2695 787.7813,374.6758 Q787.2813,375.2539 786.4844,375.582 Q785.4063,376.0352 784.1094,376.0352 Q782.5938,376.0352 781.3906,375.4102 Q780.4063,374.9102 779.7188,373.8477 Q779.0313,372.7695 779.0313,371.4883 L779.0313,370.332 Q779.0313,369.0039 779.6406,367.8633 Q780.2656,366.707 781.3594,366.0977 Q782.4531,365.4727 783.6875,365.4727 Q784.4219,365.4727 785.0625,365.6445 Q785.7188,365.8008 786.2656,366.1602 Z " fill="#000000"/><text fill="#000000" font-family="sans-serif" font-size="12" font-style="italic" lengthAdjust="spacing" textLength="43.3594" x="819.396" y="357.9629">&#171;Entity&#187;</text><text fill="#000000" font-family="sans-serif" font-size="12" font-style="italic" lengthAdjust="spacing" textLength="34.0254" x="824.063" y="373.9238">&#171;root&#187;</text><text fill="#000000" font-family="sans-serif" font-size="14" lengthAdjust="spacing" textLength="87.1514" x="797.5" y="392.043">CartaoCredito</text><line style="stroke:#181818;stroke-width:0.5;" x1="769.5" x2="886.6514" y1="400.5566" y2="400.5566"/><line style="stroke:#181818;stroke-width:0.5;" x1="769.5" x2="886.6514" y1="408.5566" y2="408.5566"/></g><!--class Periodo--><g class="entity" data-entity="Periodo" data-source-line="16" data-uid="ent0008" id="entity_Periodo"><rect fill="#F1F1F1" height="60.582" rx="2.5" ry="2.5" style="stroke:#181818;stroke-width:0.5;" width="110.0547" x="778" y="586.0137"/><ellipse cx="793" cy="608.3047" fill="#ADD1B2" rx="11" ry="11" style="stroke:#181818;stroke-width:1;"/><path d="M795.7656,604.1797 Q795.9219,603.9609 796.1094,603.8516 Q796.2969,603.7422 796.5156,603.7422 Q796.8906,603.7422 797.125,604.0078 Q797.3594,604.2578 797.3594,604.8672 L797.3594,606.3203 Q797.3594,606.9297 797.125,607.1953 Q796.8906,607.4609 796.5156,607.4609 Q796.1719,607.4609 795.9688,607.2578 Q795.7656,607.0703 795.6563,606.5547 Q795.6094,606.1953 795.4219,606.0078 Q795.0938,605.6328 794.4844,605.4141 Q793.875,605.1953 793.25,605.1953 Q792.4844,605.1953 791.8438,605.5234 Q791.2188,605.8516 790.7188,606.6016 Q790.2344,607.3516 790.2344,608.3828 L790.2344,609.4766 Q790.2344,610.7109 791.125,611.5391 Q792.0156,612.3516 793.6094,612.3516 Q794.5469,612.3516 795.2031,612.1016 Q795.5938,611.9453 796.0156,611.5078 Q796.2813,611.2422 796.4219,611.1641 Q796.5781,611.0859 796.7813,611.0859 Q797.1094,611.0859 797.3594,611.3516 Q797.625,611.6016 797.625,611.9453 Q797.625,612.2891 797.2813,612.6953 Q796.7813,613.2734 795.9844,613.6016 Q794.9063,614.0547 793.6094,614.0547 Q792.0938,614.0547 790.8906,613.4297 Q789.9063,612.9297 789.2188,611.8672 Q788.5313,610.7891 788.5313,609.5078 L788.5313,608.3516 Q788.5313,607.0234 789.1406,605.8828 Q789.7656,604.7266 790.8594,604.1172 Q791.9531,603.4922 793.1875,603.4922 Q793.9219,603.4922 794.5625,603.6641 Q795.2188,603.8203 795.7656,604.1797 Z " fill="#000000"/><text fill="#000000" font-family="sans-serif" font-size="12" font-style="italic" lengthAdjust="spacing" textLength="82.0547" x="805" y="603.9629">&#171;Value Object&#187;</text><text fill="#000000" font-family="sans-serif" font-size="14" lengthAdjust="spacing" textLength="48.2549" x="821.8999" y="622.082">Periodo</text><line style="stroke:#181818;stroke-width:0.5;" x1="779" x2="887.0547" y1="630.5957" y2="630.5957"/><line style="stroke:#181818;stroke-width:0.5;" x1="779" x2="887.0547" y1="638.5957" y2="638.5957"/></g><!--class Transacao--><g class="entity" data-entity="Transacao" data-source-line="24" data-uid="ent0011" id="entity_Transacao"><rect fill="#F1F1F1" height="76.543" rx="2.5" ry="2.5" style="stroke:#181818;stroke-width:0.5;" width="98.1445" x="586" y="102.0137"/><ellipse cx="601" cy="132.2852" fill="#ADD1B2" rx="11" ry="11" style="stroke:#181818;stroke-width:1;"/><path d="M603.7656,128.1602 Q603.9219,127.9414 604.1094,127.832 Q604.2969,127.7227 604.5156,127.7227 Q604.8906,127.7227 605.125,127.9883 Q605.3594,128.2383 605.3594,128.8477 L605.3594,130.3008 Q605.3594,130.9102 605.125,131.1758 Q604.8906,131.4414 604.5156,131.4414 Q604.1719,131.4414 603.9688,131.2383 Q603.7656,131.0508 603.6563,130.5352 Q603.6094,130.1758 603.4219,129.9883 Q603.0938,129.6133 602.4844,129.3945 Q601.875,129.1758 601.25,129.1758 Q600.4844,129.1758 599.8438,129.5039 Q599.2188,129.832 598.7188,130.582 Q598.2344,131.332 598.2344,132.3633 L598.2344,133.457 Q598.2344,134.6914 599.125,135.5195 Q600.0156,136.332 601.6094,136.332 Q602.5469,136.332 603.2031,136.082 Q603.5938,135.9258 604.0156,135.4883 Q604.2813,135.2227 604.4219,135.1445 Q604.5781,135.0664 604.7813,135.0664 Q605.1094,135.0664 605.3594,135.332 Q605.625,135.582 605.625,135.9258 Q605.625,136.2695 605.2813,136.6758 Q604.7813,137.2539 603.9844,137.582 Q602.9063,138.0352 601.6094,138.0352 Q600.0938,138.0352 598.8906,137.4102 Q597.9063,136.9102 597.2188,135.8477 Q596.5313,134.7695 596.5313,133.4883 L596.5313,132.332 Q596.5313,131.0039 597.1406,129.8633 Q597.7656,128.707 598.8594,128.0977 Q599.9531,127.4727 601.1875,127.4727 Q601.9219,127.4727 602.5625,127.6445 Q603.2188,127.8008 603.7656,128.1602 Z " fill="#000000"/><text fill="#000000" font-family="sans-serif" font-size="12" font-style="italic" lengthAdjust="spacing" textLength="43.3594" x="626.3926" y="119.9629">&#171;Entity&#187;</text><text fill="#000000" font-family="sans-serif" font-size="12" font-style="italic" lengthAdjust="spacing" textLength="34.0254" x="631.0596" y="135.9238">&#171;root&#187;</text><text fill="#000000" font-family="sans-serif" font-size="14" lengthAdjust="spacing" textLength="66.1445" x="615" y="154.043">Transacao</text><line style="stroke:#181818;stroke-width:0.5;" x1="587" x2="683.1445" y1="162.5566" y2="162.5566"/><line style="stroke:#181818;stroke-width:0.5;" x1="587" x2="683.1445" y1="170.5566" y2="170.5566"/></g><!--class Data--><g class="entity" data-entity="Data" data-source-line="27" data-uid="ent0012" id="entity_Data"><rect fill="#F1F1F1" height="60.582" rx="2.5" ry="2.5" style="stroke:#181818;stroke-width:0.5;" width="110.0547" x="457" y="348.0137"/><ellipse cx="472" cy="370.3047" fill="#ADD1B2" rx="11" ry="11" style="stroke:#181818;stroke-width:1;"/><path d="M474.7656,366.1797 Q474.9219,365.9609 475.1094,365.8516 Q475.2969,365.7422 475.5156,365.7422 Q475.8906,365.7422 476.125,366.0078 Q476.3594,366.2578 476.3594,366.8672 L476.3594,368.3203 Q476.3594,368.9297 476.125,369.1953 Q475.8906,369.4609 475.5156,369.4609 Q475.1719,369.4609 474.9688,369.2578 Q474.7656,369.0703 474.6563,368.5547 Q474.6094,368.1953 474.4219,368.0078 Q474.0938,367.6328 473.4844,367.4141 Q472.875,367.1953 472.25,367.1953 Q471.4844,367.1953 470.8438,367.5234 Q470.2188,367.8516 469.7188,368.6016 Q469.2344,369.3516 469.2344,370.3828 L469.2344,371.4766 Q469.2344,372.7109 470.125,373.5391 Q471.0156,374.3516 472.6094,374.3516 Q473.5469,374.3516 474.2031,374.1016 Q474.5938,373.9453 475.0156,373.5078 Q475.2813,373.2422 475.4219,373.1641 Q475.5781,373.0859 475.7813,373.0859 Q476.1094,373.0859 476.3594,373.3516 Q476.625,373.6016 476.625,373.9453 Q476.625,374.2891 476.2813,374.6953 Q475.7813,375.2734 474.9844,375.6016 Q473.9063,376.0547 472.6094,376.0547 Q471.0938,376.0547 469.8906,375.4297 Q468.9063,374.9297 468.2188,373.8672 Q467.5313,372.7891 467.5313,371.5078 L467.5313,370.3516 Q467.5313,369.0234 468.1406,367.8828 Q468.7656,366.7266 469.8594,366.1172 Q470.9531,365.4922 472.1875,365.4922 Q472.9219,365.4922 473.5625,365.6641 Q474.2188,365.8203 474.7656,366.1797 Z " fill="#000000"/><text fill="#000000" font-family="sans-serif" font-size="12" font-style="italic" lengthAdjust="spacing" textLength="82.0547" x="484" y="365.9629">&#171;Value Object&#187;</text><text fill="#000000" font-family="sans-serif" font-size="14" lengthAdjust="spacing" textLength="29.5723" x="510.2412" y="384.082">Data</text><line style="stroke:#181818;stroke-width:0.5;" x1="458" x2="566.0547" y1="392.5957" y2="392.5957"/><line style="stroke:#181818;stroke-width:0.5;" x1="458" x2="566.0547" y1="400.5957" y2="400.5957"/></g><!--class Reembolso--><g class="entity" data-entity="Reembolso" data-source-line="30" data-uid="ent0013" id="entity_Reembolso"><rect fill="#F1F1F1" height="60.582" rx="2.5" ry="2.5" style="stroke:#181818;stroke-width:0.5;" width="110.0547" x="602" y="348.0137"/><ellipse cx="617" cy="370.3047" fill="#ADD1B2" rx="11" ry="11" style="stroke:#181818;stroke-width:1;"/><path d="M619.7656,366.1797 Q619.9219,365.9609 620.1094,365.8516 Q620.2969,365.7422 620.5156,365.7422 Q620.8906,365.7422 621.125,366.0078 Q621.3594,366.2578 621.3594,366.8672 L621.3594,368.3203 Q621.3594,368.9297 621.125,369.1953 Q620.8906,369.4609 620.5156,369.4609 Q620.1719,369.4609 619.9688,369.2578 Q619.7656,369.0703 619.6563,368.5547 Q619.6094,368.1953 619.4219,368.0078 Q619.0938,367.6328 618.4844,367.4141 Q617.875,367.1953 617.25,367.1953 Q616.4844,367.1953 615.8438,367.5234 Q615.2188,367.8516 614.7188,368.6016 Q614.2344,369.3516 614.2344,370.3828 L614.2344,371.4766 Q614.2344,372.7109 615.125,373.5391 Q616.0156,374.3516 617.6094,374.3516 Q618.5469,374.3516 619.2031,374.1016 Q619.5938,373.9453 620.0156,373.5078 Q620.2813,373.2422 620.4219,373.1641 Q620.5781,373.0859 620.7813,373.0859 Q621.1094,373.0859 621.3594,373.3516 Q621.625,373.6016 621.625,373.9453 Q621.625,374.2891 621.2813,374.6953 Q620.7813,375.2734 619.9844,375.6016 Q618.9063,376.0547 617.6094,376.0547 Q616.0938,376.0547 614.8906,375.4297 Q613.9063,374.9297 613.2188,373.8672 Q612.5313,372.7891 612.5313,371.5078 L612.5313,370.3516 Q612.5313,369.0234 613.1406,367.8828 Q613.7656,366.7266 614.8594,366.1172 Q615.9531,365.4922 617.1875,365.4922 Q617.9219,365.4922 618.5625,365.6641 Q619.2188,365.8203 619.7656,366.1797 Z " fill="#000000"/><text fill="#000000" font-family="sans-serif" font-size="12" font-style="italic" lengthAdjust="spacing" textLength="82.0547" x="629" y="365.9629">&#171;Value Object&#187;</text><text fill="#000000" font-family="sans-serif" font-size="14" lengthAdjust="spacing" textLength="70.8135" x="634.6206" y="384.082">Reembolso</text><line style="stroke:#181818;stroke-width:0.5;" x1="603" x2="711.0547" y1="392.5957" y2="392.5957"/><line style="stroke:#181818;stroke-width:0.5;" x1="603" x2="711.0547" y1="400.5957" y2="400.5957"/></g><!--class Tipo--><g class="entity" data-entity="Tipo" data-source-line="33" data-uid="ent0014" id="entity_Tipo"><rect fill="#F1F1F1" height="60.582" rx="2.5" ry="2.5" style="stroke:#181818;stroke-width:0.5;" width="110.0547" x="22" y="348.0137"/><ellipse cx="37" cy="370.3047" fill="#ADD1B2" rx="11" ry="11" style="stroke:#181818;stroke-width:1;"/><path d="M39.7656,366.1797 Q39.9219,365.9609 40.1094,365.8516 Q40.2969,365.7422 40.5156,365.7422 Q40.8906,365.7422 41.125,366.0078 Q41.3594,366.2578 41.3594,366.8672 L41.3594,368.3203 Q41.3594,368.9297 41.125,369.1953 Q40.8906,369.4609 40.5156,369.4609 Q40.1719,369.4609 39.9688,369.2578 Q39.7656,369.0703 39.6563,368.5547 Q39.6094,368.1953 39.4219,368.0078 Q39.0938,367.6328 38.4844,367.4141 Q37.875,367.1953 37.25,367.1953 Q36.4844,367.1953 35.8438,367.5234 Q35.2188,367.8516 34.7188,368.6016 Q34.2344,369.3516 34.2344,370.3828 L34.2344,371.4766 Q34.2344,372.7109 35.125,373.5391 Q36.0156,374.3516 37.6094,374.3516 Q38.5469,374.3516 39.2031,374.1016 Q39.5938,373.9453 40.0156,373.5078 Q40.2813,373.2422 40.4219,373.1641 Q40.5781,373.0859 40.7813,373.0859 Q41.1094,373.0859 41.3594,373.3516 Q41.625,373.6016 41.625,373.9453 Q41.625,374.2891 41.2813,374.6953 Q40.7813,375.2734 39.9844,375.6016 Q38.9063,376.0547 37.6094,376.0547 Q36.0938,376.0547 34.8906,375.4297 Q33.9063,374.9297 33.2188,373.8672 Q32.5313,372.7891 32.5313,371.5078 L32.5313,370.3516 Q32.5313,369.0234 33.1406,367.8828 Q33.7656,366.7266 34.8594,366.1172 Q35.9531,365.4922 37.1875,365.4922 Q37.9219,365.4922 38.5625,365.6641 Q39.2188,365.8203 39.7656,366.1797 Z " fill="#000000"/><text fill="#000000" font-family="sans-serif" font-size="12" font-style="italic" lengthAdjust="spacing" textLength="82.0547" x="49" y="365.9629">&#171;Value Object&#187;</text><text fill="#000000" font-family="sans-serif" font-size="14" lengthAdjust="spacing" textLength="27.2344" x="76.4102" y="384.082">Tipo</text><line style="stroke:#181818;stroke-width:0.5;" x1="23" x2="131.0547" y1="392.5957" y2="392.5957"/><line style="stroke:#181818;stroke-width:0.5;" x1="23" x2="131.0547" y1="400.5957" y2="400.5957"/></g><!--class Status--><g class="entity" data-entity="Status" data-source-line="36" data-uid="ent0015" id="entity_Status"><rect fill="#F1F1F1" height="60.582" rx="2.5" ry="2.5" style="stroke:#181818;stroke-width:0.5;" width="110.0547" x="167" y="348.0137"/><ellipse cx="182" cy="370.3047" fill="#ADD1B2" rx="11" ry="11" style="stroke:#181818;stroke-width:1;"/><path d="M184.7656,366.1797 Q184.9219,365.9609 185.1094,365.8516 Q185.2969,365.7422 185.5156,365.7422 Q185.8906,365.7422 186.125,366.0078 Q186.3594,366.2578 186.3594,366.8672 L186.3594,368.3203 Q186.3594,368.9297 186.125,369.1953 Q185.8906,369.4609 185.5156,369.4609 Q185.1719,369.4609 184.9688,369.2578 Q184.7656,369.0703 184.6563,368.5547 Q184.6094,368.1953 184.4219,368.0078 Q184.0938,367.6328 183.4844,367.4141 Q182.875,367.1953 182.25,367.1953 Q181.4844,367.1953 180.8438,367.5234 Q180.2188,367.8516 179.7188,368.6016 Q179.2344,369.3516 179.2344,370.3828 L179.2344,371.4766 Q179.2344,372.7109 180.125,373.5391 Q181.0156,374.3516 182.6094,374.3516 Q183.5469,374.3516 184.2031,374.1016 Q184.5938,373.9453 185.0156,373.5078 Q185.2813,373.2422 185.4219,373.1641 Q185.5781,373.0859 185.7813,373.0859 Q186.1094,373.0859 186.3594,373.3516 Q186.625,373.6016 186.625,373.9453 Q186.625,374.2891 186.2813,374.6953 Q185.7813,375.2734 184.9844,375.6016 Q183.9063,376.0547 182.6094,376.0547 Q181.0938,376.0547 179.8906,375.4297 Q178.9063,374.9297 178.2188,373.8672 Q177.5313,372.7891 177.5313,371.5078 L177.5313,370.3516 Q177.5313,369.0234 178.1406,367.8828 Q178.7656,366.7266 179.8594,366.1172 Q180.9531,365.4922 182.1875,365.4922 Q182.9219,365.4922 183.5625,365.6641 Q184.2188,365.8203 184.7656,366.1797 Z " fill="#000000"/><text fill="#000000" font-family="sans-serif" font-size="12" font-style="italic" lengthAdjust="spacing" textLength="82.0547" x="194" y="365.9629">&#171;Value Object&#187;</text><text fill="#000000" font-family="sans-serif" font-size="14" lengthAdjust="spacing" textLength="39.6895" x="215.1826" y="384.082">Status</text><line style="stroke:#181818;stroke-width:0.5;" x1="168" x2="276.0547" y1="392.5957" y2="392.5957"/><line style="stroke:#181818;stroke-width:0.5;" x1="168" x2="276.0547" y1="400.5957" y2="400.5957"/></g><!--class Descricao--><g class="entity" data-entity="Descricao" data-source-line="39" data-uid="ent0016" id="entity_Descricao"><rect fill="#F1F1F1" height="60.582" rx="2.5" ry="2.5" style="stroke:#181818;stroke-width:0.5;" width="110.0547" x="312" y="348.0137"/><ellipse cx="327" cy="370.3047" fill="#ADD1B2" rx="11" ry="11" style="stroke:#181818;stroke-width:1;"/><path d="M329.7656,366.1797 Q329.9219,365.9609 330.1094,365.8516 Q330.2969,365.7422 330.5156,365.7422 Q330.8906,365.7422 331.125,366.0078 Q331.3594,366.2578 331.3594,366.8672 L331.3594,368.3203 Q331.3594,368.9297 331.125,369.1953 Q330.8906,369.4609 330.5156,369.4609 Q330.1719,369.4609 329.9688,369.2578 Q329.7656,369.0703 329.6563,368.5547 Q329.6094,368.1953 329.4219,368.0078 Q329.0938,367.6328 328.4844,367.4141 Q327.875,367.1953 327.25,367.1953 Q326.4844,367.1953 325.8438,367.5234 Q325.2188,367.8516 324.7188,368.6016 Q324.2344,369.3516 324.2344,370.3828 L324.2344,371.4766 Q324.2344,372.7109 325.125,373.5391 Q326.0156,374.3516 327.6094,374.3516 Q328.5469,374.3516 329.2031,374.1016 Q329.5938,373.9453 330.0156,373.5078 Q330.2813,373.2422 330.4219,373.1641 Q330.5781,373.0859 330.7813,373.0859 Q331.1094,373.0859 331.3594,373.3516 Q331.625,373.6016 331.625,373.9453 Q331.625,374.2891 331.2813,374.6953 Q330.7813,375.2734 329.9844,375.6016 Q328.9063,376.0547 327.6094,376.0547 Q326.0938,376.0547 324.8906,375.4297 Q323.9063,374.9297 323.2188,373.8672 Q322.5313,372.7891 322.5313,371.5078 L322.5313,370.3516 Q322.5313,369.0234 323.1406,367.8828 Q323.7656,366.7266 324.8594,366.1172 Q325.9531,365.4922 327.1875,365.4922 Q327.9219,365.4922 328.5625,365.6641 Q329.2188,365.8203 329.7656,366.1797 Z " fill="#000000"/><text fill="#000000" font-family="sans-serif" font-size="12" font-style="italic" lengthAdjust="spacing" textLength="82.0547" x="339" y="365.9629">&#171;Value Object&#187;</text><text fill="#000000" font-family="sans-serif" font-size="14" lengthAdjust="spacing" textLength="62.2412" x="348.9067" y="384.082">Descricao</text><line style="stroke:#181818;stroke-width:0.5;" x1="313" x2="421.0547" y1="392.5957" y2="392.5957"/><line style="stroke:#181818;stroke-width:0.5;" x1="313" x2="421.0547" y1="400.5957" y2="400.5957"/></g><!--class DespesaRecorrente--><g class="entity" data-entity="DespesaRecorrente" data-source-line="51" data-uid="ent0023" id="entity_DespesaRecorrente"><rect fill="#F1F1F1" height="76.543" rx="2.5" ry="2.5" style="stroke:#181818;stroke-width:0.5;" width="156.5098" x="1524.5" y="340.0137"/><ellipse cx="1539.5" cy="370.2852" fill="#ADD1B2" rx="11" ry="11" style="stroke:#181818;stroke-width:1;"/><path d="M1542.2656,366.1602 Q1542.4219,365.9414 1542.6094,365.832 Q1542.7969,365.7227 1543.0156,365.7227 Q1543.3906,365.7227 1543.625,365.9883 Q1543.8594,366.2383 1543.8594,366.8477 L1543.8594,368.3008 Q1543.8594,368.9102 1543.625,369.1758 Q1543.3906,369.4414 1543.0156,369.4414 Q1542.6719,369.4414 1542.4688,369.2383 Q1542.2656,369.0508 1542.1563,368.5352 Q1542.1094,368.1758 1541.9219,367.9883 Q1541.5938,367.6133 1540.9844,367.3945 Q1540.375,367.1758 1539.75,367.1758 Q1538.9844,367.1758 1538.3438,367.5039 Q1537.7188,367.832 1537.2188,368.582 Q1536.7344,369.332 1536.7344,370.3633 L1536.7344,371.457 Q1536.7344,372.6914 1537.625,373.5195 Q1538.5156,374.332 1540.1094,374.332 Q1541.0469,374.332 1541.7031,374.082 Q1542.0938,373.9258 1542.5156,373.4883 Q1542.7813,373.2227 1542.9219,373.1445 Q1543.0781,373.0664 1543.2813,373.0664 Q1543.6094,373.0664 1543.8594,373.332 Q1544.125,373.582 1544.125,373.9258 Q1544.125,374.2695 1543.7813,374.6758 Q1543.2813,375.2539 1542.4844,375.582 Q1541.4063,376.0352 1540.1094,376.0352 Q1538.5938,376.0352 1537.3906,375.4102 Q1536.4063,374.9102 1535.7188,373.8477 Q1535.0313,372.7695 1535.0313,371.4883 L1535.0313,370.332 Q1535.0313,369.0039 1535.6406,367.8633 Q1536.2656,366.707 1537.3594,366.0977 Q1538.4531,365.4727 1539.6875,365.4727 Q1540.4219,365.4727 1541.0625,365.6445 Q1541.7188,365.8008 1542.2656,366.1602 Z " fill="#000000"/><text fill="#000000" font-family="sans-serif" font-size="12" font-style="italic" lengthAdjust="spacing" textLength="43.3594" x="1594.0752" y="357.9629">&#171;Entity&#187;</text><text fill="#000000" font-family="sans-serif" font-size="12" font-style="italic" lengthAdjust="spacing" textLength="34.0254" x="1598.7422" y="373.9238">&#171;root&#187;</text><text fill="#000000" font-family="sans-serif" font-size="14" lengthAdjust="spacing" textLength="124.5098" x="1553.5" y="392.043">DespesaRecorrente</text><line style="stroke:#181818;stroke-width:0.5;" x1="1525.5" x2="1680.0098" y1="400.5566" y2="400.5566"/><line style="stroke:#181818;stroke-width:0.5;" x1="1525.5" x2="1680.0098" y1="408.5566" y2="408.5566"/></g><g class="entity" data-entity="GMN24" data-source-line="54" data-uid="ent0025" id="entity_GMN24"><path d="M1524,594.0137 L1524,638.5957 A0,0 0 0 0 1524,638.5957 L1682.2935,638.5957 A0,0 0 0 0 1682.2935,638.5957 L1682.2935,604.0137 L1672.2935,594.0137 L1607,594.0137 L1603,417.1737 L1599,594.0137 L1524,594.0137 A0,0 0 0 0 1524,594.0137" fill="#FEFFDD" style="stroke:#181818;stroke-width:0.5;"/><path d="M1672.2935,594.0137 L1672.2935,604.0137 L1682.2935,604.0137 L1672.2935,594.0137" fill="#FEFFDD" style="stroke:#181818;stroke-width:0.5;"/><text fill="#000000" font-family="sans-serif" font-size="13" lengthAdjust="spacing" textLength="93.9263" x="1530" y="613.042">Molde para criar</text><text fill="#000000" font-family="sans-serif" font-size="13" lengthAdjust="spacing" textLength="137.2935" x="1530" y="630.333">transa&#231;&#245;es autom&#225;ticas</text></g><!--class Categoria--><g class="entity" data-entity="Categoria" data-source-line="60" data-uid="ent0028" id="entity_Categoria"><rect fill="#F1F1F1" height="76.543" rx="2.5" ry="2.5" style="stroke:#181818;stroke-width:0.5;" width="92.7031" x="1839.5" y="578.0137"/><ellipse cx="1854.5" cy="608.2852" fill="#ADD1B2" rx="11" ry="11" style="stroke:#181818;stroke-width:1;"/><path d="M1857.2656,604.1602 Q1857.4219,603.9414 1857.6094,603.832 Q1857.7969,603.7227 1858.0156,603.7227 Q1858.3906,603.7227 1858.625,603.9883 Q1858.8594,604.2383 1858.8594,604.8477 L1858.8594,606.3008 Q1858.8594,606.9102 1858.625,607.1758 Q1858.3906,607.4414 1858.0156,607.4414 Q1857.6719,607.4414 1857.4688,607.2383 Q1857.2656,607.0508 1857.1563,606.5352 Q1857.1094,606.1758 1856.9219,605.9883 Q1856.5938,605.6133 1855.9844,605.3945 Q1855.375,605.1758 1854.75,605.1758 Q1853.9844,605.1758 1853.3438,605.5039 Q1852.7188,605.832 1852.2188,606.582 Q1851.7344,607.332 1851.7344,608.3633 L1851.7344,609.457 Q1851.7344,610.6914 1852.625,611.5195 Q1853.5156,612.332 1855.1094,612.332 Q1856.0469,612.332 1856.7031,612.082 Q1857.0938,611.9258 1857.5156,611.4883 Q1857.7813,611.2227 1857.9219,611.1445 Q1858.0781,611.0664 1858.2813,611.0664 Q1858.6094,611.0664 1858.8594,611.332 Q1859.125,611.582 1859.125,611.9258 Q1859.125,612.2695 1858.7813,612.6758 Q1858.2813,613.2539 1857.4844,613.582 Q1856.4063,614.0352 1855.1094,614.0352 Q1853.5938,614.0352 1852.3906,613.4102 Q1851.4063,612.9102 1850.7188,611.8477 Q1850.0313,610.7695 1850.0313,609.4883 L1850.0313,608.332 Q1850.0313,607.0039 1850.6406,605.8633 Q1851.2656,604.707 1852.3594,604.0977 Q1853.4531,603.4727 1854.6875,603.4727 Q1855.4219,603.4727 1856.0625,603.6445 Q1856.7188,603.8008 1857.2656,604.1602 Z " fill="#000000"/><text fill="#000000" font-family="sans-serif" font-size="12" font-style="italic" lengthAdjust="spacing" textLength="43.3594" x="1877.1719" y="595.9629">&#171;Entity&#187;</text><text fill="#000000" font-family="sans-serif" font-size="12" font-style="italic" lengthAdjust="spacing" textLength="34.0254" x="1881.8389" y="611.9238">&#171;root&#187;</text><text fill="#000000" font-family="sans-serif" font-size="14" lengthAdjust="spacing" textLength="60.7031" x="1868.5" y="630.043">Categoria</text><line style="stroke:#181818;stroke-width:0.5;" x1="1840.5" x2="1931.2031" y1="638.5566" y2="638.5566"/><line style="stroke:#181818;stroke-width:0.5;" x1="1840.5" x2="1931.2031" y1="646.5566" y2="646.5566"/></g><!--class Nome--><g class="entity" data-entity="Nome" data-source-line="65" data-uid="ent0030" id="entity_Nome"><rect fill="#F1F1F1" height="60.582" rx="2.5" ry="2.5" style="stroke:#181818;stroke-width:0.5;" width="110.0547" x="1265" y="898.0137"/><ellipse cx="1280" cy="920.3047" fill="#ADD1B2" rx="11" ry="11" style="stroke:#181818;stroke-width:1;"/><path d="M1282.7656,916.1797 Q1282.9219,915.9609 1283.1094,915.8516 Q1283.2969,915.7422 1283.5156,915.7422 Q1283.8906,915.7422 1284.125,916.0078 Q1284.3594,916.2578 1284.3594,916.8672 L1284.3594,918.3203 Q1284.3594,918.9297 1284.125,919.1953 Q1283.8906,919.4609 1283.5156,919.4609 Q1283.1719,919.4609 1282.9688,919.2578 Q1282.7656,919.0703 1282.6563,918.5547 Q1282.6094,918.1953 1282.4219,918.0078 Q1282.0938,917.6328 1281.4844,917.4141 Q1280.875,917.1953 1280.25,917.1953 Q1279.4844,917.1953 1278.8438,917.5234 Q1278.2188,917.8516 1277.7188,918.6016 Q1277.2344,919.3516 1277.2344,920.3828 L1277.2344,921.4766 Q1277.2344,922.7109 1278.125,923.5391 Q1279.0156,924.3516 1280.6094,924.3516 Q1281.5469,924.3516 1282.2031,924.1016 Q1282.5938,923.9453 1283.0156,923.5078 Q1283.2813,923.2422 1283.4219,923.1641 Q1283.5781,923.0859 1283.7813,923.0859 Q1284.1094,923.0859 1284.3594,923.3516 Q1284.625,923.6016 1284.625,923.9453 Q1284.625,924.2891 1284.2813,924.6953 Q1283.7813,925.2734 1282.9844,925.6016 Q1281.9063,926.0547 1280.6094,926.0547 Q1279.0938,926.0547 1277.8906,925.4297 Q1276.9063,924.9297 1276.2188,923.8672 Q1275.5313,922.7891 1275.5313,921.5078 L1275.5313,920.3516 Q1275.5313,919.0234 1276.1406,917.8828 Q1276.7656,916.7266 1277.8594,916.1172 Q1278.9531,915.4922 1280.1875,915.4922 Q1280.9219,915.4922 1281.5625,915.6641 Q1282.2188,915.8203 1282.7656,916.1797 Z " fill="#000000"/><text fill="#000000" font-family="sans-serif" font-size="12" font-style="italic" lengthAdjust="spacing" textLength="82.0547" x="1292" y="915.9629">&#171;Value Object&#187;</text><text fill="#000000" font-family="sans-serif" font-size="14" lengthAdjust="spacing" textLength="37.3447" x="1314.355" y="934.082">Nome</text><line style="stroke:#181818;stroke-width:0.5;" x1="1266" x2="1374.0547" y1="942.5957" y2="942.5957"/><line style="stroke:#181818;stroke-width:0.5;" x1="1266" x2="1374.0547" y1="950.5957" y2="950.5957"/></g><!--class Dinheiro--><g class="entity" data-entity="Dinheiro" data-source-line="68" data-uid="ent0031" id="entity_Dinheiro"><rect fill="#F1F1F1" height="60.582" rx="2.5" ry="2.5" style="stroke:#181818;stroke-width:0.5;" width="110.0547" x="1410" y="898.0137"/><ellipse cx="1425" cy="920.3047" fill="#ADD1B2" rx="11" ry="11" style="stroke:#181818;stroke-width:1;"/><path d="M1427.7656,916.1797 Q1427.9219,915.9609 1428.1094,915.8516 Q1428.2969,915.7422 1428.5156,915.7422 Q1428.8906,915.7422 1429.125,916.0078 Q1429.3594,916.2578 1429.3594,916.8672 L1429.3594,918.3203 Q1429.3594,918.9297 1429.125,919.1953 Q1428.8906,919.4609 1428.5156,919.4609 Q1428.1719,919.4609 1427.9688,919.2578 Q1427.7656,919.0703 1427.6563,918.5547 Q1427.6094,918.1953 1427.4219,918.0078 Q1427.0938,917.6328 1426.4844,917.4141 Q1425.875,917.1953 1425.25,917.1953 Q1424.4844,917.1953 1423.8438,917.5234 Q1423.2188,917.8516 1422.7188,918.6016 Q1422.2344,919.3516 1422.2344,920.3828 L1422.2344,921.4766 Q1422.2344,922.7109 1423.125,923.5391 Q1424.0156,924.3516 1425.6094,924.3516 Q1426.5469,924.3516 1427.2031,924.1016 Q1427.5938,923.9453 1428.0156,923.5078 Q1428.2813,923.2422 1428.4219,923.1641 Q1428.5781,923.0859 1428.7813,923.0859 Q1429.1094,923.0859 1429.3594,923.3516 Q1429.625,923.6016 1429.625,923.9453 Q1429.625,924.2891 1429.2813,924.6953 Q1428.7813,925.2734 1427.9844,925.6016 Q1426.9063,926.0547 1425.6094,926.0547 Q1424.0938,926.0547 1422.8906,925.4297 Q1421.9063,924.9297 1421.2188,923.8672 Q1420.5313,922.7891 1420.5313,921.5078 L1420.5313,920.3516 Q1420.5313,919.0234 1421.1406,917.8828 Q1421.7656,916.7266 1422.8594,916.1172 Q1423.9531,915.4922 1425.1875,915.4922 Q1425.9219,915.4922 1426.5625,915.6641 Q1427.2188,915.8203 1427.7656,916.1797 Z " fill="#000000"/><text fill="#000000" font-family="sans-serif" font-size="12" font-style="italic" lengthAdjust="spacing" textLength="82.0547" x="1437" y="915.9629">&#171;Value Object&#187;</text><text fill="#000000" font-family="sans-serif" font-size="14" lengthAdjust="spacing" textLength="52.1377" x="1451.9585" y="934.082">Dinheiro</text><line style="stroke:#181818;stroke-width:0.5;" x1="1411" x2="1519.0547" y1="942.5957" y2="942.5957"/><line style="stroke:#181818;stroke-width:0.5;" x1="1411" x2="1519.0547" y1="950.5957" y2="950.5957"/></g><!--class Icon--><g class="entity" data-entity="Icon" data-source-line="71" data-uid="ent0032" id="entity_Icon"><rect fill="#F1F1F1" height="60.582" rx="2.5" ry="2.5" style="stroke:#181818;stroke-width:0.5;" width="110.0547" x="1120" y="898.0137"/><ellipse cx="1135" cy="920.3047" fill="#ADD1B2" rx="11" ry="11" style="stroke:#181818;stroke-width:1;"/><path d="M1137.7656,916.1797 Q1137.9219,915.9609 1138.1094,915.8516 Q1138.2969,915.7422 1138.5156,915.7422 Q1138.8906,915.7422 1139.125,916.0078 Q1139.3594,916.2578 1139.3594,916.8672 L1139.3594,918.3203 Q1139.3594,918.9297 1139.125,919.1953 Q1138.8906,919.4609 1138.5156,919.4609 Q1138.1719,919.4609 1137.9688,919.2578 Q1137.7656,919.0703 1137.6563,918.5547 Q1137.6094,918.1953 1137.4219,918.0078 Q1137.0938,917.6328 1136.4844,917.4141 Q1135.875,917.1953 1135.25,917.1953 Q1134.4844,917.1953 1133.8438,917.5234 Q1133.2188,917.8516 1132.7188,918.6016 Q1132.2344,919.3516 1132.2344,920.3828 L1132.2344,921.4766 Q1132.2344,922.7109 1133.125,923.5391 Q1134.0156,924.3516 1135.6094,924.3516 Q1136.5469,924.3516 1137.2031,924.1016 Q1137.5938,923.9453 1138.0156,923.5078 Q1138.2813,923.2422 1138.4219,923.1641 Q1138.5781,923.0859 1138.7813,923.0859 Q1139.1094,923.0859 1139.3594,923.3516 Q1139.625,923.6016 1139.625,923.9453 Q1139.625,924.2891 1139.2813,924.6953 Q1138.7813,925.2734 1137.9844,925.6016 Q1136.9063,926.0547 1135.6094,926.0547 Q1134.0938,926.0547 1132.8906,925.4297 Q1131.9063,924.9297 1131.2188,923.8672 Q1130.5313,922.7891 1130.5313,921.5078 L1130.5313,920.3516 Q1130.5313,919.0234 1131.1406,917.8828 Q1131.7656,916.7266 1132.8594,916.1172 Q1133.9531,915.4922 1135.1875,915.4922 Q1135.9219,915.4922 1136.5625,915.6641 Q1137.2188,915.8203 1137.7656,916.1797 Z " fill="#000000"/><text fill="#000000" font-family="sans-serif" font-size="12" font-style="italic" lengthAdjust="spacing" textLength="82.0547" x="1147" y="915.9629">&#171;Value Object&#187;</text><text fill="#000000" font-family="sans-serif" font-size="14" lengthAdjust="spacing" textLength="26.4619" x="1174.7964" y="934.082">Icon</text><line style="stroke:#181818;stroke-width:0.5;" x1="1121" x2="1229.0547" y1="942.5957" y2="942.5957"/><line style="stroke:#181818;stroke-width:0.5;" x1="1121" x2="1229.0547" y1="950.5957" y2="950.5957"/></g><!--link CartaoCredito to Periodo--><g class="link" data-entity-1="CartaoCredito" data-entity-2="Periodo" data-source-line="20" data-uid="lnk9" id="link_CartaoCredito_Periodo"><path codeLine="20" d="M827.34,417.3537 C827.2,427.0237 827.07,437.4037 827,447.0137 C826.94,455.4537 826.83,457.5737 827,466.0137 C827.83,507.5637 829.676,549.5809 831.156,579.7509" fill="none" id="CartaoCredito-to-Periodo" style="stroke:#181818;stroke-width:1;"/><polygon fill="#181818" points="831.45,585.7437,835.0042,576.5585,831.205,580.7497,827.0138,576.9505,831.45,585.7437" style="stroke:#181818;stroke-width:1;"/><text fill="#000000" font-family="sans-serif" font-size="13" lengthAdjust="spacing" textLength="83.1099" x="828" y="462.042">define ciclo de</text><text fill="#000000" font-family="sans-serif" font-size="13" lengthAdjust="spacing" textLength="7.23" x="819.709" y="438.6882">1</text><text fill="#000000" font-family="sans-serif" font-size="13" lengthAdjust="spacing" textLength="7.23" x="823.4265" y="574.7457">1</text></g><!--link Transacao to Data--><g class="link" data-entity-1="Transacao" data-entity-2="Data" data-source-line="43" data-uid="lnk17" id="link_Transacao_Data"><path codeLine="43" d="M587.71,179.0237 C578.53,188.0537 569.69,198.2437 563,209.0137 C535.67,253.0237 523.1768,306.7087 517.1768,341.9587" fill="none" id="Transacao-to-Data" style="stroke:#181818;stroke-width:1;"/><polygon fill="#181818" points="516.17,347.8737,521.6235,339.6725,517.009,342.9446,513.7369,338.3301,516.17,347.8737" style="stroke:#181818;stroke-width:1;"/><text fill="#000000" font-family="sans-serif" font-size="13" lengthAdjust="spacing" textLength="68.6372" x="564" y="224.042">ocorrida em</text><text fill="#000000" font-family="sans-serif" font-size="13" lengthAdjust="spacing" textLength="7.23" x="572.6222" y="200.6038">1</text><text fill="#000000" font-family="sans-serif" font-size="13" lengthAdjust="spacing" textLength="7.23" x="509.3263" y="336.9025">1</text></g><!--link Transacao to Reembolso--><g class="link" data-entity-1="Transacao" data-entity-2="Reembolso" data-source-line="44" data-uid="lnk18" id="link_Transacao_Reembolso"><path codeLine="44" d="M638.51,179.1737 C642.88,226.0137 649.6829,299.0696 653.6729,341.8596" fill="none" id="Transacao-to-Reembolso" style="stroke:#181818;stroke-width:1;"/><polygon fill="#181818" points="654.23,347.8337,657.3771,338.5012,653.7658,342.8553,649.4117,339.2439,654.23,347.8337" style="stroke:#181818;stroke-width:1;"/><text fill="#000000" font-family="sans-serif" font-size="13" lengthAdjust="spacing" textLength="75.8862" x="643" y="224.042">pode originar</text><text fill="#000000" font-family="sans-serif" font-size="13" lengthAdjust="spacing" textLength="7.23" x="631.5181" y="200.4806">1</text><text fill="#000000" font-family="sans-serif" font-size="13" lengthAdjust="spacing" textLength="21.6836" x="630.5579" y="336.8542">0..1</text></g><!--link Transacao to Tipo--><g class="link" data-entity-1="Transacao" data-entity-2="Tipo" data-source-line="45" data-uid="lnk19" id="link_Transacao_Tipo"><path codeLine="45" d="M585.8,145.2437 C476.09,154.4637 215.83,181.6137 149,236.0137 C113.62,264.8137 95.5887,309.7592 86.0687,342.0092" fill="none" id="Transacao-to-Tipo" style="stroke:#181818;stroke-width:1;"/><polygon fill="#181818" points="84.37,347.7637,90.7544,340.2644,85.7856,342.9682,83.0817,337.9994,84.37,347.7637" style="stroke:#181818;stroke-width:1;"/><text fill="#000000" font-family="sans-serif" font-size="13" lengthAdjust="spacing" textLength="49.8735" x="203" y="224.042">&#233; do tipo</text><text fill="#000000" font-family="sans-serif" font-size="13" lengthAdjust="spacing" textLength="7.23" x="570.7369" y="141.752">1</text><text fill="#000000" font-family="sans-serif" font-size="13" lengthAdjust="spacing" textLength="7.23" x="78.1863" y="336.7698">1</text></g><!--link Transacao to Status--><g class="link" data-entity-1="Transacao" data-entity-2="Status" data-source-line="46" data-uid="lnk20" id="link_Transacao_Status"><path codeLine="46" d="M585.82,148.9537 C501.53,162.6737 334.6,194.4137 294,236.0137 C262.62,268.1637 243.986,311.0784 233.156,342.1284" fill="none" id="Transacao-to-Status" style="stroke:#181818;stroke-width:1;"/><polygon fill="#181818" points="231.18,347.7937,237.9209,340.6131,232.8267,343.0726,230.3672,337.9784,231.18,347.7937" style="stroke:#181818;stroke-width:1;"/><text fill="#000000" font-family="sans-serif" font-size="13" lengthAdjust="spacing" textLength="90.3208" x="337" y="224.042">encontra-se em</text><text fill="#000000" font-family="sans-serif" font-size="13" lengthAdjust="spacing" textLength="7.23" x="570.7599" y="165.6332">1</text><text fill="#000000" font-family="sans-serif" font-size="13" lengthAdjust="spacing" textLength="7.23" x="225.3696" y="336.806">1</text></g><!--link Transacao to Descricao--><g class="link" data-entity-1="Transacao" data-entity-2="Descricao" data-source-line="47" data-uid="lnk21" id="link_Transacao_Descricao"><path codeLine="47" d="M585.73,154.5237 C549.93,165.4537 501.41,183.4237 464,209.0137 C415.1,242.4537 389.4935,303.5207 377.0735,342.2207" fill="none" id="Transacao-to-Descricao" style="stroke:#181818;stroke-width:1;"/><polygon fill="#181818" points="375.24,347.9337,381.7989,340.5865,376.7679,343.1728,374.1815,338.1419,375.24,347.9337" style="stroke:#181818;stroke-width:1;"/><text fill="#000000" font-family="sans-serif" font-size="13" lengthAdjust="spacing" textLength="79.5107" x="465" y="224.042">detalhada por</text><text fill="#000000" font-family="sans-serif" font-size="13" lengthAdjust="spacing" textLength="7.23" x="570.7625" y="172.9143">1</text><text fill="#000000" font-family="sans-serif" font-size="13" lengthAdjust="spacing" textLength="7.23" x="369.2357" y="336.9749">1</text></g><!--link Conta to Banco--><g class="link" data-entity-1="Conta" data-entity-2="Banco" data-source-line="79" data-uid="lnk33" id="link_Conta_Banco"><path codeLine="79" d="M1192.07,577.7937 C1172.06,546.7637 1139.34,505.4837 1098,487.0137 C1027.8,455.6537 822.2,455.6537 752,487.0137 C710.66,505.4837 681.1917,541.7212 661.1817,572.7512" fill="none" id="Conta-to-Banco" style="stroke:#181818;stroke-width:1;"/><polygon fill="#181818" points="657.93,577.7937,666.1692,572.3978,660.6397,573.5916,659.4459,568.0622,657.93,577.7937" style="stroke:#181818;stroke-width:1;"/><text fill="#000000" font-family="sans-serif" font-size="13" lengthAdjust="spacing" textLength="86.7026" x="921" y="462.042">domiciliada em</text><text fill="#000000" font-family="sans-serif" font-size="13" lengthAdjust="spacing" textLength="19.5127" x="1167.6811" y="566.7703">0..*</text><text fill="#000000" font-family="sans-serif" font-size="13" lengthAdjust="spacing" textLength="7.23" x="654.1435" y="566.7703">1</text></g><!--link Conta to Icon--><g class="link" data-entity-1="Conta" data-entity-2="Icon" data-source-line="80" data-uid="lnk34" id="link_Conta_Icon"><path codeLine="80" d="M1203.8,655.1137 C1197.93,678.2637 1190.95,708.6537 1187,736.0137 C1178.79,792.8837 1176.3302,854.0651 1175.5102,891.8351" fill="none" id="Conta-to-Icon" style="stroke:#181818;stroke-width:1;"/><polygon fill="#181818" points="1175.38,897.8337,1179.5744,888.9226,1175.4885,892.8348,1171.5763,888.749,1175.38,897.8337" style="stroke:#181818;stroke-width:1;"/><text fill="#000000" font-family="sans-serif" font-size="13" lengthAdjust="spacing" textLength="88.1689" x="1188" y="751.042">identificada por</text><text fill="#000000" font-family="sans-serif" font-size="13" lengthAdjust="spacing" textLength="7.23" x="1194.6063" y="676.7082">1</text><text fill="#000000" font-family="sans-serif" font-size="13" lengthAdjust="spacing" textLength="21.6836" x="1152.3576" y="886.8542">0..1</text></g><!--link Conta to Dinheiro--><g class="link" data-entity-1="Conta" data-entity-2="Dinheiro" data-source-line="81" data-uid="lnk35" id="link_Conta_Dinheiro"><path codeLine="81" d="M1249.56,632.9537 C1289.35,651.9037 1353.31,687.5637 1392,736.0137 C1431.19,785.0837 1449.7933,851.6546 1458.3433,891.9046" fill="none" id="Conta-to-Dinheiro" style="stroke:#181818;stroke-width:1;"/><polygon fill="#181818" points="1459.59,897.7737,1461.6326,888.139,1458.5511,892.8828,1453.8072,889.8012,1459.59,897.7737" style="stroke:#181818;stroke-width:1;"/><text fill="#000000" font-family="sans-serif" font-size="13" lengthAdjust="spacing" textLength="92.5107" x="1406" y="751.042">apresenta saldo</text><text fill="#000000" font-family="sans-serif" font-size="13" lengthAdjust="spacing" textLength="7.23" x="1258.0902" y="631.8007">1</text><text fill="#000000" font-family="sans-serif" font-size="13" lengthAdjust="spacing" textLength="7.23" x="1450.7704" y="886.7819">1</text></g><!--link Conta to Nome--><g class="link" data-entity-1="Conta" data-entity-2="Nome" data-source-line="82" data-uid="lnk36" id="link_Conta_Nome"><path codeLine="82" d="M1239.39,655.2437 C1253.53,677.8237 1270.37,707.5637 1281,736.0137 C1301.61,791.1537 1311.4728,853.5579 1316.1528,891.8879" fill="none" id="Conta-to-Nome" style="stroke:#181818;stroke-width:1;"/><polygon fill="#181818" points="1316.88,897.8437,1319.7597,888.4252,1316.274,892.8805,1311.8187,889.3948,1316.88,897.8437" style="stroke:#181818;stroke-width:1;"/><text fill="#000000" font-family="sans-serif" font-size="13" lengthAdjust="spacing" textLength="95.3989" x="1288" y="751.042">designada como</text><text fill="#000000" font-family="sans-serif" font-size="13" lengthAdjust="spacing" textLength="7.23" x="1235.732" y="676.5614">1</text><text fill="#000000" font-family="sans-serif" font-size="13" lengthAdjust="spacing" textLength="7.23" x="1308.5327" y="886.8663">1</text></g><!--link CartaoCredito to Icon--><g class="link" data-entity-1="CartaoCredito" data-entity-2="Icon" data-source-line="85" data-uid="lnk37" id="link_CartaoCredito_Icon"><path codeLine="85" d="M792.97,417.4537 C780.31,433.6337 767.53,453.5137 761,474.0137 C733.35,560.8237 717.06,599.1937 761,679.0137 C837.2,817.4437 1019.8816,885.0929 1113.9516,912.0129" fill="none" id="CartaoCredito-to-Icon" style="stroke:#181818;stroke-width:1;"/><polygon fill="#181818" points="1119.72,913.6637,1112.1678,907.3419,1114.913,912.288,1109.9668,915.0332,1119.72,913.6637" style="stroke:#181818;stroke-width:1;"/><text fill="#000000" font-family="sans-serif" font-size="13" lengthAdjust="spacing" textLength="33.2363" x="778" y="702.042">utiliza</text><text fill="#000000" font-family="sans-serif" font-size="13" lengthAdjust="spacing" textLength="7.23" x="780.3167" y="438.5047">1</text><text fill="#000000" font-family="sans-serif" font-size="13" lengthAdjust="spacing" textLength="21.6836" x="1090.3322" y="907.7457">0..1</text></g><!--link CartaoCredito to Conta--><g class="link" data-entity-1="CartaoCredito" data-entity-2="Conta" data-source-line="86" data-uid="lnk38" id="link_CartaoCredito_Conta"><path codeLine="86" d="M887.55,383.3037 C944.16,389.4037 1029.54,405.3537 1091,447.0137 C1139.72,480.0337 1173.3823,533.7102 1193.4923,572.3902" fill="none" id="CartaoCredito-to-Conta" style="stroke:#181818;stroke-width:1;"/><polygon fill="#181818" points="1196.26,577.7137,1195.6574,567.8833,1193.9536,573.2774,1188.5594,571.5736,1196.26,577.7137" style="stroke:#181818;stroke-width:1;"/><text fill="#000000" font-family="sans-serif" font-size="13" lengthAdjust="spacing" textLength="86.0044" x="1114" y="462.042">paga fatura via</text><text fill="#000000" font-family="sans-serif" font-size="13" lengthAdjust="spacing" textLength="7.23" x="895.6333" y="379.9046">1</text><text fill="#000000" font-family="sans-serif" font-size="13" lengthAdjust="spacing" textLength="7.23" x="1193.8014" y="566.6766">1</text></g><!--link CartaoCredito to Dinheiro--><g class="link" data-entity-1="CartaoCredito" data-entity-2="Dinheiro" data-source-line="87" data-uid="lnk39" id="link_CartaoCredito_Dinheiro"><path codeLine="87" d="M887.52,407.7537 C908.75,416.9137 933.09,426.4137 956,433.0137 C992.37,443.4937 1010.1,423.8037 1040,447.0137 C1158.21,538.7637 1058.38,662.5137 1176,755.0137 C1253.02,815.5837 1313.65,736.5237 1393,794.0137 C1427.97,819.3537 1445.8939,861.2857 1455.5539,892.2657" fill="none" id="CartaoCredito-to-Dinheiro" style="stroke:#181818;stroke-width:1;"/><polygon fill="#181818" points="1457.34,897.9937,1458.4796,888.211,1455.8516,893.2203,1450.8422,890.5924,1457.34,897.9937" style="stroke:#181818;stroke-width:1;"/><text fill="#000000" font-family="sans-serif" font-size="13" lengthAdjust="spacing" textLength="90.3081" x="1133" y="702.042">tem limite/saldo</text><text fill="#000000" font-family="sans-serif" font-size="13" lengthAdjust="spacing" textLength="7.23" x="895.5995" y="426.6654">1</text><text fill="#000000" font-family="sans-serif" font-size="13" lengthAdjust="spacing" textLength="7.23" x="1456.4492" y="886.5639">1</text></g><!--link CartaoCredito to Nome--><g class="link" data-entity-1="CartaoCredito" data-entity-2="Nome" data-source-line="88" data-uid="lnk40" id="link_CartaoCredito_Nome"><path codeLine="88" d="M887.58,406.4137 C908.92,415.5137 933.31,425.3137 956,433.0137 C979.07,440.8437 994.13,427.7137 1009,447.0137 C1080.86,540.3237 892.15,605.1837 953,706.0137 C1023.69,823.1537 1137.72,713.0237 1248,794.0137 C1282.7,819.5037 1300.649,861.1604 1310.379,892.0804" fill="none" id="CartaoCredito-to-Nome" style="stroke:#181818;stroke-width:1;"/><polygon fill="#181818" points="1312.18,897.8037,1313.294,888.018,1310.6791,893.0342,1305.6629,890.4194,1312.18,897.8037" style="stroke:#181818;stroke-width:1;"/><text fill="#000000" font-family="sans-serif" font-size="13" lengthAdjust="spacing" textLength="74.458" x="954" y="702.042">apelidado de</text><text fill="#000000" font-family="sans-serif" font-size="13" lengthAdjust="spacing" textLength="7.23" x="895.6672" y="405.9755">1</text><text fill="#000000" font-family="sans-serif" font-size="13" lengthAdjust="spacing" textLength="7.23" x="1302.8633" y="886.818">1</text></g><!--link Transacao to Conta--><g class="link" data-entity-1="Transacao" data-entity-2="Conta" data-source-line="91" data-uid="lnk41" id="link_Transacao_Conta"><path codeLine="91" d="M684.12,149.4037 C802.04,171.3537 1099.48,245.3937 1209,447.0137 C1231,487.5137 1228.7609,536.0379 1223.0609,571.9379" fill="none" id="Transacao-to-Conta" style="stroke:#181818;stroke-width:1;"/><polygon fill="#181818" points="1222.12,577.8637,1227.4818,569.6023,1222.9041,572.9255,1219.5808,568.3478,1222.12,577.8637" style="stroke:#181818;stroke-width:1;"/><text fill="#000000" font-family="sans-serif" font-size="13" lengthAdjust="spacing" textLength="99.7217" x="1200" y="384.042">debita/credita em</text><text fill="#000000" font-family="sans-serif" font-size="13" lengthAdjust="spacing" textLength="19.5127" x="692.0218" y="165.819">0..*</text><text fill="#000000" font-family="sans-serif" font-size="13" lengthAdjust="spacing" textLength="7.23" x="1215.9029" y="566.8524">1</text></g><!--link Transacao to CartaoCredito--><g class="link" data-entity-1="Transacao" data-entity-2="CartaoCredito" data-source-line="92" data-uid="lnk42" id="link_Transacao_CartaoCredito"><path codeLine="92" d="M684.31,172.1937 C699.06,182.7637 714.59,195.3937 727,209.0137 C763.29,248.8437 790.6318,298.2999 808.2518,334.4599" fill="none" id="Transacao-to-CartaoCredito" style="stroke:#181818;stroke-width:1;"/><polygon fill="#181818" points="810.88,339.8537,810.5334,330.0109,808.6898,335.3589,803.3418,333.5152,810.88,339.8537" style="stroke:#181818;stroke-width:1;"/><text fill="#000000" font-family="sans-serif" font-size="13" lengthAdjust="spacing" textLength="99.0044" x="741" y="224.042">ou afeta limite de</text><text fill="#000000" font-family="sans-serif" font-size="13" lengthAdjust="spacing" textLength="19.5127" x="692.2373" y="191.6714">0..*</text><text fill="#000000" font-family="sans-serif" font-size="13" lengthAdjust="spacing" textLength="21.6836" x="785.1786" y="328.8407">0..1</text></g><!--link Transacao to Categoria--><g class="link" data-entity-1="Transacao" data-entity-2="Categoria" data-source-line="93" data-uid="lnk43" id="link_Transacao_Categoria"><path codeLine="93" d="M684.04,141.3837 C867.89,141.5837 1515.05,148.5937 1698,236.0137 C1817.95,293.3237 1858.98,324.2537 1910,447.0137 C1927.69,489.5837 1916.9495,537.2009 1904.2595,572.3109" fill="none" id="Transacao-to-Categoria" style="stroke:#181818;stroke-width:1;"/><polygon fill="#181818" points="1902.22,577.9537,1909.0411,570.8492,1903.9196,573.2514,1901.5174,568.1299,1902.22,577.9537" style="stroke:#181818;stroke-width:1;"/><text fill="#000000" font-family="sans-serif" font-size="13" lengthAdjust="spacing" textLength="88.8672" x="1904" y="384.042">classificada em</text><text fill="#000000" font-family="sans-serif" font-size="13" lengthAdjust="spacing" textLength="7.23" x="692.0917" y="137.3009">1</text><text fill="#000000" font-family="sans-serif" font-size="13" lengthAdjust="spacing" textLength="7.23" x="1897.5327" y="566.6661">1</text></g><!--link Transacao to Dinheiro--><g class="link" data-entity-1="Transacao" data-entity-2="Dinheiro" data-source-line="94" data-uid="lnk44" id="link_Transacao_Dinheiro"><path codeLine="94" d="M684.27,142.3837 C822.35,145.7537 1209.4,161.7437 1308,236.0137 C1390,297.7837 1371.95,348.8437 1402,447.0137 C1432.64,547.1337 1391.97,587.5837 1443,679.0137 C1461.56,712.2737 1491.41,701.2637 1507,736.0137 C1531.24,790.0537 1505.9281,853.8013 1485.4381,892.4913" fill="none" id="Transacao-to-Dinheiro" style="stroke:#181818;stroke-width:1;"/><polygon fill="#181818" points="1482.63,897.7937,1490.377,891.7122,1484.9701,893.3751,1483.3072,887.9681,1482.63,897.7937" style="stroke:#181818;stroke-width:1;"/><text fill="#000000" font-family="sans-serif" font-size="13" lengthAdjust="spacing" textLength="63.5781" x="1444" y="622.042">movimenta</text><text fill="#000000" font-family="sans-serif" font-size="13" lengthAdjust="spacing" textLength="7.23" x="692.0269" y="157.99">1</text><text fill="#000000" font-family="sans-serif" font-size="13" lengthAdjust="spacing" textLength="7.23" x="1478.5624" y="886.806">1</text></g><!--link DespesaRecorrente to Conta--><g class="link" data-entity-1="DespesaRecorrente" data-entity-2="Conta" data-source-line="97" data-uid="lnk45" id="link_DespesaRecorrente_Conta"><path codeLine="97" d="M1524.41,406.3337 C1480.62,422.8837 1426.01,446.2537 1381,474.0137 C1331.68,504.4337 1286.1897,544.6699 1253.9597,575.5899" fill="none" id="DespesaRecorrente-to-Conta" style="stroke:#181818;stroke-width:1;"/><polygon fill="#181818" points="1249.63,579.7437,1258.8937,576.3995,1253.2381,576.2822,1253.3554,570.6266,1249.63,579.7437" style="stroke:#181818;stroke-width:1;"/><text fill="#000000" font-family="sans-serif" font-size="13" lengthAdjust="spacing" textLength="100.4517" x="1428" y="462.042">ser&#225; debitada em</text><text fill="#000000" font-family="sans-serif" font-size="13" lengthAdjust="spacing" textLength="7.23" x="1509.3647" y="405.3006">1</text><text fill="#000000" font-family="sans-serif" font-size="13" lengthAdjust="spacing" textLength="7.23" x="1257.6872" y="567.5122">1</text></g><!--link DespesaRecorrente to Categoria--><g class="link" data-entity-1="DespesaRecorrente" data-entity-2="Categoria" data-source-line="98" data-uid="lnk46" id="link_DespesaRecorrente_Categoria"><path codeLine="98" d="M1681.55,406.0937 C1706.17,416.5937 1732.51,430.2137 1754,447.0137 C1801,483.7337 1837.7772,535.5512 1861.0472,572.9012" fill="none" id="DespesaRecorrente-to-Categoria" style="stroke:#181818;stroke-width:1;"/><polygon fill="#181818" points="1864.22,577.9937,1862.8559,568.2397,1861.576,573.7499,1856.0659,572.4701,1864.22,577.9937" style="stroke:#181818;stroke-width:1;"/><text fill="#000000" font-family="sans-serif" font-size="13" lengthAdjust="spacing" textLength="125.7153" x="1776" y="462.042">pr&#233;-classificada como</text><text fill="#000000" font-family="sans-serif" font-size="13" lengthAdjust="spacing" textLength="7.23" x="1688.8897" y="404.8546">1</text><text fill="#000000" font-family="sans-serif" font-size="13" lengthAdjust="spacing" textLength="7.23" x="1852.7639" y="566.7132">1</text></g><!--link DespesaRecorrente to Nome--><g class="link" data-entity-1="DespesaRecorrente" data-entity-2="Nome" data-source-line="99" data-uid="lnk47" id="link_DespesaRecorrente_Nome"><path codeLine="99" d="M1656.21,417.2037 C1673.56,432.6237 1690.72,452.0237 1700,474.0137 C1735.42,557.9637 1751.28,603.7037 1700,679.0137 C1648.11,755.2137 1593.52,723.1937 1507,755.0137 C1456.74,773.4937 1433.96,759.5137 1393,794.0137 C1360.27,821.5837 1341.7311,862.0672 1331.0611,892.2272" fill="none" id="DespesaRecorrente-to-Nome" style="stroke:#181818;stroke-width:1;"/><polygon fill="#181818" points="1329.06,897.8837,1335.8327,890.7331,1330.7276,893.17,1328.2907,888.0649,1329.06,897.8837" style="stroke:#181818;stroke-width:1;"/><text fill="#000000" font-family="sans-serif" font-size="13" lengthAdjust="spacing" textLength="84.5508" x="1694" y="702.042">nome da regra</text><text fill="#000000" font-family="sans-serif" font-size="13" lengthAdjust="spacing" textLength="7.23" x="1664.9489" y="438.5152">1</text><text fill="#000000" font-family="sans-serif" font-size="13" lengthAdjust="spacing" textLength="7.23" x="1331.6686" y="886.9145">1</text></g><!--link DespesaRecorrente to Dinheiro--><g class="link" data-entity-1="DespesaRecorrente" data-entity-2="Dinheiro" data-source-line="100" data-uid="lnk48" id="link_DespesaRecorrente_Dinheiro"><path codeLine="100" d="M1655.31,417.2537 C1666.3,423.5537 1678.17,429.2537 1690,433.0137 C1783.38,462.6637 1817.46,414.8437 1910,447.0137 C1929.91,453.9337 1938.69,455.6237 1949,474.0137 C2010.19,583.0937 2030.09,648.8337 1964,755.0137 C1915.68,832.6337 1645.5189,892.8845 1526.0189,916.2045" fill="none" id="DespesaRecorrente-to-Dinheiro" style="stroke:#181818;stroke-width:1;"/><polygon fill="#181818" points="1520.13,917.3537,1529.7295,919.5558,1525.0374,916.396,1528.1972,911.7039,1520.13,917.3537" style="stroke:#181818;stroke-width:1;"/><text fill="#000000" font-family="sans-serif" font-size="13" lengthAdjust="spacing" textLength="84.5381" x="1997" y="702.042">valor estimado</text><text fill="#000000" font-family="sans-serif" font-size="13" lengthAdjust="spacing" textLength="7.23" x="1655.8392" y="438.5729">1</text><text fill="#000000" font-family="sans-serif" font-size="13" lengthAdjust="spacing" textLength="7.23" x="1528.0202" y="911.7878">1</text></g><!--link Categoria to Icon--><g class="link" data-entity-1="Categoria" data-entity-2="Icon" data-source-line="103" data-uid="lnk49" id="link_Categoria_Icon"><path codeLine="103" d="M1855.39,655.2937 C1838.6,673.4737 1816.27,693.9037 1792,706.0137 C1676.99,763.3937 1633.89,734.5537 1507,755.0137 C1392.08,773.5437 1343.42,727.3337 1248,794.0137 C1212.49,818.8337 1194.3151,860.9085 1184.5451,892.0685" fill="none" id="Categoria-to-Icon" style="stroke:#181818;stroke-width:1;"/><polygon fill="#181818" points="1182.75,897.7937,1189.2594,890.4026,1184.2459,893.0227,1181.6258,888.0092,1182.75,897.7937" style="stroke:#181818;stroke-width:1;"/><text fill="#000000" font-family="sans-serif" font-size="13" lengthAdjust="spacing" textLength="71.5381" x="1713" y="751.042">ilustrada por</text><text fill="#000000" font-family="sans-serif" font-size="13" lengthAdjust="spacing" textLength="7.23" x="1843.2072" y="676.619">1</text><text fill="#000000" font-family="sans-serif" font-size="13" lengthAdjust="spacing" textLength="21.6836" x="1186.5789" y="886.806">0..1</text></g><!--link Categoria to Nome--><g class="link" data-entity-1="Categoria" data-entity-2="Nome" data-source-line="104" data-uid="lnk50" id="link_Categoria_Nome"><path codeLine="104" d="M1892.1,655.2237 C1894.82,684.8737 1893.8,725.8837 1874,755.0137 C1856.68,780.4937 1841.91,778.6537 1812,786.0137 C1789.39,791.5837 1412.91,781.9537 1393,794.0137 C1355.61,816.6637 1337.7029,860.0558 1328.5529,891.9858" fill="none" id="Categoria-to-Nome" style="stroke:#181818;stroke-width:1;"/><polygon fill="#181818" points="1326.9,897.7537,1333.2245,890.2038,1328.2774,892.9471,1325.5341,888,1326.9,897.7537" style="stroke:#181818;stroke-width:1;"/><text fill="#000000" font-family="sans-serif" font-size="13" lengthAdjust="spacing" textLength="71.5571" x="1884" y="751.042">denominada</text><text fill="#000000" font-family="sans-serif" font-size="13" lengthAdjust="spacing" textLength="7.23" x="1885.5385" y="676.5383">1</text><text fill="#000000" font-family="sans-serif" font-size="13" lengthAdjust="spacing" textLength="7.23" x="1320.6193" y="886.7577">1</text></g><!--link Banco to Icon--><g class="link" data-entity-1="Banco" data-entity-2="Icon" data-source-line="105" data-uid="lnk51" id="link_Banco_Icon"><path codeLine="105" d="M599.6,634.4437 C550.53,659.5737 473.2,708.7537 509,755.0137 C584.76,852.8937 968.3878,904.6711 1114.0278,921.1011" fill="none" id="Banco-to-Icon" style="stroke:#181818;stroke-width:1;"/><polygon fill="#181818" points="1119.99,921.7737,1111.4951,916.79,1115.0215,921.2132,1110.5983,924.7395,1119.99,921.7737" style="stroke:#181818;stroke-width:1;"/><text fill="#000000" font-family="sans-serif" font-size="13" lengthAdjust="spacing" textLength="82.3735" x="510" y="751.042">ostenta marca</text><text fill="#000000" font-family="sans-serif" font-size="13" lengthAdjust="spacing" textLength="7.23" x="584.7972" y="633.4022">1</text><text fill="#000000" font-family="sans-serif" font-size="13" lengthAdjust="spacing" textLength="21.6836" x="1090.2293" y="936.0861">0..1</text></g><!--link Banco to Nome--><g class="link" data-entity-1="Banco" data-entity-2="Nome" data-source-line="106" data-uid="lnk52" id="link_Banco_Nome"><path codeLine="106" d="M652.56,655.3937 C661.91,672.9337 675.12,692.7637 692,706.0137 C779.78,774.9137 820.11,766.6137 930,786.0137 C947.4,789.0837 1232.94,784.7637 1248,794.0137 C1285.14,816.8137 1302.7295,860.1567 1311.6695,892.0267" fill="none" id="Banco-to-Nome" style="stroke:#181818;stroke-width:1;"/><polygon fill="#181818" points="1313.29,897.8037,1314.7105,888.0578,1311.9396,892.9895,1307.0079,890.2185,1313.29,897.8037" style="stroke:#181818;stroke-width:1;"/><text fill="#000000" font-family="sans-serif" font-size="13" lengthAdjust="spacing" textLength="53.479" x="773" y="751.042">chamado</text><text fill="#000000" font-family="sans-serif" font-size="13" lengthAdjust="spacing" textLength="7.23" x="647.5174" y="676.4359">1</text><text fill="#000000" font-family="sans-serif" font-size="13" lengthAdjust="spacing" textLength="7.23" x="1312.646" y="886.818">1</text></g><!--SRC=[ZLPBRjj03Dth54GsJGiu_Qu4Du3g14M0nWeS8tjQefLf9OqmCmxG5bbrqNC4NHGvG4_WYvKSoHyvic8jB1bwvF0zyj6kCFc66S7H9omJ3KSm76AM6ShGqUaf_0o0hoH7Qw5638VdfLFkExyS3etMResw3-w3e5hb6-dIOM- -6j6HhpCT6eTwP2XLhh_CDh8d_LRC5HcbKq7VOBuWY6TVATbcvcyl8FRPbtyqf3HN9O46Imj8L99h3zafy-qH30Qd_juS4QuYVGn_QR6S6Ymj9jZFS8CwZDqPUftxgDN02L4nqxdL1w6dgZeCUEtGBUn1q3EoYL4rjVvMRB-ra6AZol8lTyT3jhJSQeDe4O9Ej36AWwZOXtrpSiAFQqL2g7JA_JOgKoMQdXD4bX2MZy3pvFYv1reB4mAniKfdS62ffoAfVYMFZ973_1QPGwLDQuYYZCeK2ogVCGedgyZYX4GCHbElj-Mpr0oQQUTq0Nh-D847oNMfSnQhGeF0zJPooULMJVf75d31YPOFZWbPZ-2w_HaxpdUKiUxFB9Crwi25SdsBx5AVq_h7dOHZNT1X8wlAMrBcC2jSSAFt0naQl82FVC4NbQraOcKDGUHvfzh2yKY6D-FnjIyzM8BUda04etWyZG0hlrYz-Xe-HUDH3CUE2fZ90hz8NyA0aPF9nUUBipXezZIF-wlDdFbLppEc2vMeN67jb0Rgvt5Z4Q4KWagvJ3NdLZOJkGkMwMsK2hb4GvO4O35FTHTOz9Sfjoeh9MUY2or4tvt85eucq-Mlk4KL6_gUglW9hp2hRS2SWwxDl4jYuPZi3mpsRt5VAEy2pWnpDY-VUwTmR_8MQQahLuLozBfXlJ-gPeyLvTpcrFzECFVtqkJf91fVHylV-_ZhnLgUZHIYmDPAQNUx8PNIJ3bydVXwVCEx8sh5MiM7SYhEUIKr3ANWxXMsDcfOMs8rC-tZkXKiz9sIXgA8yK468VfyFZwBBi_7qpt3mARXh_E5j4e6VnpVnC7JpTVHOqjc-T28KjVtJDY6M6MMZuCMEp-z_V5roqjPEnpWwtucOYFC7URQ05cd2fuMKMUp3wdvutRSRBoRs8eRrakrsyxvmlAkNdcv0xrbKQvPYKU3vZzaPqPjdJTyWIPvYbndIsxHK_WF]--></g></svg>