<svg xmlns="http://www.w3.org/2000/svg" xmlns:xlink="http://www.w3.org/1999/xlink" contentStyleType="text/css" data-diagram-type="CLASS" height="774px" preserveAspectRatio="none" style="width:2364px;height:774px;background:#FFFFFF;" version="1.1" viewBox="0 0 2364 774" width="2364px" zoomAndPan="magnify"><defs/><g><!--cluster Banco --><g class="cluster" data-entity="Banco " data-source-line="2" data-uid="ent0002" id="cluster_Banco "><path d="M175.9,6.0137 L223.5758,6.0137 A3.75,3.75 0 0 1 226.0758,8.5137 L233.0758,30.6348 L274.9,30.6348 A2.5,2.5 0 0 1 277.4,33.1348 L277.4,176.5137 A2.5,2.5 0 0 1 274.9,179.0137 L175.9,179.0137 A2.5,2.5 0 0 1 173.4,176.5137 L173.4,8.5137 A2.5,2.5 0 0 1 175.9,6.0137" fill="none" style="stroke:#000000;stroke-width:1.5;"/><line style="stroke:#000000;stroke-width:1.5;" x1="173.4" x2="233.0758" y1="30.6348" y2="30.6348"/><text fill="#000000" font-family="sans-serif" font-size="14" font-weight="bold" lengthAdjust="spacing" textLength="42.7861" x="177.4" y="23.1211">Banco</text><text fill="#000000" font-family="sans-serif" font-size="14" font-style="italic" lengthAdjust="spacing" textLength="78.627" x="190.0865" y="47.7422">&#171;aggregate&#187;</text></g><!--cluster Conta --><g class="cluster" data-entity="Conta " data-source-line="7" data-uid="ent0004" id="cluster_Conta "><path d="M705.9,230.0137 L750.4518,230.0137 A3.75,3.75 0 0 1 752.9518,232.5137 L759.9518,254.6348 L804.9,254.6348 A2.5,2.5 0 0 1 807.4,257.1348 L807.4,416.5137 A2.5,2.5 0 0 1 804.9,419.0137 L705.9,419.0137 A2.5,2.5 0 0 1 703.4,416.5137 L703.4,232.5137 A2.5,2.5 0 0 1 705.9,230.0137" fill="none" style="stroke:#000000;stroke-width:1.5;"/><line style="stroke:#000000;stroke-width:1.5;" x1="703.4" x2="759.9518" y1="254.6348" y2="254.6348"/><text fill="#000000" font-family="sans-serif" font-size="14" font-weight="bold" lengthAdjust="spacing" textLength="39.6621" x="707.4" y="247.1211">Conta</text><text fill="#000000" font-family="sans-serif" font-size="14" font-style="italic" lengthAdjust="spacing" textLength="78.627" x="720.0865" y="271.7422">&#171;aggregate&#187;</text></g><!--cluster CartaoCredito --><g class="cluster" data-entity="CartaoCredito " data-source-line="12" data-uid="ent0006" id="cluster_CartaoCredito "><path d="M1143.9,6.0137 L1242.1344,6.0137 A3.75,3.75 0 0 1 1244.6344,8.5137 L1251.6344,30.6348 L1290.9,30.6348 A2.5,2.5 0 0 1 1293.4,33.1348 L1293.4,408.5137 A2.5,2.5 0 0 1 1290.9,411.0137 L1143.9,411.0137 A2.5,2.5 0 0 1 1141.4,408.5137 L1141.4,8.5137 A2.5,2.5 0 0 1 1143.9,6.0137" fill="none" style="stroke:#000000;stroke-width:1.5;"/><line style="stroke:#000000;stroke-width:1.5;" x1="1141.4" x2="1251.6344" y1="30.6348" y2="30.6348"/><text fill="#000000" font-family="sans-serif" font-size="14" font-weight="bold" lengthAdjust="spacing" textLength="93.3447" x="1145.4" y="23.1211">CartaoCredito</text><text fill="#000000" font-family="sans-serif" font-size="14" font-style="italic" lengthAdjust="spacing" textLength="78.627" x="1182.0865" y="47.7422">&#171;aggregate&#187;</text></g><!--cluster Transacao --><g class="cluster" data-entity="Transacao " data-source-line="23" data-uid="ent0010" id="cluster_Transacao "><path d="M1319.9,230.0137 L1394.8238,230.0137 A3.75,3.75 0 0 1 1397.3238,232.5137 L1404.3238,254.6348 L2036.9,254.6348 A2.5,2.5 0 0 1 2039.4,257.1348 L2039.4,558.5137 A2.5,2.5 0 0 1 2036.9,561.0137 L1319.9,561.0137 A2.5,2.5 0 0 1 1317.4,558.5137 L1317.4,232.5137 A2.5,2.5 0 0 1 1319.9,230.0137" fill="none" style="stroke:#000000;stroke-width:1.5;"/><line style="stroke:#000000;stroke-width:1.5;" x1="1317.4" x2="1404.3238" y1="254.6348" y2="254.6348"/><text fill="#000000" font-family="sans-serif" font-size="14" font-weight="bold" lengthAdjust="spacing" textLength="70.0342" x="1321.4" y="247.1211">Transacao</text><text fill="#000000" font-family="sans-serif" font-size="14" font-style="italic" lengthAdjust="spacing" textLength="78.627" x="1643.0865" y="271.7422">&#171;aggregate&#187;</text></g><!--cluster Categoria --><g class="cluster" data-entity="Categoria " data-source-line="50" data-uid="ent0022" id="cluster_Categoria "><path d="M2194.9,230.0137 L2264.3619,230.0137 A3.75,3.75 0 0 1 2266.8619,232.5137 L2273.8619,254.6348 L2315.9,254.6348 A2.5,2.5 0 0 1 2318.4,257.1348 L2318.4,416.5137 A2.5,2.5 0 0 1 2315.9,419.0137 L2194.9,419.0137 A2.5,2.5 0 0 1 2192.4,416.5137 L2192.4,232.5137 A2.5,2.5 0 0 1 2194.9,230.0137" fill="none" style="stroke:#000000;stroke-width:1.5;"/><line style="stroke:#000000;stroke-width:1.5;" x1="2192.4" x2="2273.8619" y1="254.6348" y2="254.6348"/><text fill="#000000" font-family="sans-serif" font-size="14" font-weight="bold" lengthAdjust="spacing" textLength="64.5723" x="2196.4" y="247.1211">Categoria</text><text fill="#000000" font-family="sans-serif" font-size="14" font-style="italic" lengthAdjust="spacing" textLength="78.627" x="2220.0865" y="271.7422">&#171;aggregate&#187;</text></g><!--cluster Shared --><g class="cluster" data-entity="Shared " data-source-line="55" data-uid="ent0024" id="cluster_Shared "><path d="M862.9,594.0137 L915.2516,594.0137 A3.75,3.75 0 0 1 917.7516,596.5137 L924.7516,618.6348 L1289.9,618.6348 A2.5,2.5 0 0 1 1292.4,621.1348 L1292.4,764.5137 A2.5,2.5 0 0 1 1289.9,767.0137 L862.9,767.0137 A2.5,2.5 0 0 1 860.4,764.5137 L860.4,596.5137 A2.5,2.5 0 0 1 862.9,594.0137" fill="none" style="stroke:#000000;stroke-width:1.5;"/><line style="stroke:#000000;stroke-width:1.5;" x1="860.4" x2="924.7516" y1="618.6348" y2="618.6348"/><text fill="#000000" font-family="sans-serif" font-size="14" font-weight="bold" lengthAdjust="spacing" textLength="47.4619" x="864.4" y="611.1211">Shared</text><text fill="#000000" font-family="sans-serif" font-size="14" font-style="italic" lengthAdjust="spacing" textLength="58.3789" x="1051.2105" y="635.7422">&#171;shared&#187;</text></g><!--class Banco--><g class="entity" data-entity="Banco" data-source-line="3" data-uid="ent0003" id="entity_Banco"><rect fill="#F1F1F1" height="60.582" rx="2.5" ry="2.5" style="stroke:#181818;stroke-width:0.5;" width="71.6963" x="189.4" y="102.0137"/><ellipse cx="204.4" cy="124.3047" fill="#ADD1B2" rx="11" ry="11" style="stroke:#181818;stroke-width:1;"/><path d="M207.1656,120.1797 Q207.3219,119.9609 207.5094,119.8516 Q207.6969,119.7422 207.9156,119.7422 Q208.2906,119.7422 208.525,120.0078 Q208.7594,120.2578 208.7594,120.8672 L208.7594,122.3203 Q208.7594,122.9297 208.525,123.1953 Q208.2906,123.4609 207.9156,123.4609 Q207.5719,123.4609 207.3688,123.2578 Q207.1656,123.0703 207.0563,122.5547 Q207.0094,122.1953 206.8219,122.0078 Q206.4938,121.6328 205.8844,121.4141 Q205.275,121.1953 204.65,121.1953 Q203.8844,121.1953 203.2438,121.5234 Q202.6188,121.8516 202.1188,122.6016 Q201.6344,123.3516 201.6344,124.3828 L201.6344,125.4766 Q201.6344,126.7109 202.525,127.5391 Q203.4156,128.3516 205.0094,128.3516 Q205.9469,128.3516 206.6031,128.1016 Q206.9938,127.9453 207.4156,127.5078 Q207.6813,127.2422 207.8219,127.1641 Q207.9781,127.0859 208.1813,127.0859 Q208.5094,127.0859 208.7594,127.3516 Q209.025,127.6016 209.025,127.9453 Q209.025,128.2891 208.6813,128.6953 Q208.1813,129.2734 207.3844,129.6016 Q206.3063,130.0547 205.0094,130.0547 Q203.4938,130.0547 202.2906,129.4297 Q201.3063,128.9297 200.6188,127.8672 Q199.9313,126.7891 199.9313,125.5078 L199.9313,124.3516 Q199.9313,123.0234 200.5406,121.8828 Q201.1656,120.7266 202.2594,120.1172 Q203.3531,119.4922 204.5875,119.4922 Q205.3219,119.4922 205.9625,119.6641 Q206.6188,119.8203 207.1656,120.1797 Z " fill="#000000"/><text fill="#000000" font-family="sans-serif" font-size="12" font-style="italic" lengthAdjust="spacing" textLength="43.3594" x="216.5685" y="119.9629">&#171;Entity&#187;</text><text fill="#000000" font-family="sans-serif" font-size="14" lengthAdjust="spacing" textLength="39.6963" x="218.4" y="138.082">Banco</text><line style="stroke:#181818;stroke-width:0.5;" x1="190.4" x2="260.0963" y1="146.5957" y2="146.5957"/><line style="stroke:#181818;stroke-width:0.5;" x1="190.4" x2="260.0963" y1="154.5957" y2="154.5957"/></g><!--class Conta--><g class="entity" data-entity="Conta" data-source-line="8" data-uid="ent0005" id="entity_Conta"><rect fill="#F1F1F1" height="76.543" rx="2.5" ry="2.5" style="stroke:#181818;stroke-width:0.5;" width="71.3594" x="719.9" y="326.0137"/><ellipse cx="734.9" cy="356.2852" fill="#ADD1B2" rx="11" ry="11" style="stroke:#181818;stroke-width:1;"/><path d="M737.6656,352.1602 Q737.8219,351.9414 738.0094,351.832 Q738.1969,351.7227 738.4156,351.7227 Q738.7906,351.7227 739.025,351.9883 Q739.2594,352.2383 739.2594,352.8477 L739.2594,354.3008 Q739.2594,354.9102 739.025,355.1758 Q738.7906,355.4414 738.4156,355.4414 Q738.0719,355.4414 737.8688,355.2383 Q737.6656,355.0508 737.5563,354.5352 Q737.5094,354.1758 737.3219,353.9883 Q736.9938,353.6133 736.3844,353.3945 Q735.775,353.1758 735.15,353.1758 Q734.3844,353.1758 733.7438,353.5039 Q733.1188,353.832 732.6188,354.582 Q732.1344,355.332 732.1344,356.3633 L732.1344,357.457 Q732.1344,358.6914 733.025,359.5195 Q733.9156,360.332 735.5094,360.332 Q736.4469,360.332 737.1031,360.082 Q737.4938,359.9258 737.9156,359.4883 Q738.1813,359.2227 738.3219,359.1445 Q738.4781,359.0664 738.6813,359.0664 Q739.0094,359.0664 739.2594,359.332 Q739.525,359.582 739.525,359.9258 Q739.525,360.2695 739.1813,360.6758 Q738.6813,361.2539 737.8844,361.582 Q736.8063,362.0352 735.5094,362.0352 Q733.9938,362.0352 732.7906,361.4102 Q731.8063,360.9102 731.1188,359.8477 Q730.4313,358.7695 730.4313,357.4883 L730.4313,356.332 Q730.4313,355.0039 731.0406,353.8633 Q731.6656,352.707 732.7594,352.0977 Q733.8531,351.4727 735.0875,351.4727 Q735.8219,351.4727 736.4625,351.6445 Q737.1188,351.8008 737.6656,352.1602 Z " fill="#000000"/><text fill="#000000" font-family="sans-serif" font-size="12" font-style="italic" lengthAdjust="spacing" textLength="43.3594" x="746.9" y="343.9629">&#171;Entity&#187;</text><text fill="#000000" font-family="sans-serif" font-size="12" font-style="italic" lengthAdjust="spacing" textLength="34.0254" x="751.567" y="359.9238">&#171;root&#187;</text><text fill="#000000" font-family="sans-serif" font-size="14" lengthAdjust="spacing" textLength="37.3584" x="749.9005" y="378.043">Conta</text><line style="stroke:#181818;stroke-width:0.5;" x1="720.9" x2="790.2594" y1="386.5566" y2="386.5566"/><line style="stroke:#181818;stroke-width:0.5;" x1="720.9" x2="790.2594" y1="394.5566" y2="394.5566"/></g><!--class CartaoCredito--><g class="entity" data-entity="CartaoCredito" data-source-line="13" data-uid="ent0007" id="entity_CartaoCredito"><rect fill="#F1F1F1" height="60.582" rx="2.5" ry="2.5" style="stroke:#181818;stroke-width:0.5;" width="119.1514" x="1157.9" y="102.0137"/><ellipse cx="1172.9" cy="124.3047" fill="#ADD1B2" rx="11" ry="11" style="stroke:#181818;stroke-width:1;"/><path d="M1175.6656,120.1797 Q1175.8219,119.9609 1176.0094,119.8516 Q1176.1969,119.7422 1176.4156,119.7422 Q1176.7906,119.7422 1177.025,120.0078 Q1177.2594,120.2578 1177.2594,120.8672 L1177.2594,122.3203 Q1177.2594,122.9297 1177.025,123.1953 Q1176.7906,123.4609 1176.4156,123.4609 Q1176.0719,123.4609 1175.8687,123.2578 Q1175.6656,123.0703 1175.5562,122.5547 Q1175.5094,122.1953 1175.3219,122.0078 Q1174.9937,121.6328 1174.3844,121.4141 Q1173.775,121.1953 1173.15,121.1953 Q1172.3844,121.1953 1171.7437,121.5234 Q1171.1187,121.8516 1170.6187,122.6016 Q1170.1344,123.3516 1170.1344,124.3828 L1170.1344,125.4766 Q1170.1344,126.7109 1171.025,127.5391 Q1171.9156,128.3516 1173.5094,128.3516 Q1174.4469,128.3516 1175.1031,128.1016 Q1175.4937,127.9453 1175.9156,127.5078 Q1176.1812,127.2422 1176.3219,127.1641 Q1176.4781,127.0859 1176.6812,127.0859 Q1177.0094,127.0859 1177.2594,127.3516 Q1177.525,127.6016 1177.525,127.9453 Q1177.525,128.2891 1177.1812,128.6953 Q1176.6812,129.2734 1175.8844,129.6016 Q1174.8062,130.0547 1173.5094,130.0547 Q1171.9937,130.0547 1170.7906,129.4297 Q1169.8062,128.9297 1169.1187,127.8672 Q1168.4312,126.7891 1168.4312,125.5078 L1168.4312,124.3516 Q1168.4312,123.0234 1169.0406,121.8828 Q1169.6656,120.7266 1170.7594,120.1172 Q1171.8531,119.4922 1173.0875,119.4922 Q1173.8219,119.4922 1174.4625,119.6641 Q1175.1187,119.8203 1175.6656,120.1797 Z " fill="#000000"/><text fill="#000000" font-family="sans-serif" font-size="12" font-style="italic" lengthAdjust="spacing" textLength="43.3594" x="1208.796" y="119.9629">&#171;Entity&#187;</text><text fill="#000000" font-family="sans-serif" font-size="14" lengthAdjust="spacing" textLength="87.1514" x="1186.9" y="138.082">CartaoCredito</text><line style="stroke:#181818;stroke-width:0.5;" x1="1158.9" x2="1276.0514" y1="146.5957" y2="146.5957"/><line style="stroke:#181818;stroke-width:0.5;" x1="1158.9" x2="1276.0514" y1="154.5957" y2="154.5957"/></g><!--class Periodo--><g class="entity" data-entity="Periodo" data-source-line="16" data-uid="ent0008" id="entity_Periodo"><rect fill="#F1F1F1" height="60.582" rx="2.5" ry="2.5" style="stroke:#181818;stroke-width:0.5;" width="110.0547" x="1167.4" y="334.0137"/><ellipse cx="1182.4" cy="356.3047" fill="#ADD1B2" rx="11" ry="11" style="stroke:#181818;stroke-width:1;"/><path d="M1185.1656,352.1797 Q1185.3219,351.9609 1185.5094,351.8516 Q1185.6969,351.7422 1185.9156,351.7422 Q1186.2906,351.7422 1186.525,352.0078 Q1186.7594,352.2578 1186.7594,352.8672 L1186.7594,354.3203 Q1186.7594,354.9297 1186.525,355.1953 Q1186.2906,355.4609 1185.9156,355.4609 Q1185.5719,355.4609 1185.3687,355.2578 Q1185.1656,355.0703 1185.0562,354.5547 Q1185.0094,354.1953 1184.8219,354.0078 Q1184.4937,353.6328 1183.8844,353.4141 Q1183.275,353.1953 1182.65,353.1953 Q1181.8844,353.1953 1181.2437,353.5234 Q1180.6187,353.8516 1180.1187,354.6016 Q1179.6344,355.3516 1179.6344,356.3828 L1179.6344,357.4766 Q1179.6344,358.7109 1180.525,359.5391 Q1181.4156,360.3516 1183.0094,360.3516 Q1183.9469,360.3516 1184.6031,360.1016 Q1184.9937,359.9453 1185.4156,359.5078 Q1185.6812,359.2422 1185.8219,359.1641 Q1185.9781,359.0859 1186.1812,359.0859 Q1186.5094,359.0859 1186.7594,359.3516 Q1187.025,359.6016 1187.025,359.9453 Q1187.025,360.2891 1186.6812,360.6953 Q1186.1812,361.2734 1185.3844,361.6016 Q1184.3062,362.0547 1183.0094,362.0547 Q1181.4937,362.0547 1180.2906,361.4297 Q1179.3062,360.9297 1178.6187,359.8672 Q1177.9312,358.7891 1177.9312,357.5078 L1177.9312,356.3516 Q1177.9312,355.0234 1178.5406,353.8828 Q1179.1656,352.7266 1180.2594,352.1172 Q1181.3531,351.4922 1182.5875,351.4922 Q1183.3219,351.4922 1183.9625,351.6641 Q1184.6187,351.8203 1185.1656,352.1797 Z " fill="#000000"/><text fill="#000000" font-family="sans-serif" font-size="12" font-style="italic" lengthAdjust="spacing" textLength="82.0547" x="1194.4" y="351.9629">&#171;Value Object&#187;</text><text fill="#000000" font-family="sans-serif" font-size="14" lengthAdjust="spacing" textLength="48.2549" x="1211.2999" y="370.082">Periodo</text><line style="stroke:#181818;stroke-width:0.5;" x1="1168.4" x2="1276.4547" y1="378.5957" y2="378.5957"/><line style="stroke:#181818;stroke-width:0.5;" x1="1168.4" x2="1276.4547" y1="386.5957" y2="386.5957"/></g><!--class Transacao--><g class="entity" data-entity="Transacao" data-source-line="24" data-uid="ent0011" id="entity_Transacao"><rect fill="#F1F1F1" height="76.543" rx="2.5" ry="2.5" style="stroke:#181818;stroke-width:0.5;" width="98.1445" x="1339.4" y="326.0137"/><ellipse cx="1354.4" cy="356.2852" fill="#ADD1B2" rx="11" ry="11" style="stroke:#181818;stroke-width:1;"/><path d="M1357.1656,352.1602 Q1357.3219,351.9414 1357.5094,351.832 Q1357.6969,351.7227 1357.9156,351.7227 Q1358.2906,351.7227 1358.525,351.9883 Q1358.7594,352.2383 1358.7594,352.8477 L1358.7594,354.3008 Q1358.7594,354.9102 1358.525,355.1758 Q1358.2906,355.4414 1357.9156,355.4414 Q1357.5719,355.4414 1357.3687,355.2383 Q1357.1656,355.0508 1357.0562,354.5352 Q1357.0094,354.1758 1356.8219,353.9883 Q1356.4937,353.6133 1355.8844,353.3945 Q1355.275,353.1758 1354.65,353.1758 Q1353.8844,353.1758 1353.2437,353.5039 Q1352.6187,353.832 1352.1187,354.582 Q1351.6344,355.332 1351.6344,356.3633 L1351.6344,357.457 Q1351.6344,358.6914 1352.525,359.5195 Q1353.4156,360.332 1355.0094,360.332 Q1355.9469,360.332 1356.6031,360.082 Q1356.9937,359.9258 1357.4156,359.4883 Q1357.6812,359.2227 1357.8219,359.1445 Q1357.9781,359.0664 1358.1812,359.0664 Q1358.5094,359.0664 1358.7594,359.332 Q1359.025,359.582 1359.025,359.9258 Q1359.025,360.2695 1358.6812,360.6758 Q1358.1812,361.2539 1357.3844,361.582 Q1356.3062,362.0352 1355.0094,362.0352 Q1353.4937,362.0352 1352.2906,361.4102 Q1351.3062,360.9102 1350.6187,359.8477 Q1349.9312,358.7695 1349.9312,357.4883 L1349.9312,356.332 Q1349.9312,355.0039 1350.5406,353.8633 Q1351.1656,352.707 1352.2594,352.0977 Q1353.3531,351.4727 1354.5875,351.4727 Q1355.3219,351.4727 1355.9625,351.6445 Q1356.6187,351.8008 1357.1656,352.1602 Z " fill="#000000"/><text fill="#000000" font-family="sans-serif" font-size="12" font-style="italic" lengthAdjust="spacing" textLength="43.3594" x="1379.7926" y="343.9629">&#171;Entity&#187;</text><text fill="#000000" font-family="sans-serif" font-size="12" font-style="italic" lengthAdjust="spacing" textLength="34.0254" x="1384.4596" y="359.9238">&#171;root&#187;</text><text fill="#000000" font-family="sans-serif" font-size="14" lengthAdjust="spacing" textLength="66.1445" x="1368.4" y="378.043">Transacao</text><line style="stroke:#181818;stroke-width:0.5;" x1="1340.4" x2="1436.5445" y1="386.5566" y2="386.5566"/><line style="stroke:#181818;stroke-width:0.5;" x1="1340.4" x2="1436.5445" y1="394.5566" y2="394.5566"/></g><!--class Data--><g class="entity" data-entity="Data" data-source-line="27" data-uid="ent0012" id="entity_Data"><rect fill="#F1F1F1" height="60.582" rx="2.5" ry="2.5" style="stroke:#181818;stroke-width:0.5;" width="110.0547" x="1768.4" y="484.0137"/><ellipse cx="1783.4" cy="506.3047" fill="#ADD1B2" rx="11" ry="11" style="stroke:#181818;stroke-width:1;"/><path d="M1786.1656,502.1797 Q1786.3219,501.9609 1786.5094,501.8516 Q1786.6969,501.7422 1786.9156,501.7422 Q1787.2906,501.7422 1787.525,502.0078 Q1787.7594,502.2578 1787.7594,502.8672 L1787.7594,504.3203 Q1787.7594,504.9297 1787.525,505.1953 Q1787.2906,505.4609 1786.9156,505.4609 Q1786.5719,505.4609 1786.3687,505.2578 Q1786.1656,505.0703 1786.0562,504.5547 Q1786.0094,504.1953 1785.8219,504.0078 Q1785.4937,503.6328 1784.8844,503.4141 Q1784.275,503.1953 1783.65,503.1953 Q1782.8844,503.1953 1782.2437,503.5234 Q1781.6187,503.8516 1781.1187,504.6016 Q1780.6344,505.3516 1780.6344,506.3828 L1780.6344,507.4766 Q1780.6344,508.7109 1781.525,509.5391 Q1782.4156,510.3516 1784.0094,510.3516 Q1784.9469,510.3516 1785.6031,510.1016 Q1785.9937,509.9453 1786.4156,509.5078 Q1786.6812,509.2422 1786.8219,509.1641 Q1786.9781,509.0859 1787.1812,509.0859 Q1787.5094,509.0859 1787.7594,509.3516 Q1788.025,509.6016 1788.025,509.9453 Q1788.025,510.2891 1787.6812,510.6953 Q1787.1812,511.2734 1786.3844,511.6016 Q1785.3062,512.0547 1784.0094,512.0547 Q1782.4937,512.0547 1781.2906,511.4297 Q1780.3062,510.9297 1779.6187,509.8672 Q1778.9312,508.7891 1778.9312,507.5078 L1778.9312,506.3516 Q1778.9312,505.0234 1779.5406,503.8828 Q1780.1656,502.7266 1781.2594,502.1172 Q1782.3531,501.4922 1783.5875,501.4922 Q1784.3219,501.4922 1784.9625,501.6641 Q1785.6187,501.8203 1786.1656,502.1797 Z " fill="#000000"/><text fill="#000000" font-family="sans-serif" font-size="12" font-style="italic" lengthAdjust="spacing" textLength="82.0547" x="1795.4" y="501.9629">&#171;Value Object&#187;</text><text fill="#000000" font-family="sans-serif" font-size="14" lengthAdjust="spacing" textLength="29.5723" x="1821.6412" y="520.082">Data</text><line style="stroke:#181818;stroke-width:0.5;" x1="1769.4" x2="1877.4547" y1="528.5957" y2="528.5957"/><line style="stroke:#181818;stroke-width:0.5;" x1="1769.4" x2="1877.4547" y1="536.5957" y2="536.5957"/></g><!--class Reembolso--><g class="entity" data-entity="Reembolso" data-source-line="30" data-uid="ent0013" id="entity_Reembolso"><rect fill="#F1F1F1" height="60.582" rx="2.5" ry="2.5" style="stroke:#181818;stroke-width:0.5;" width="110.0547" x="1913.4" y="484.0137"/><ellipse cx="1928.4" cy="506.3047" fill="#ADD1B2" rx="11" ry="11" style="stroke:#181818;stroke-width:1;"/><path d="M1931.1656,502.1797 Q1931.3219,501.9609 1931.5094,501.8516 Q1931.6969,501.7422 1931.9156,501.7422 Q1932.2906,501.7422 1932.525,502.0078 Q1932.7594,502.2578 1932.7594,502.8672 L1932.7594,504.3203 Q1932.7594,504.9297 1932.525,505.1953 Q1932.2906,505.4609 1931.9156,505.4609 Q1931.5719,505.4609 1931.3687,505.2578 Q1931.1656,505.0703 1931.0562,504.5547 Q1931.0094,504.1953 1930.8219,504.0078 Q1930.4937,503.6328 1929.8844,503.4141 Q1929.275,503.1953 1928.65,503.1953 Q1927.8844,503.1953 1927.2437,503.5234 Q1926.6187,503.8516 1926.1187,504.6016 Q1925.6344,505.3516 1925.6344,506.3828 L1925.6344,507.4766 Q1925.6344,508.7109 1926.525,509.5391 Q1927.4156,510.3516 1929.0094,510.3516 Q1929.9469,510.3516 1930.6031,510.1016 Q1930.9937,509.9453 1931.4156,509.5078 Q1931.6812,509.2422 1931.8219,509.1641 Q1931.9781,509.0859 1932.1812,509.0859 Q1932.5094,509.0859 1932.7594,509.3516 Q1933.025,509.6016 1933.025,509.9453 Q1933.025,510.2891 1932.6812,510.6953 Q1932.1812,511.2734 1931.3844,511.6016 Q1930.3062,512.0547 1929.0094,512.0547 Q1927.4937,512.0547 1926.2906,511.4297 Q1925.3062,510.9297 1924.6187,509.8672 Q1923.9312,508.7891 1923.9312,507.5078 L1923.9312,506.3516 Q1923.9312,505.0234 1924.5406,503.8828 Q1925.1656,502.7266 1926.2594,502.1172 Q1927.3531,501.4922 1928.5875,501.4922 Q1929.3219,501.4922 1929.9625,501.6641 Q1930.6187,501.8203 1931.1656,502.1797 Z " fill="#000000"/><text fill="#000000" font-family="sans-serif" font-size="12" font-style="italic" lengthAdjust="spacing" textLength="82.0547" x="1940.4" y="501.9629">&#171;Value Object&#187;</text><text fill="#000000" font-family="sans-serif" font-size="14" lengthAdjust="spacing" textLength="70.8135" x="1946.0206" y="520.082">Reembolso</text><line style="stroke:#181818;stroke-width:0.5;" x1="1914.4" x2="2022.4547" y1="528.5957" y2="528.5957"/><line style="stroke:#181818;stroke-width:0.5;" x1="1914.4" x2="2022.4547" y1="536.5957" y2="536.5957"/></g><!--class Tipo--><g class="entity" data-entity="Tipo" data-source-line="33" data-uid="ent0014" id="entity_Tipo"><rect fill="#F1F1F1" height="60.582" rx="2.5" ry="2.5" style="stroke:#181818;stroke-width:0.5;" width="110.0547" x="1333.4" y="484.0137"/><ellipse cx="1348.4" cy="506.3047" fill="#ADD1B2" rx="11" ry="11" style="stroke:#181818;stroke-width:1;"/><path d="M1351.1656,502.1797 Q1351.3219,501.9609 1351.5094,501.8516 Q1351.6969,501.7422 1351.9156,501.7422 Q1352.2906,501.7422 1352.525,502.0078 Q1352.7594,502.2578 1352.7594,502.8672 L1352.7594,504.3203 Q1352.7594,504.9297 1352.525,505.1953 Q1352.2906,505.4609 1351.9156,505.4609 Q1351.5719,505.4609 1351.3687,505.2578 Q1351.1656,505.0703 1351.0562,504.5547 Q1351.0094,504.1953 1350.8219,504.0078 Q1350.4937,503.6328 1349.8844,503.4141 Q1349.275,503.1953 1348.65,503.1953 Q1347.8844,503.1953 1347.2437,503.5234 Q1346.6187,503.8516 1346.1187,504.6016 Q1345.6344,505.3516 1345.6344,506.3828 L1345.6344,507.4766 Q1345.6344,508.7109 1346.525,509.5391 Q1347.4156,510.3516 1349.0094,510.3516 Q1349.9469,510.3516 1350.6031,510.1016 Q1350.9937,509.9453 1351.4156,509.5078 Q1351.6812,509.2422 1351.8219,509.1641 Q1351.9781,509.0859 1352.1812,509.0859 Q1352.5094,509.0859 1352.7594,509.3516 Q1353.025,509.6016 1353.025,509.9453 Q1353.025,510.2891 1352.6812,510.6953 Q1352.1812,511.2734 1351.3844,511.6016 Q1350.3062,512.0547 1349.0094,512.0547 Q1347.4937,512.0547 1346.2906,511.4297 Q1345.3062,510.9297 1344.6187,509.8672 Q1343.9312,508.7891 1343.9312,507.5078 L1343.9312,506.3516 Q1343.9312,505.0234 1344.5406,503.8828 Q1345.1656,502.7266 1346.2594,502.1172 Q1347.3531,501.4922 1348.5875,501.4922 Q1349.3219,501.4922 1349.9625,501.6641 Q1350.6187,501.8203 1351.1656,502.1797 Z " fill="#000000"/><text fill="#000000" font-family="sans-serif" font-size="12" font-style="italic" lengthAdjust="spacing" textLength="82.0547" x="1360.4" y="501.9629">&#171;Value Object&#187;</text><text fill="#000000" font-family="sans-serif" font-size="14" lengthAdjust="spacing" textLength="27.2344" x="1387.8102" y="520.082">Tipo</text><line style="stroke:#181818;stroke-width:0.5;" x1="1334.4" x2="1442.4547" y1="528.5957" y2="528.5957"/><line style="stroke:#181818;stroke-width:0.5;" x1="1334.4" x2="1442.4547" y1="536.5957" y2="536.5957"/></g><!--class Status--><g class="entity" data-entity="Status" data-source-line="36" data-uid="ent0015" id="entity_Status"><rect fill="#F1F1F1" height="60.582" rx="2.5" ry="2.5" style="stroke:#181818;stroke-width:0.5;" width="110.0547" x="1478.4" y="484.0137"/><ellipse cx="1493.4" cy="506.3047" fill="#ADD1B2" rx="11" ry="11" style="stroke:#181818;stroke-width:1;"/><path d="M1496.1656,502.1797 Q1496.3219,501.9609 1496.5094,501.8516 Q1496.6969,501.7422 1496.9156,501.7422 Q1497.2906,501.7422 1497.525,502.0078 Q1497.7594,502.2578 1497.7594,502.8672 L1497.7594,504.3203 Q1497.7594,504.9297 1497.525,505.1953 Q1497.2906,505.4609 1496.9156,505.4609 Q1496.5719,505.4609 1496.3687,505.2578 Q1496.1656,505.0703 1496.0562,504.5547 Q1496.0094,504.1953 1495.8219,504.0078 Q1495.4937,503.6328 1494.8844,503.4141 Q1494.275,503.1953 1493.65,503.1953 Q1492.8844,503.1953 1492.2437,503.5234 Q1491.6187,503.8516 1491.1187,504.6016 Q1490.6344,505.3516 1490.6344,506.3828 L1490.6344,507.4766 Q1490.6344,508.7109 1491.525,509.5391 Q1492.4156,510.3516 1494.0094,510.3516 Q1494.9469,510.3516 1495.6031,510.1016 Q1495.9937,509.9453 1496.4156,509.5078 Q1496.6812,509.2422 1496.8219,509.1641 Q1496.9781,509.0859 1497.1812,509.0859 Q1497.5094,509.0859 1497.7594,509.3516 Q1498.025,509.6016 1498.025,509.9453 Q1498.025,510.2891 1497.6812,510.6953 Q1497.1812,511.2734 1496.3844,511.6016 Q1495.3062,512.0547 1494.0094,512.0547 Q1492.4937,512.0547 1491.2906,511.4297 Q1490.3062,510.9297 1489.6187,509.8672 Q1488.9312,508.7891 1488.9312,507.5078 L1488.9312,506.3516 Q1488.9312,505.0234 1489.5406,503.8828 Q1490.1656,502.7266 1491.2594,502.1172 Q1492.3531,501.4922 1493.5875,501.4922 Q1494.3219,501.4922 1494.9625,501.6641 Q1495.6187,501.8203 1496.1656,502.1797 Z " fill="#000000"/><text fill="#000000" font-family="sans-serif" font-size="12" font-style="italic" lengthAdjust="spacing" textLength="82.0547" x="1505.4" y="501.9629">&#171;Value Object&#187;</text><text fill="#000000" font-family="sans-serif" font-size="14" lengthAdjust="spacing" textLength="39.6895" x="1526.5826" y="520.082">Status</text><line style="stroke:#181818;stroke-width:0.5;" x1="1479.4" x2="1587.4547" y1="528.5957" y2="528.5957"/><line style="stroke:#181818;stroke-width:0.5;" x1="1479.4" x2="1587.4547" y1="536.5957" y2="536.5957"/></g><!--class Descricao--><g class="entity" data-entity="Descricao" data-source-line="39" data-uid="ent0016" id="entity_Descricao"><rect fill="#F1F1F1" height="60.582" rx="2.5" ry="2.5" style="stroke:#181818;stroke-width:0.5;" width="110.0547" x="1623.4" y="484.0137"/><ellipse cx="1638.4" cy="506.3047" fill="#ADD1B2" rx="11" ry="11" style="stroke:#181818;stroke-width:1;"/><path d="M1641.1656,502.1797 Q1641.3219,501.9609 1641.5094,501.8516 Q1641.6969,501.7422 1641.9156,501.7422 Q1642.2906,501.7422 1642.525,502.0078 Q1642.7594,502.2578 1642.7594,502.8672 L1642.7594,504.3203 Q1642.7594,504.9297 1642.525,505.1953 Q1642.2906,505.4609 1641.9156,505.4609 Q1641.5719,505.4609 1641.3687,505.2578 Q1641.1656,505.0703 1641.0562,504.5547 Q1641.0094,504.1953 1640.8219,504.0078 Q1640.4937,503.6328 1639.8844,503.4141 Q1639.275,503.1953 1638.65,503.1953 Q1637.8844,503.1953 1637.2437,503.5234 Q1636.6187,503.8516 1636.1187,504.6016 Q1635.6344,505.3516 1635.6344,506.3828 L1635.6344,507.4766 Q1635.6344,508.7109 1636.525,509.5391 Q1637.4156,510.3516 1639.0094,510.3516 Q1639.9469,510.3516 1640.6031,510.1016 Q1640.9937,509.9453 1641.4156,509.5078 Q1641.6812,509.2422 1641.8219,509.1641 Q1641.9781,509.0859 1642.1812,509.0859 Q1642.5094,509.0859 1642.7594,509.3516 Q1643.025,509.6016 1643.025,509.9453 Q1643.025,510.2891 1642.6812,510.6953 Q1642.1812,511.2734 1641.3844,511.6016 Q1640.3062,512.0547 1639.0094,512.0547 Q1637.4937,512.0547 1636.2906,511.4297 Q1635.3062,510.9297 1634.6187,509.8672 Q1633.9312,508.7891 1633.9312,507.5078 L1633.9312,506.3516 Q1633.9312,505.0234 1634.5406,503.8828 Q1635.1656,502.7266 1636.2594,502.1172 Q1637.3531,501.4922 1638.5875,501.4922 Q1639.3219,501.4922 1639.9625,501.6641 Q1640.6187,501.8203 1641.1656,502.1797 Z " fill="#000000"/><text fill="#000000" font-family="sans-serif" font-size="12" font-style="italic" lengthAdjust="spacing" textLength="82.0547" x="1650.4" y="501.9629">&#171;Value Object&#187;</text><text fill="#000000" font-family="sans-serif" font-size="14" lengthAdjust="spacing" textLength="62.2412" x="1660.3067" y="520.082">Descricao</text><line style="stroke:#181818;stroke-width:0.5;" x1="1624.4" x2="1732.4547" y1="528.5957" y2="528.5957"/><line style="stroke:#181818;stroke-width:0.5;" x1="1624.4" x2="1732.4547" y1="536.5957" y2="536.5957"/></g><!--class Categoria--><g class="entity" data-entity="Categoria" data-source-line="51" data-uid="ent0023" id="entity_Categoria"><rect fill="#F1F1F1" height="76.543" rx="2.5" ry="2.5" style="stroke:#181818;stroke-width:0.5;" width="92.7031" x="2208.9" y="326.0137"/><ellipse cx="2223.9" cy="356.2852" fill="#ADD1B2" rx="11" ry="11" style="stroke:#181818;stroke-width:1;"/><path d="M2226.6656,352.1602 Q2226.8219,351.9414 2227.0094,351.832 Q2227.1969,351.7227 2227.4156,351.7227 Q2227.7906,351.7227 2228.025,351.9883 Q2228.2594,352.2383 2228.2594,352.8477 L2228.2594,354.3008 Q2228.2594,354.9102 2228.025,355.1758 Q2227.7906,355.4414 2227.4156,355.4414 Q2227.0719,355.4414 2226.8688,355.2383 Q2226.6656,355.0508 2226.5563,354.5352 Q2226.5094,354.1758 2226.3219,353.9883 Q2225.9938,353.6133 2225.3844,353.3945 Q2224.775,353.1758 2224.15,353.1758 Q2223.3844,353.1758 2222.7438,353.5039 Q2222.1188,353.832 2221.6188,354.582 Q2221.1344,355.332 2221.1344,356.3633 L2221.1344,357.457 Q2221.1344,358.6914 2222.025,359.5195 Q2222.9156,360.332 2224.5094,360.332 Q2225.4469,360.332 2226.1031,360.082 Q2226.4938,359.9258 2226.9156,359.4883 Q2227.1813,359.2227 2227.3219,359.1445 Q2227.4781,359.0664 2227.6813,359.0664 Q2228.0094,359.0664 2228.2594,359.332 Q2228.525,359.582 2228.525,359.9258 Q2228.525,360.2695 2228.1813,360.6758 Q2227.6813,361.2539 2226.8844,361.582 Q2225.8063,362.0352 2224.5094,362.0352 Q2222.9938,362.0352 2221.7906,361.4102 Q2220.8063,360.9102 2220.1188,359.8477 Q2219.4313,358.7695 2219.4313,357.4883 L2219.4313,356.332 Q2219.4313,355.0039 2220.0406,353.8633 Q2220.6656,352.707 2221.7594,352.0977 Q2222.8531,351.4727 2224.0875,351.4727 Q2224.8219,351.4727 2225.4625,351.6445 Q2226.1188,351.8008 2226.6656,352.1602 Z " fill="#000000"/><text fill="#000000" font-family="sans-serif" font-size="12" font-style="italic" lengthAdjust="spacing" textLength="43.3594" x="2246.5719" y="343.9629">&#171;Entity&#187;</text><text fill="#000000" font-family="sans-serif" font-size="12" font-style="italic" lengthAdjust="spacing" textLength="34.0254" x="2251.2389" y="359.9238">&#171;root&#187;</text><text fill="#000000" font-family="sans-serif" font-size="14" lengthAdjust="spacing" textLength="60.7031" x="2237.9" y="378.043">Categoria</text><line style="stroke:#181818;stroke-width:0.5;" x1="2209.9" x2="2300.6031" y1="386.5566" y2="386.5566"/><line style="stroke:#181818;stroke-width:0.5;" x1="2209.9" x2="2300.6031" y1="394.5566" y2="394.5566"/></g><!--class Nome--><g class="entity" data-entity="Nome" data-source-line="56" data-uid="ent0025" id="entity_Nome"><rect fill="#F1F1F1" height="60.582" rx="2.5" ry="2.5" style="stroke:#181818;stroke-width:0.5;" width="110.0547" x="1166.4" y="690.0137"/><ellipse cx="1181.4" cy="712.3047" fill="#ADD1B2" rx="11" ry="11" style="stroke:#181818;stroke-width:1;"/><path d="M1184.1656,708.1797 Q1184.3219,707.9609 1184.5094,707.8516 Q1184.6969,707.7422 1184.9156,707.7422 Q1185.2906,707.7422 1185.525,708.0078 Q1185.7594,708.2578 1185.7594,708.8672 L1185.7594,710.3203 Q1185.7594,710.9297 1185.525,711.1953 Q1185.2906,711.4609 1184.9156,711.4609 Q1184.5719,711.4609 1184.3687,711.2578 Q1184.1656,711.0703 1184.0562,710.5547 Q1184.0094,710.1953 1183.8219,710.0078 Q1183.4937,709.6328 1182.8844,709.4141 Q1182.275,709.1953 1181.65,709.1953 Q1180.8844,709.1953 1180.2437,709.5234 Q1179.6187,709.8516 1179.1187,710.6016 Q1178.6344,711.3516 1178.6344,712.3828 L1178.6344,713.4766 Q1178.6344,714.7109 1179.525,715.5391 Q1180.4156,716.3516 1182.0094,716.3516 Q1182.9469,716.3516 1183.6031,716.1016 Q1183.9937,715.9453 1184.4156,715.5078 Q1184.6812,715.2422 1184.8219,715.1641 Q1184.9781,715.0859 1185.1812,715.0859 Q1185.5094,715.0859 1185.7594,715.3516 Q1186.025,715.6016 1186.025,715.9453 Q1186.025,716.2891 1185.6812,716.6953 Q1185.1812,717.2734 1184.3844,717.6016 Q1183.3062,718.0547 1182.0094,718.0547 Q1180.4937,718.0547 1179.2906,717.4297 Q1178.3062,716.9297 1177.6187,715.8672 Q1176.9312,714.7891 1176.9312,713.5078 L1176.9312,712.3516 Q1176.9312,711.0234 1177.5406,709.8828 Q1178.1656,708.7266 1179.2594,708.1172 Q1180.3531,707.4922 1181.5875,707.4922 Q1182.3219,707.4922 1182.9625,707.6641 Q1183.6187,707.8203 1184.1656,708.1797 Z " fill="#000000"/><text fill="#000000" font-family="sans-serif" font-size="12" font-style="italic" lengthAdjust="spacing" textLength="82.0547" x="1193.4" y="707.9629">&#171;Value Object&#187;</text><text fill="#000000" font-family="sans-serif" font-size="14" lengthAdjust="spacing" textLength="37.3447" x="1215.755" y="726.082">Nome</text><line style="stroke:#181818;stroke-width:0.5;" x1="1167.4" x2="1275.4547" y1="734.5957" y2="734.5957"/><line style="stroke:#181818;stroke-width:0.5;" x1="1167.4" x2="1275.4547" y1="742.5957" y2="742.5957"/></g><!--class Dinheiro--><g class="entity" data-entity="Dinheiro" data-source-line="59" data-uid="ent0026" id="entity_Dinheiro"><rect fill="#F1F1F1" height="60.582" rx="2.5" ry="2.5" style="stroke:#181818;stroke-width:0.5;" width="110.0547" x="1021.4" y="690.0137"/><ellipse cx="1036.4" cy="712.3047" fill="#ADD1B2" rx="11" ry="11" style="stroke:#181818;stroke-width:1;"/><path d="M1039.1656,708.1797 Q1039.3219,707.9609 1039.5094,707.8516 Q1039.6969,707.7422 1039.9156,707.7422 Q1040.2906,707.7422 1040.525,708.0078 Q1040.7594,708.2578 1040.7594,708.8672 L1040.7594,710.3203 Q1040.7594,710.9297 1040.525,711.1953 Q1040.2906,711.4609 1039.9156,711.4609 Q1039.5719,711.4609 1039.3688,711.2578 Q1039.1656,711.0703 1039.0563,710.5547 Q1039.0094,710.1953 1038.8219,710.0078 Q1038.4938,709.6328 1037.8844,709.4141 Q1037.275,709.1953 1036.65,709.1953 Q1035.8844,709.1953 1035.2438,709.5234 Q1034.6188,709.8516 1034.1188,710.6016 Q1033.6344,711.3516 1033.6344,712.3828 L1033.6344,713.4766 Q1033.6344,714.7109 1034.525,715.5391 Q1035.4156,716.3516 1037.0094,716.3516 Q1037.9469,716.3516 1038.6031,716.1016 Q1038.9938,715.9453 1039.4156,715.5078 Q1039.6813,715.2422 1039.8219,715.1641 Q1039.9781,715.0859 1040.1813,715.0859 Q1040.5094,715.0859 1040.7594,715.3516 Q1041.025,715.6016 1041.025,715.9453 Q1041.025,716.2891 1040.6813,716.6953 Q1040.1813,717.2734 1039.3844,717.6016 Q1038.3063,718.0547 1037.0094,718.0547 Q1035.4938,718.0547 1034.2906,717.4297 Q1033.3063,716.9297 1032.6188,715.8672 Q1031.9313,714.7891 1031.9313,713.5078 L1031.9313,712.3516 Q1031.9313,711.0234 1032.5406,709.8828 Q1033.1656,708.7266 1034.2594,708.1172 Q1035.3531,707.4922 1036.5875,707.4922 Q1037.3219,707.4922 1037.9625,707.6641 Q1038.6188,707.8203 1039.1656,708.1797 Z " fill="#000000"/><text fill="#000000" font-family="sans-serif" font-size="12" font-style="italic" lengthAdjust="spacing" textLength="82.0547" x="1048.4" y="707.9629">&#171;Value Object&#187;</text><text fill="#000000" font-family="sans-serif" font-size="14" lengthAdjust="spacing" textLength="52.1377" x="1063.3585" y="726.082">Dinheiro</text><line style="stroke:#181818;stroke-width:0.5;" x1="1022.4" x2="1130.4547" y1="734.5957" y2="734.5957"/><line style="stroke:#181818;stroke-width:0.5;" x1="1022.4" x2="1130.4547" y1="742.5957" y2="742.5957"/></g><!--class Icon--><g class="entity" data-entity="Icon" data-source-line="62" data-uid="ent0027" id="entity_Icon"><rect fill="#F1F1F1" height="60.582" rx="2.5" ry="2.5" style="stroke:#181818;stroke-width:0.5;" width="110.0547" x="876.4" y="690.0137"/><ellipse cx="891.4" cy="712.3047" fill="#ADD1B2" rx="11" ry="11" style="stroke:#181818;stroke-width:1;"/><path d="M894.1656,708.1797 Q894.3219,707.9609 894.5094,707.8516 Q894.6969,707.7422 894.9156,707.7422 Q895.2906,707.7422 895.525,708.0078 Q895.7594,708.2578 895.7594,708.8672 L895.7594,710.3203 Q895.7594,710.9297 895.525,711.1953 Q895.2906,711.4609 894.9156,711.4609 Q894.5719,711.4609 894.3688,711.2578 Q894.1656,711.0703 894.0563,710.5547 Q894.0094,710.1953 893.8219,710.0078 Q893.4938,709.6328 892.8844,709.4141 Q892.275,709.1953 891.65,709.1953 Q890.8844,709.1953 890.2438,709.5234 Q889.6188,709.8516 889.1188,710.6016 Q888.6344,711.3516 888.6344,712.3828 L888.6344,713.4766 Q888.6344,714.7109 889.525,715.5391 Q890.4156,716.3516 892.0094,716.3516 Q892.9469,716.3516 893.6031,716.1016 Q893.9938,715.9453 894.4156,715.5078 Q894.6813,715.2422 894.8219,715.1641 Q894.9781,715.0859 895.1813,715.0859 Q895.5094,715.0859 895.7594,715.3516 Q896.025,715.6016 896.025,715.9453 Q896.025,716.2891 895.6813,716.6953 Q895.1813,717.2734 894.3844,717.6016 Q893.3063,718.0547 892.0094,718.0547 Q890.4938,718.0547 889.2906,717.4297 Q888.3063,716.9297 887.6188,715.8672 Q886.9313,714.7891 886.9313,713.5078 L886.9313,712.3516 Q886.9313,711.0234 887.5406,709.8828 Q888.1656,708.7266 889.2594,708.1172 Q890.3531,707.4922 891.5875,707.4922 Q892.3219,707.4922 892.9625,707.6641 Q893.6188,707.8203 894.1656,708.1797 Z " fill="#000000"/><text fill="#000000" font-family="sans-serif" font-size="12" font-style="italic" lengthAdjust="spacing" textLength="82.0547" x="903.4" y="707.9629">&#171;Value Object&#187;</text><text fill="#000000" font-family="sans-serif" font-size="14" lengthAdjust="spacing" textLength="26.4619" x="931.1964" y="726.082">Icon</text><line style="stroke:#181818;stroke-width:0.5;" x1="877.4" x2="985.4547" y1="734.5957" y2="734.5957"/><line style="stroke:#181818;stroke-width:0.5;" x1="877.4" x2="985.4547" y1="742.5957" y2="742.5957"/></g><!--link CartaoCredito to Periodo--><g class="link" data-entity-1="CartaoCredito" data-entity-2="Periodo" data-source-line="20" data-uid="lnk9" id="link_CartaoCredito_Periodo"><path codeLine="20" d="M1218.04,163.1137 C1219,207.1537 1220.6597,283.4851 1221.6197,327.6651" fill="none" id="CartaoCredito-to-Periodo" style="stroke:#181818;stroke-width:1;"/><polygon fill="#181818" points="1221.75,333.6637,1225.5535,324.5789,1221.6414,328.6649,1217.5554,324.7527,1221.75,333.6637" style="stroke:#181818;stroke-width:1;"/><text fill="#000000" font-family="sans-serif" font-size="13" lengthAdjust="spacing" textLength="83.1099" x="1219.4" y="210.042">define ciclo de</text><text fill="#000000" font-family="sans-serif" font-size="13" lengthAdjust="spacing" textLength="7.23" x="1210.5023" y="184.663">1</text><text fill="#000000" font-family="sans-serif" font-size="13" lengthAdjust="spacing" textLength="7.23" x="1213.9121" y="322.6492">1</text></g><!--link Transacao to Data--><g class="link" data-entity-1="Transacao" data-entity-2="Data" data-source-line="43" data-uid="lnk17" id="link_Transacao_Data"><path codeLine="43" d="M1437.47,371.8737 C1498.78,380.9037 1606.13,400.3237 1692.4,435.0137 C1724.01,447.7237 1751.8872,464.1412 1776.8072,480.6412" fill="none" id="Transacao-to-Data" style="stroke:#181818;stroke-width:1;"/><polygon fill="#181818" points="1781.81,483.9537,1776.5141,475.6498,1777.641,481.1933,1772.0975,482.3202,1781.81,483.9537" style="stroke:#181818;stroke-width:1;"/><text fill="#000000" font-family="sans-serif" font-size="13" lengthAdjust="spacing" textLength="68.6372" x="1730.4" y="450.042">ocorrida em</text><text fill="#000000" font-family="sans-serif" font-size="13" lengthAdjust="spacing" textLength="7.23" x="1445.5263" y="368.7847">1</text><text fill="#000000" font-family="sans-serif" font-size="13" lengthAdjust="spacing" textLength="7.23" x="1764.9657" y="472.5152">1</text></g><!--link Transacao to Reembolso--><g class="link" data-entity-1="Transacao" data-entity-2="Reembolso" data-source-line="44" data-uid="lnk18" id="link_Transacao_Reembolso"><path codeLine="44" d="M1437.54,369.0437 C1516.94,375.7537 1677.62,393.5837 1807.4,435.0137 C1845.76,447.2637 1881.2326,464.349 1912.1426,481.069" fill="none" id="Transacao-to-Reembolso" style="stroke:#181818;stroke-width:1;"/><polygon fill="#181818" points="1917.42,483.9237,1911.407,476.1234,1913.0222,481.5448,1907.6008,483.1599,1917.42,483.9237" style="stroke:#181818;stroke-width:1;"/><text fill="#000000" font-family="sans-serif" font-size="13" lengthAdjust="spacing" textLength="75.8862" x="1853.4" y="450.042">pode originar</text><text fill="#000000" font-family="sans-serif" font-size="13" lengthAdjust="spacing" textLength="7.23" x="1445.607" y="385.1245">1</text><text fill="#000000" font-family="sans-serif" font-size="13" lengthAdjust="spacing" textLength="21.6836" x="1883.8046" y="472.9628">0..1</text></g><!--link Transacao to Tipo--><g class="link" data-entity-1="Transacao" data-entity-2="Tipo" data-source-line="45" data-uid="lnk19" id="link_Transacao_Tipo"><path codeLine="45" d="M1388.4,403.2437 C1388.4,428.2537 1388.4,454.6037 1388.4,477.7837" fill="none" id="Transacao-to-Tipo" style="stroke:#181818;stroke-width:1;"/><polygon fill="#181818" points="1388.4,483.7837,1392.4,474.7837,1388.4,478.7837,1384.4,474.7837,1388.4,483.7837" style="stroke:#181818;stroke-width:1;"/><text fill="#000000" font-family="sans-serif" font-size="13" lengthAdjust="spacing" textLength="49.8735" x="1389.4" y="450.042">&#233; do tipo</text><text fill="#000000" font-family="sans-serif" font-size="13" lengthAdjust="spacing" textLength="7.23" x="1380.8706" y="424.5614">1</text><text fill="#000000" font-family="sans-serif" font-size="13" lengthAdjust="spacing" textLength="7.23" x="1380.6962" y="472.7939">1</text></g><!--link Transacao to Status--><g class="link" data-entity-1="Transacao" data-entity-2="Status" data-source-line="46" data-uid="lnk20" id="link_Transacao_Status"><path codeLine="46" d="M1425.36,403.2437 C1449.86,428.2537 1477.361,456.3178 1500.071,479.4978" fill="none" id="Transacao-to-Status" style="stroke:#181818;stroke-width:1;"/><polygon fill="#181818" points="1504.27,483.7837,1500.8288,474.5556,1500.7709,480.2121,1495.1143,480.1542,1504.27,483.7837" style="stroke:#181818;stroke-width:1;"/><text fill="#000000" font-family="sans-serif" font-size="13" lengthAdjust="spacing" textLength="90.3208" x="1474.4" y="450.042">encontra-se em</text><text fill="#000000" font-family="sans-serif" font-size="13" lengthAdjust="spacing" textLength="7.23" x="1423.4901" y="424.5614">1</text><text fill="#000000" font-family="sans-serif" font-size="13" lengthAdjust="spacing" textLength="7.23" x="1490.5581" y="472.7939">1</text></g><!--link Transacao to Descricao--><g class="link" data-entity-1="Transacao" data-entity-2="Descricao" data-source-line="47" data-uid="lnk21" id="link_Transacao_Descricao"><path codeLine="47" d="M1437.57,379.7837 C1475.83,391.8737 1529.6,411.0537 1573.4,435.0137 C1598.56,448.7837 1619.7265,464.2385 1639.4665,480.2185" fill="none" id="Transacao-to-Descricao" style="stroke:#181818;stroke-width:1;"/><polygon fill="#181818" points="1644.13,483.9937,1639.6516,475.2219,1640.2438,480.8477,1634.618,481.4399,1644.13,483.9937" style="stroke:#181818;stroke-width:1;"/><text fill="#000000" font-family="sans-serif" font-size="13" lengthAdjust="spacing" textLength="79.5107" x="1604.4" y="450.042">detalhada por</text><text fill="#000000" font-family="sans-serif" font-size="13" lengthAdjust="spacing" textLength="7.23" x="1445.6416" y="397.509">1</text><text fill="#000000" font-family="sans-serif" font-size="13" lengthAdjust="spacing" textLength="7.23" x="1628.887" y="472.5639">1</text></g><!--link Conta to Transacao--><g class="link" data-entity-1="Conta" data-entity-2="Transacao" data-source-line="70" data-uid="lnk28" id="link_Conta_Transacao"><path codeLine="70" d="M791.04,345.5337 C850.6,315.0137 975,256.2837 1088.4,235.0137 C1177.95,218.2137 1212.12,193.8337 1293.4,235.0137 C1330.58,253.8537 1354.0714,289.4798 1369.3914,320.3298" fill="none" id="Conta-to-Transacao" style="stroke:#181818;stroke-width:1;"/><polygon fill="#181818" points="1372.06,325.7037,1371.6396,315.8638,1369.8361,321.2255,1364.4745,319.422,1372.06,325.7037" style="stroke:#181818;stroke-width:1;"/><text fill="#000000" font-family="sans-serif" font-size="13" lengthAdjust="spacing" textLength="39.019" x="1067.9" y="210.042">regista</text><text fill="#000000" font-family="sans-serif" font-size="13" lengthAdjust="spacing" textLength="7.23" x="799.0993" y="336.9714">1</text><text fill="#000000" font-family="sans-serif" font-size="13" lengthAdjust="spacing" textLength="19.5127" x="1348.6504" y="314.6649">0..*</text></g><!--link Conta to Icon--><g class="link" data-entity-1="Conta" data-entity-2="Icon" data-source-line="71" data-uid="lnk29" id="link_Conta_Icon"><path codeLine="71" d="M719.81,365.0737 C647.22,366.3937 483.4,381.1837 417.4,484.0137 C396.99,515.8037 394.75,538.7837 417.4,569.0137 C473.15,643.4337 749.5778,692.5245 870.4478,710.8445" fill="none" id="Conta-to-Icon" style="stroke:#181818;stroke-width:1;"/><polygon fill="#181818" points="876.38,711.7437,868.0811,706.4401,871.4365,710.9944,866.8822,714.3498,876.38,711.7437" style="stroke:#181818;stroke-width:1;"/><text fill="#000000" font-family="sans-serif" font-size="13" lengthAdjust="spacing" textLength="88.1689" x="418.4" y="520.042">identificada por</text><text fill="#000000" font-family="sans-serif" font-size="13" lengthAdjust="spacing" textLength="7.23" x="704.7343" y="360.5415">1</text><text fill="#000000" font-family="sans-serif" font-size="13" lengthAdjust="spacing" textLength="21.6836" x="846.618" y="725.7833">0..1</text></g><!--link Conta to Dinheiro--><g class="link" data-entity-1="Conta" data-entity-2="Dinheiro" data-source-line="72" data-uid="lnk30" id="link_Conta_Dinheiro"><path codeLine="72" d="M738.1,403.3037 C720.14,448.8737 699.98,524.8337 741.4,569.0137 C781.45,611.7437 955.1,554.3937 1004.4,586.0137 C1040.97,609.4737 1058.6465,652.3889 1067.7765,684.0289" fill="none" id="Conta-to-Dinheiro" style="stroke:#181818;stroke-width:1;"/><polygon fill="#181818" points="1069.44,689.7937,1070.788,680.0375,1068.0538,684.9897,1063.1016,682.2555,1069.44,689.7937" style="stroke:#181818;stroke-width:1;"/><text fill="#000000" font-family="sans-serif" font-size="13" lengthAdjust="spacing" textLength="65.0317" x="742.4" y="520.042">aberta com</text><text fill="#000000" font-family="sans-serif" font-size="13" lengthAdjust="spacing" textLength="7.23" x="727.9051" y="424.6305">1</text><text fill="#000000" font-family="sans-serif" font-size="13" lengthAdjust="spacing" textLength="7.23" x="1068.7445" y="678.806">1</text></g><!--link Conta to Dinheiro--><g class="link" data-entity-1="Conta" data-entity-2="Dinheiro" data-source-line="73" data-uid="lnk31" id="link_Conta_Dinheiro"><path codeLine="73" d="M719.58,383.6237 C685.37,403.1637 635.93,437.7837 614.4,484.0137 C598.45,518.2537 588.62,541.3937 614.4,569.0137 C643.99,600.7237 967.5,563.2137 1004.4,586.0137 C1041.47,608.9237 1059.073,652.2285 1068.043,684.0685" fill="none" id="Conta-to-Dinheiro-1" style="stroke:#181818;stroke-width:1;"/><polygon fill="#181818" points="1069.67,689.8437,1071.0796,680.0962,1068.3142,685.031,1063.3794,682.2655,1069.67,689.8437" style="stroke:#181818;stroke-width:1;"/><text fill="#000000" font-family="sans-serif" font-size="13" lengthAdjust="spacing" textLength="92.5107" x="615.4" y="520.042">apresenta saldo</text><text fill="#000000" font-family="sans-serif" font-size="13" lengthAdjust="spacing" textLength="7.23" x="704.4569" y="382.9174">1</text><text fill="#000000" font-family="sans-serif" font-size="13" lengthAdjust="spacing" textLength="7.23" x="1060.5781" y="678.8663">1</text></g><!--link Conta to Nome--><g class="link" data-entity-1="Conta" data-entity-2="Nome" data-source-line="74" data-uid="lnk32" id="link_Conta_Nome"><path codeLine="74" d="M791.26,395.4437 C846.8,440.2137 958.59,524.1337 1067.4,569.0137 C1101.81,583.2037 1119.55,563.7737 1149.4,586.0137 C1183.92,611.7337 1201.9046,653.3349 1211.6946,684.1749" fill="none" id="Conta-to-Nome" style="stroke:#181818;stroke-width:1;"/><polygon fill="#181818" points="1213.51,689.8937,1214.5994,680.1053,1211.9972,685.128,1206.9744,682.5258,1213.51,689.8937" style="stroke:#181818;stroke-width:1;"/><text fill="#000000" font-family="sans-serif" font-size="13" lengthAdjust="spacing" textLength="95.3989" x="1068.4" y="520.042">designada como</text><text fill="#000000" font-family="sans-serif" font-size="13" lengthAdjust="spacing" textLength="7.23" x="799.3647" y="397.1753">1</text><text fill="#000000" font-family="sans-serif" font-size="13" lengthAdjust="spacing" textLength="7.23" x="1212.6226" y="678.9266">1</text></g><!--link CartaoCredito to Icon--><g class="link" data-entity-1="CartaoCredito" data-entity-2="Icon" data-source-line="77" data-uid="lnk33" id="link_CartaoCredito_Icon"><path codeLine="77" d="M1157.57,140.3037 C1109.91,149.5037 1048.04,171.1437 1028.4,222.0137 C972.28,367.3037 1013,416.9337 979.4,569.0137 C969.93,611.8637 955.6065,654.2971 944.6465,684.3371" fill="none" id="CartaoCredito-to-Icon" style="stroke:#181818;stroke-width:1;"/><polygon fill="#181818" points="942.59,689.9737,949.4324,682.8898,944.3037,685.2765,941.917,680.1478,942.59,689.9737" style="stroke:#181818;stroke-width:1;"/><text fill="#000000" font-family="sans-serif" font-size="13" lengthAdjust="spacing" textLength="33.2363" x="995.4" y="450.042">utiliza</text><text fill="#000000" font-family="sans-serif" font-size="13" lengthAdjust="spacing" textLength="7.23" x="1142.8564" y="156.3605">1</text><text fill="#000000" font-family="sans-serif" font-size="13" lengthAdjust="spacing" textLength="21.6836" x="947.4035" y="678.5395">0..1</text></g><!--link CartaoCredito to Conta--><g class="link" data-entity-1="CartaoCredito" data-entity-2="Conta" data-source-line="78" data-uid="lnk34" id="link_CartaoCredito_Conta"><path codeLine="78" d="M1157.66,139.3537 C1074.59,148.3437 929.32,167.4737 884.4,195.0137 C833.05,226.5037 797.5037,281.205 776.4737,320.455" fill="none" id="CartaoCredito-to-Conta" style="stroke:#181818;stroke-width:1;"/><polygon fill="#181818" points="773.64,325.7437,781.4163,319.6997,776.0014,321.3364,774.3647,315.9215,773.64,325.7437" style="stroke:#181818;stroke-width:1;"/><text fill="#000000" font-family="sans-serif" font-size="13" lengthAdjust="spacing" textLength="57.0908" x="885.4" y="210.042">debita em</text><text fill="#000000" font-family="sans-serif" font-size="13" lengthAdjust="spacing" textLength="7.23" x="1142.5624" y="136.2147">1</text><text fill="#000000" font-family="sans-serif" font-size="13" lengthAdjust="spacing" textLength="7.23" x="769.1623" y="314.7117">1</text></g><!--link CartaoCredito to Dinheiro--><g class="link" data-entity-1="CartaoCredito" data-entity-2="Dinheiro" data-source-line="79" data-uid="lnk35" id="link_CartaoCredito_Dinheiro"><path codeLine="79" d="M1157.78,142.3937 C1125.25,150.4737 1087.25,165.8537 1065.4,195.0137 C1006.62,273.4637 1053.4611,584.8874 1070.1811,683.9174" fill="none" id="CartaoCredito-to-Dinheiro" style="stroke:#181818;stroke-width:1;"/><polygon fill="#181818" points="1071.18,689.8337,1073.6258,680.2933,1070.3476,684.9034,1065.7375,681.6252,1071.18,689.8337" style="stroke:#181818;stroke-width:1;"/><text fill="#000000" font-family="sans-serif" font-size="13" lengthAdjust="spacing" textLength="57.7954" x="1041.4" y="450.042">inicia com</text><text fill="#000000" font-family="sans-serif" font-size="13" lengthAdjust="spacing" textLength="7.23" x="1142.6978" y="158.8223">1</text><text fill="#000000" font-family="sans-serif" font-size="13" lengthAdjust="spacing" textLength="7.23" x="1070.8433" y="678.8542">1</text></g><!--link CartaoCredito to Dinheiro--><g class="link" data-entity-1="CartaoCredito" data-entity-2="Dinheiro" data-source-line="80" data-uid="lnk36" id="link_CartaoCredito_Dinheiro"><path codeLine="80" d="M1189.03,163.0537 C1175.15,179.2237 1159.51,200.3437 1150.4,222.0137 C1132.15,265.4337 1092.8183,583.0668 1080.6783,683.7468" fill="none" id="CartaoCredito-to-Dinheiro-1" style="stroke:#181818;stroke-width:1;"/><polygon fill="#181818" points="1079.96,689.7037,1085.0087,681.2472,1080.5586,684.7396,1077.0662,680.2895,1079.96,689.7037" style="stroke:#181818;stroke-width:1;"/><text fill="#000000" font-family="sans-serif" font-size="13" lengthAdjust="spacing" textLength="84.5508" x="1113.4" y="450.042">acumula gasto</text><text fill="#000000" font-family="sans-serif" font-size="13" lengthAdjust="spacing" textLength="7.23" x="1175.9623" y="184.5916">1</text><text fill="#000000" font-family="sans-serif" font-size="13" lengthAdjust="spacing" textLength="7.23" x="1081.4342" y="678.6974">1</text></g><!--link CartaoCredito to Nome--><g class="link" data-entity-1="CartaoCredito" data-entity-2="Nome" data-source-line="81" data-uid="lnk37" id="link_CartaoCredito_Nome"><path codeLine="81" d="M1277.08,135.4337 C1457.58,141.8337 1988.54,165.3837 2039.4,222.0137 C2142.45,336.7537 2138.09,450.5037 2039.4,569.0137 C1941.39,686.7037 1450.1568,712.4886 1282.6068,717.9386" fill="none" id="CartaoCredito-to-Nome" style="stroke:#181818;stroke-width:1;"/><polygon fill="#181818" points="1276.61,718.1337,1285.7353,721.839,1281.6074,717.9711,1285.4752,713.8432,1276.61,718.1337" style="stroke:#181818;stroke-width:1;"/><text fill="#000000" font-family="sans-serif" font-size="13" lengthAdjust="spacing" textLength="74.458" x="2110.4" y="450.042">apelidado de</text><text fill="#000000" font-family="sans-serif" font-size="13" lengthAdjust="spacing" textLength="7.23" x="1285.18" y="131.7925">1</text><text fill="#000000" font-family="sans-serif" font-size="13" lengthAdjust="spacing" textLength="7.23" x="1284.5109" y="713.7476">1</text></g><!--link CartaoCredito to Transacao--><g class="link" data-entity-1="CartaoCredito" data-entity-2="Transacao" data-source-line="82" data-uid="lnk38" id="link_CartaoCredito_Transacao"><path codeLine="82" d="M1274.2,163.3237 C1287.58,172.2137 1300.97,182.8837 1311.4,195.0137 C1344.73,233.7937 1364.5445,283.6849 1376.1545,320.2549" fill="none" id="CartaoCredito-to-Transacao" style="stroke:#181818;stroke-width:1;"/><polygon fill="#181818" points="1377.97,325.9737,1379.0592,316.1852,1376.457,321.2081,1371.4342,318.6059,1377.97,325.9737" style="stroke:#181818;stroke-width:1;"/><text fill="#000000" font-family="sans-serif" font-size="13" lengthAdjust="spacing" textLength="39.0254" x="1324.4" y="210.042">origina</text><text fill="#000000" font-family="sans-serif" font-size="13" lengthAdjust="spacing" textLength="7.23" x="1277.0344" y="184.6651">1</text><text fill="#000000" font-family="sans-serif" font-size="13" lengthAdjust="spacing" textLength="19.5127" x="1377.8371" y="314.6896">0..*</text></g><!--link Categoria to Icon--><g class="link" data-entity-1="Categoria" data-entity-2="Icon" data-source-line="85" data-uid="lnk39" id="link_Categoria_Icon"><path codeLine="85" d="M2229.72,403.4237 C2193.84,452.5837 2123.56,535.9637 2039.4,569.0137 C1985.87,590.0337 1053.62,556.2837 1004.4,586.0137 C966.98,608.6137 949.0807,652.0252 939.9407,683.9652" fill="none" id="Categoria-to-Icon" style="stroke:#181818;stroke-width:1;"/><polygon fill="#181818" points="938.29,689.7337,944.6117,682.1815,939.6656,684.9266,936.9204,679.9805,938.29,689.7337" style="stroke:#181818;stroke-width:1;"/><text fill="#000000" font-family="sans-serif" font-size="13" lengthAdjust="spacing" textLength="71.5381" x="2159.4" y="520.042">ilustrada por</text><text fill="#000000" font-family="sans-serif" font-size="13" lengthAdjust="spacing" textLength="7.23" x="2218.4729" y="424.4703">1</text><text fill="#000000" font-family="sans-serif" font-size="13" lengthAdjust="spacing" textLength="21.6836" x="916.6103" y="678.7336">0..1</text></g><!--link Categoria to Nome--><g class="link" data-entity-1="Categoria" data-entity-2="Nome" data-source-line="86" data-uid="lnk40" id="link_Categoria_Nome"><path codeLine="86" d="M2269.63,403.2037 C2283.96,448.3137 2298.83,523.4537 2259.4,569.0137 C2194.19,644.3537 1487.7044,700.4519 1282.4244,715.2619" fill="none" id="Categoria-to-Nome" style="stroke:#181818;stroke-width:1;"/><polygon fill="#181818" points="1276.44,715.6937,1285.7045,719.0357,1281.427,715.3339,1285.1288,711.0564,1276.44,715.6937" style="stroke:#181818;stroke-width:1;"/><text fill="#000000" font-family="sans-serif" font-size="13" lengthAdjust="spacing" textLength="71.5571" x="2285.4" y="520.042">denominada</text><text fill="#000000" font-family="sans-serif" font-size="13" lengthAdjust="spacing" textLength="7.23" x="2264.3134" y="424.5152">1</text><text fill="#000000" font-family="sans-serif" font-size="13" lengthAdjust="spacing" textLength="7.23" x="1284.3181" y="730.2641">1</text></g><!--link Banco to Icon--><g class="link" data-entity-1="Banco" data-entity-2="Icon" data-source-line="89" data-uid="lnk41" id="link_Banco_Icon"><path codeLine="89" d="M189,148.2137 C167.25,158.5637 140.43,174.2637 122.4,195.0137 C46.49,282.3637 44.3,321.5737 21.4,435.0137 C6,511.2837 55.27,538.6637 122.4,578.0137 C251.94,653.9537 709.9734,700.1846 870.3934,714.3846" fill="none" id="Banco-to-Icon" style="stroke:#181818;stroke-width:1;"/><polygon fill="#181818" points="876.37,714.9137,867.7577,710.1357,871.3895,714.4728,867.0524,718.1045,876.37,714.9137" style="stroke:#181818;stroke-width:1;"/><text fill="#000000" font-family="sans-serif" font-size="13" lengthAdjust="spacing" textLength="82.3735" x="22.4" y="450.042">ostenta marca</text><text fill="#000000" font-family="sans-serif" font-size="13" lengthAdjust="spacing" textLength="7.23" x="174.1972" y="146.7293">1</text><text fill="#000000" font-family="sans-serif" font-size="13" lengthAdjust="spacing" textLength="21.6836" x="846.6067" y="710.0949">0..1</text></g><!--link Banco to Conta--><g class="link" data-entity-1="Banco" data-entity-2="Conta" data-source-line="90" data-uid="lnk42" id="link_Banco_Conta"><path codeLine="90" d="M261.41,149.1437 C358.22,191.1537 617.7259,303.7651 714.1859,345.6251" fill="none" id="Banco-to-Conta" style="stroke:#181818;stroke-width:1;"/><polygon fill="#181818" points="719.69,348.0137,713.0263,340.7615,715.1033,346.0232,709.8415,348.1002,719.69,348.0137" style="stroke:#181818;stroke-width:1;"/><text fill="#000000" font-family="sans-serif" font-size="13" lengthAdjust="spacing" textLength="48.4199" x="397.4" y="210.042">custodia</text><text fill="#000000" font-family="sans-serif" font-size="13" lengthAdjust="spacing" textLength="7.23" x="268.9925" y="147.7893">1</text><text fill="#000000" font-family="sans-serif" font-size="13" lengthAdjust="spacing" textLength="19.5127" x="692.3685" y="340.5016">1..*</text></g><!--link Banco to Nome--><g class="link" data-entity-1="Banco" data-entity-2="Nome" data-source-line="91" data-uid="lnk43" id="link_Banco_Nome"><path codeLine="91" d="M226.27,163.1837 C230.45,244.6037 254.52,471.9237 392.4,569.0137 C409.6,581.1237 1131.46,575.0337 1149.4,586.0137 C1186.57,608.7637 1204.1526,652.1158 1213.0826,684.0158" fill="none" id="Banco-to-Nome" style="stroke:#181818;stroke-width:1;"/><polygon fill="#181818" points="1214.7,689.7937,1216.1258,680.0486,1213.3521,684.9788,1208.4219,682.2052,1214.7,689.7937" style="stroke:#181818;stroke-width:1;"/><text fill="#000000" font-family="sans-serif" font-size="13" lengthAdjust="spacing" textLength="53.479" x="296.4" y="450.042">chamado</text><text fill="#000000" font-family="sans-serif" font-size="13" lengthAdjust="spacing" textLength="7.23" x="218.8195" y="184.7463">1</text><text fill="#000000" font-family="sans-serif" font-size="13" lengthAdjust="spacing" textLength="7.23" x="1205.6143" y="678.806">1</text></g><!--link Banco to Dinheiro--><g class="link" data-entity-1="Banco" data-entity-2="Dinheiro" data-source-line="92" data-uid="lnk44" id="link_Banco_Dinheiro"><path codeLine="92" d="M205.24,163.4237 C168.75,221.5437 99.62,352.9237 145.4,454.0137 C177.35,524.5937 204.26,540.7737 276.4,569.0137 C348.64,597.2937 547.84,576.1937 625.4,578.0137 C635.93,578.2637 995.41,580.5237 1004.4,586.0137 C1041.58,608.7437 1059.1626,652.1058 1068.0926,684.0058" fill="none" id="Banco-to-Dinheiro" style="stroke:#181818;stroke-width:1;"/><polygon fill="#181818" points="1069.71,689.7837,1071.1358,680.0386,1068.3621,684.9688,1063.4319,682.1952,1069.71,689.7837" style="stroke:#181818;stroke-width:1;"/><text fill="#000000" font-family="sans-serif" font-size="13" lengthAdjust="spacing" textLength="112.0171" x="146.4" y="450.042">det&#233;m montante de</text><text fill="#000000" font-family="sans-serif" font-size="13" lengthAdjust="spacing" textLength="7.23" x="194.0731" y="184.535">1</text><text fill="#000000" font-family="sans-serif" font-size="13" lengthAdjust="spacing" textLength="7.23" x="1060.6264" y="678.7939">1</text></g><!--link Transacao to Categoria--><g class="link" data-entity-1="Transacao" data-entity-2="Categoria" data-source-line="95" data-uid="lnk45" id="link_Transacao_Categoria"><path codeLine="95" d="M1437.5,364.5137 C1590.72,364.5137 2052.8,364.5137 2202.69,364.5137" fill="none" id="Transacao-to-Categoria" style="stroke:#181818;stroke-width:1;"/><polygon fill="#181818" points="2208.69,364.5137,2199.69,360.5137,2203.69,364.5137,2199.69,368.5137,2208.69,364.5137" style="stroke:#181818;stroke-width:1;"/><text fill="#000000" font-family="sans-serif" font-size="13" lengthAdjust="spacing" textLength="94.6689" x="1776.15" y="357.542">enquadra-se em</text><text fill="#000000" font-family="sans-serif" font-size="13" lengthAdjust="spacing" textLength="7.23" x="1445.5609" y="360.2977">1</text><text fill="#000000" font-family="sans-serif" font-size="13" lengthAdjust="spacing" textLength="7.23" x="2193.7298" y="360.2469">1</text></g><!--link Transacao to Dinheiro--><g class="link" data-entity-1="Transacao" data-entity-2="Dinheiro" data-source-line="96" data-uid="lnk46" id="link_Transacao_Dinheiro"><path codeLine="96" d="M1342.67,403.1037 C1315.55,425.8737 1280.84,455.8737 1251.4,484.0137 C1209.81,523.7737 1207.06,541.7437 1162.4,578.0137 C1157.13,582.2937 1154.07,581.0937 1149.4,586.0137 C1120.38,616.5637 1101.4455,655.3078 1089.5955,684.3678" fill="none" id="Transacao-to-Dinheiro" style="stroke:#181818;stroke-width:1;"/><polygon fill="#181818" points="1087.33,689.9237,1094.4322,683.1003,1089.218,685.2938,1087.0244,680.0796,1087.33,689.9237" style="stroke:#181818;stroke-width:1;"/><text fill="#000000" font-family="sans-serif" font-size="13" lengthAdjust="spacing" textLength="63.5781" x="1252.4" y="520.042">movimenta</text><text fill="#000000" font-family="sans-serif" font-size="13" lengthAdjust="spacing" textLength="7.23" x="1327.8308" y="424.6966">1</text><text fill="#000000" font-family="sans-serif" font-size="13" lengthAdjust="spacing" textLength="7.23" x="1090.3243" y="678.9628">1</text></g><!--SRC=[ZPNDRfj04CVlFCN8bqYL7BLNvFhGf8TSsYY9UXylOppjVj3TfL9QvO7o77cnxYuO0yO4BiRcvzdv_-U32iKlB0bMNr0B0olORB0iBPNeQRk5Vnc4IqXq3XfYi_cgFVldxk5Bzf9brJ7CZT4UPyCqH2_CPcEDyTljP3Yq7isDfOBzV7P3yXJ-6BM7tfDbKqJe1ygQuFlk9mdV4vG-hk2197esEe_12oXepveSi7UmOobPbo2UXQI4ZpBzj8BrUfi-s-FoDW085jA4BmEXJnQrGu7p8a_KZ7yz_XQJrNCo6_21IEsCT6OH_SJLCl3Hew_T8lIMdB3SI9ilooCf3De5sBO-3lR67hs9FoImvsYl6D6H78mmrdA1GEeI-_7wEjnslkHGcOB0M2vPevqv8PgJmzihX0xpuNu6RUp9WS9WQMznxMWcevZzqQJOJ1xb0OE6ojZHp7WgGwBlZ657BHp5nmE6vaunNReT1Vnc52shDEi3iLtMGNV1cSjWGBCh-1mkkDEUxFg-pJOi6KsYQOxuE6BDuX6d9rcxh7eb_x0wEP-71YlPUHnmfzw8gUN01GNtzg4eRId6S2nRgpW7t95DIQXtkCgIemWub8MPWgFViGqSbpgU7MAQ97EmY0Po9rRKM4xjMV9Vp2wlivHAF7Z7FWtGfR03GQnPS2jy2O-YLhL4AD5vC_UNnWQiI8PvBj9UlP3xMNdROMvCEqx3qB1kagPhBsiNnlPO-0cwLoTj5CT2nUEQLsd_gFRrEtcCSJwrWa8hS4364vAgjYWYv6CAnhDmNHxYW2hOD0MSp0-xvUrLWOf1mrX5JqFIlGKBmXhdrfRsPCFoecnwNNMEn1NtkyQYMt5Z_Ym5PVwmYggp_m00]--></g></svg>