<svg xmlns="http://www.w3.org/2000/svg" xmlns:xlink="http://www.w3.org/1999/xlink" contentStyleType="text/css" data-diagram-type="CLASS" height="970px" preserveAspectRatio="none" style="width:2052px;height:970px;background:#FFFFFF;" version="1.1" viewBox="0 0 2052 970" width="2052px" zoomAndPan="magnify"><defs/><g><!--cluster Banco --><g class="cluster" data-entity="Banco " data-source-line="2" data-uid="ent0002" id="cluster_Banco "><path d="M217.5,6.0137 L265.1758,6.0137 A3.75,3.75 0 0 1 267.6758,8.5137 L274.6758,30.6348 L316.5,30.6348 A2.5,2.5 0 0 1 319,33.1348 L319,176.5137 A2.5,2.5 0 0 1 316.5,179.0137 L217.5,179.0137 A2.5,2.5 0 0 1 215,176.5137 L215,8.5137 A2.5,2.5 0 0 1 217.5,6.0137" fill="none" style="stroke:#000000;stroke-width:1.5;"/><line style="stroke:#000000;stroke-width:1.5;" x1="215" x2="274.6758" y1="30.6348" y2="30.6348"/><text fill="#000000" font-family="sans-serif" font-size="14" font-weight="bold" lengthAdjust="spacing" textLength="42.7861" x="219" y="23.1211">Banco</text><text fill="#000000" font-family="sans-serif" font-size="14" font-style="italic" lengthAdjust="spacing" textLength="78.627" x="231.6865" y="47.7422">&#171;aggregate&#187;</text></g><!--cluster Conta --><g class="cluster" data-entity="Conta " data-source-line="7" data-uid="ent0004" id="cluster_Conta "><path d="M559.5,230.0137 L604.0518,230.0137 A3.75,3.75 0 0 1 606.5518,232.5137 L613.5518,254.6348 L658.5,254.6348 A2.5,2.5 0 0 1 661,257.1348 L661,416.5137 A2.5,2.5 0 0 1 658.5,419.0137 L559.5,419.0137 A2.5,2.5 0 0 1 557,416.5137 L557,232.5137 A2.5,2.5 0 0 1 559.5,230.0137" fill="none" style="stroke:#000000;stroke-width:1.5;"/><line style="stroke:#000000;stroke-width:1.5;" x1="557" x2="613.5518" y1="254.6348" y2="254.6348"/><text fill="#000000" font-family="sans-serif" font-size="14" font-weight="bold" lengthAdjust="spacing" textLength="39.6621" x="561" y="247.1211">Conta</text><text fill="#000000" font-family="sans-serif" font-size="14" font-style="italic" lengthAdjust="spacing" textLength="78.627" x="573.6865" y="271.7422">&#171;aggregate&#187;</text></g><!--cluster CartaoCredito --><g class="cluster" data-entity="CartaoCredito " data-source-line="12" data-uid="ent0006" id="cluster_CartaoCredito "><path d="M798.5,6.0137 L896.7344,6.0137 A3.75,3.75 0 0 1 899.2344,8.5137 L906.2344,30.6348 L945.5,30.6348 A2.5,2.5 0 0 1 948,33.1348 L948,408.5137 A2.5,2.5 0 0 1 945.5,411.0137 L798.5,411.0137 A2.5,2.5 0 0 1 796,408.5137 L796,8.5137 A2.5,2.5 0 0 1 798.5,6.0137" fill="none" style="stroke:#000000;stroke-width:1.5;"/><line style="stroke:#000000;stroke-width:1.5;" x1="796" x2="906.2344" y1="30.6348" y2="30.6348"/><text fill="#000000" font-family="sans-serif" font-size="14" font-weight="bold" lengthAdjust="spacing" textLength="93.3447" x="800" y="23.1211">CartaoCredito</text><text fill="#000000" font-family="sans-serif" font-size="14" font-style="italic" lengthAdjust="spacing" textLength="78.627" x="836.6865" y="47.7422">&#171;aggregate&#187;</text></g><!--cluster Transacao --><g class="cluster" data-entity="Transacao " data-source-line="23" data-uid="ent0010" id="cluster_Transacao "><path d="M974.5,230.0137 L1049.4238,230.0137 A3.75,3.75 0 0 1 1051.9238,232.5137 L1058.9238,254.6348 L1691.5,254.6348 A2.5,2.5 0 0 1 1694,257.1348 L1694,648.5137 A2.5,2.5 0 0 1 1691.5,651.0137 L974.5,651.0137 A2.5,2.5 0 0 1 972,648.5137 L972,232.5137 A2.5,2.5 0 0 1 974.5,230.0137" fill="none" style="stroke:#000000;stroke-width:1.5;"/><line style="stroke:#000000;stroke-width:1.5;" x1="972" x2="1058.9238" y1="254.6348" y2="254.6348"/><text fill="#000000" font-family="sans-serif" font-size="14" font-weight="bold" lengthAdjust="spacing" textLength="70.0342" x="976" y="247.1211">Transacao</text><text fill="#000000" font-family="sans-serif" font-size="14" font-style="italic" lengthAdjust="spacing" textLength="78.627" x="1297.6865" y="271.7422">&#171;aggregate&#187;</text></g><!--cluster Categoria --><g class="cluster" data-entity="Categoria " data-source-line="50" data-uid="ent0022" id="cluster_Categoria "><path d="M1720.5,470.0137 L1789.9619,470.0137 A3.75,3.75 0 0 1 1792.4619,472.5137 L1799.4619,494.6348 L1841.5,494.6348 A2.5,2.5 0 0 1 1844,497.1348 L1844,656.5137 A2.5,2.5 0 0 1 1841.5,659.0137 L1720.5,659.0137 A2.5,2.5 0 0 1 1718,656.5137 L1718,472.5137 A2.5,2.5 0 0 1 1720.5,470.0137" fill="none" style="stroke:#000000;stroke-width:1.5;"/><line style="stroke:#000000;stroke-width:1.5;" x1="1718" x2="1799.4619" y1="494.6348" y2="494.6348"/><text fill="#000000" font-family="sans-serif" font-size="14" font-weight="bold" lengthAdjust="spacing" textLength="64.5723" x="1722" y="487.1211">Categoria</text><text fill="#000000" font-family="sans-serif" font-size="14" font-style="italic" lengthAdjust="spacing" textLength="78.627" x="1745.6865" y="511.7422">&#171;aggregate&#187;</text></g><!--cluster Shared --><g class="cluster" data-entity="Shared " data-source-line="55" data-uid="ent0024" id="cluster_Shared "><path d="M609.5,790.0137 L661.8516,790.0137 A3.75,3.75 0 0 1 664.3516,792.5137 L671.3516,814.6348 L1036.5,814.6348 A2.5,2.5 0 0 1 1039,817.1348 L1039,960.5137 A2.5,2.5 0 0 1 1036.5,963.0137 L609.5,963.0137 A2.5,2.5 0 0 1 607,960.5137 L607,792.5137 A2.5,2.5 0 0 1 609.5,790.0137" fill="none" style="stroke:#000000;stroke-width:1.5;"/><line style="stroke:#000000;stroke-width:1.5;" x1="607" x2="671.3516" y1="814.6348" y2="814.6348"/><text fill="#000000" font-family="sans-serif" font-size="14" font-weight="bold" lengthAdjust="spacing" textLength="47.4619" x="611" y="807.1211">Shared</text><text fill="#000000" font-family="sans-serif" font-size="14" font-style="italic" lengthAdjust="spacing" textLength="58.3789" x="797.8105" y="831.7422">&#171;shared&#187;</text></g><!--class Banco--><g class="entity" data-entity="Banco" data-source-line="3" data-uid="ent0003" id="entity_Banco"><rect fill="#F1F1F1" height="60.582" rx="2.5" ry="2.5" style="stroke:#181818;stroke-width:0.5;" width="71.6963" x="231" y="102.0137"/><ellipse cx="246" cy="124.3047" fill="#ADD1B2" rx="11" ry="11" style="stroke:#181818;stroke-width:1;"/><path d="M248.7656,120.1797 Q248.9219,119.9609 249.1094,119.8516 Q249.2969,119.7422 249.5156,119.7422 Q249.8906,119.7422 250.125,120.0078 Q250.3594,120.2578 250.3594,120.8672 L250.3594,122.3203 Q250.3594,122.9297 250.125,123.1953 Q249.8906,123.4609 249.5156,123.4609 Q249.1719,123.4609 248.9688,123.2578 Q248.7656,123.0703 248.6563,122.5547 Q248.6094,122.1953 248.4219,122.0078 Q248.0938,121.6328 247.4844,121.4141 Q246.875,121.1953 246.25,121.1953 Q245.4844,121.1953 244.8438,121.5234 Q244.2188,121.8516 243.7188,122.6016 Q243.2344,123.3516 243.2344,124.3828 L243.2344,125.4766 Q243.2344,126.7109 244.125,127.5391 Q245.0156,128.3516 246.6094,128.3516 Q247.5469,128.3516 248.2031,128.1016 Q248.5938,127.9453 249.0156,127.5078 Q249.2813,127.2422 249.4219,127.1641 Q249.5781,127.0859 249.7813,127.0859 Q250.1094,127.0859 250.3594,127.3516 Q250.625,127.6016 250.625,127.9453 Q250.625,128.2891 250.2813,128.6953 Q249.7813,129.2734 248.9844,129.6016 Q247.9063,130.0547 246.6094,130.0547 Q245.0938,130.0547 243.8906,129.4297 Q242.9063,128.9297 242.2188,127.8672 Q241.5313,126.7891 241.5313,125.5078 L241.5313,124.3516 Q241.5313,123.0234 242.1406,121.8828 Q242.7656,120.7266 243.8594,120.1172 Q244.9531,119.4922 246.1875,119.4922 Q246.9219,119.4922 247.5625,119.6641 Q248.2188,119.8203 248.7656,120.1797 Z " fill="#000000"/><text fill="#000000" font-family="sans-serif" font-size="12" font-style="italic" lengthAdjust="spacing" textLength="43.3594" x="258.1685" y="119.9629">&#171;Entity&#187;</text><text fill="#000000" font-family="sans-serif" font-size="14" lengthAdjust="spacing" textLength="39.6963" x="260" y="138.082">Banco</text><line style="stroke:#181818;stroke-width:0.5;" x1="232" x2="301.6963" y1="146.5957" y2="146.5957"/><line style="stroke:#181818;stroke-width:0.5;" x1="232" x2="301.6963" y1="154.5957" y2="154.5957"/></g><!--class Conta--><g class="entity" data-entity="Conta" data-source-line="8" data-uid="ent0005" id="entity_Conta"><rect fill="#F1F1F1" height="76.543" rx="2.5" ry="2.5" style="stroke:#181818;stroke-width:0.5;" width="71.3594" x="573.5" y="326.0137"/><ellipse cx="588.5" cy="356.2852" fill="#ADD1B2" rx="11" ry="11" style="stroke:#181818;stroke-width:1;"/><path d="M591.2656,352.1602 Q591.4219,351.9414 591.6094,351.832 Q591.7969,351.7227 592.0156,351.7227 Q592.3906,351.7227 592.625,351.9883 Q592.8594,352.2383 592.8594,352.8477 L592.8594,354.3008 Q592.8594,354.9102 592.625,355.1758 Q592.3906,355.4414 592.0156,355.4414 Q591.6719,355.4414 591.4688,355.2383 Q591.2656,355.0508 591.1563,354.5352 Q591.1094,354.1758 590.9219,353.9883 Q590.5938,353.6133 589.9844,353.3945 Q589.375,353.1758 588.75,353.1758 Q587.9844,353.1758 587.3438,353.5039 Q586.7188,353.832 586.2188,354.582 Q585.7344,355.332 585.7344,356.3633 L585.7344,357.457 Q585.7344,358.6914 586.625,359.5195 Q587.5156,360.332 589.1094,360.332 Q590.0469,360.332 590.7031,360.082 Q591.0938,359.9258 591.5156,359.4883 Q591.7813,359.2227 591.9219,359.1445 Q592.0781,359.0664 592.2813,359.0664 Q592.6094,359.0664 592.8594,359.332 Q593.125,359.582 593.125,359.9258 Q593.125,360.2695 592.7813,360.6758 Q592.2813,361.2539 591.4844,361.582 Q590.4063,362.0352 589.1094,362.0352 Q587.5938,362.0352 586.3906,361.4102 Q585.4063,360.9102 584.7188,359.8477 Q584.0313,358.7695 584.0313,357.4883 L584.0313,356.332 Q584.0313,355.0039 584.6406,353.8633 Q585.2656,352.707 586.3594,352.0977 Q587.4531,351.4727 588.6875,351.4727 Q589.4219,351.4727 590.0625,351.6445 Q590.7188,351.8008 591.2656,352.1602 Z " fill="#000000"/><text fill="#000000" font-family="sans-serif" font-size="12" font-style="italic" lengthAdjust="spacing" textLength="43.3594" x="600.5" y="343.9629">&#171;Entity&#187;</text><text fill="#000000" font-family="sans-serif" font-size="12" font-style="italic" lengthAdjust="spacing" textLength="34.0254" x="605.167" y="359.9238">&#171;root&#187;</text><text fill="#000000" font-family="sans-serif" font-size="14" lengthAdjust="spacing" textLength="37.3584" x="603.5005" y="378.043">Conta</text><line style="stroke:#181818;stroke-width:0.5;" x1="574.5" x2="643.8594" y1="386.5566" y2="386.5566"/><line style="stroke:#181818;stroke-width:0.5;" x1="574.5" x2="643.8594" y1="394.5566" y2="394.5566"/></g><!--class CartaoCredito--><g class="entity" data-entity="CartaoCredito" data-source-line="13" data-uid="ent0007" id="entity_CartaoCredito"><rect fill="#F1F1F1" height="60.582" rx="2.5" ry="2.5" style="stroke:#181818;stroke-width:0.5;" width="119.1514" x="812.5" y="102.0137"/><ellipse cx="827.5" cy="124.3047" fill="#ADD1B2" rx="11" ry="11" style="stroke:#181818;stroke-width:1;"/><path d="M830.2656,120.1797 Q830.4219,119.9609 830.6094,119.8516 Q830.7969,119.7422 831.0156,119.7422 Q831.3906,119.7422 831.625,120.0078 Q831.8594,120.2578 831.8594,120.8672 L831.8594,122.3203 Q831.8594,122.9297 831.625,123.1953 Q831.3906,123.4609 831.0156,123.4609 Q830.6719,123.4609 830.4688,123.2578 Q830.2656,123.0703 830.1563,122.5547 Q830.1094,122.1953 829.9219,122.0078 Q829.5938,121.6328 828.9844,121.4141 Q828.375,121.1953 827.75,121.1953 Q826.9844,121.1953 826.3438,121.5234 Q825.7188,121.8516 825.2188,122.6016 Q824.7344,123.3516 824.7344,124.3828 L824.7344,125.4766 Q824.7344,126.7109 825.625,127.5391 Q826.5156,128.3516 828.1094,128.3516 Q829.0469,128.3516 829.7031,128.1016 Q830.0938,127.9453 830.5156,127.5078 Q830.7813,127.2422 830.9219,127.1641 Q831.0781,127.0859 831.2813,127.0859 Q831.6094,127.0859 831.8594,127.3516 Q832.125,127.6016 832.125,127.9453 Q832.125,128.2891 831.7813,128.6953 Q831.2813,129.2734 830.4844,129.6016 Q829.4063,130.0547 828.1094,130.0547 Q826.5938,130.0547 825.3906,129.4297 Q824.4063,128.9297 823.7188,127.8672 Q823.0313,126.7891 823.0313,125.5078 L823.0313,124.3516 Q823.0313,123.0234 823.6406,121.8828 Q824.2656,120.7266 825.3594,120.1172 Q826.4531,119.4922 827.6875,119.4922 Q828.4219,119.4922 829.0625,119.6641 Q829.7188,119.8203 830.2656,120.1797 Z " fill="#000000"/><text fill="#000000" font-family="sans-serif" font-size="12" font-style="italic" lengthAdjust="spacing" textLength="43.3594" x="863.396" y="119.9629">&#171;Entity&#187;</text><text fill="#000000" font-family="sans-serif" font-size="14" lengthAdjust="spacing" textLength="87.1514" x="841.5" y="138.082">CartaoCredito</text><line style="stroke:#181818;stroke-width:0.5;" x1="813.5" x2="930.6514" y1="146.5957" y2="146.5957"/><line style="stroke:#181818;stroke-width:0.5;" x1="813.5" x2="930.6514" y1="154.5957" y2="154.5957"/></g><!--class Periodo--><g class="entity" data-entity="Periodo" data-source-line="16" data-uid="ent0008" id="entity_Periodo"><rect fill="#F1F1F1" height="60.582" rx="2.5" ry="2.5" style="stroke:#181818;stroke-width:0.5;" width="110.0547" x="822" y="334.0137"/><ellipse cx="837" cy="356.3047" fill="#ADD1B2" rx="11" ry="11" style="stroke:#181818;stroke-width:1;"/><path d="M839.7656,352.1797 Q839.9219,351.9609 840.1094,351.8516 Q840.2969,351.7422 840.5156,351.7422 Q840.8906,351.7422 841.125,352.0078 Q841.3594,352.2578 841.3594,352.8672 L841.3594,354.3203 Q841.3594,354.9297 841.125,355.1953 Q840.8906,355.4609 840.5156,355.4609 Q840.1719,355.4609 839.9688,355.2578 Q839.7656,355.0703 839.6563,354.5547 Q839.6094,354.1953 839.4219,354.0078 Q839.0938,353.6328 838.4844,353.4141 Q837.875,353.1953 837.25,353.1953 Q836.4844,353.1953 835.8438,353.5234 Q835.2188,353.8516 834.7188,354.6016 Q834.2344,355.3516 834.2344,356.3828 L834.2344,357.4766 Q834.2344,358.7109 835.125,359.5391 Q836.0156,360.3516 837.6094,360.3516 Q838.5469,360.3516 839.2031,360.1016 Q839.5938,359.9453 840.0156,359.5078 Q840.2813,359.2422 840.4219,359.1641 Q840.5781,359.0859 840.7813,359.0859 Q841.1094,359.0859 841.3594,359.3516 Q841.625,359.6016 841.625,359.9453 Q841.625,360.2891 841.2813,360.6953 Q840.7813,361.2734 839.9844,361.6016 Q838.9063,362.0547 837.6094,362.0547 Q836.0938,362.0547 834.8906,361.4297 Q833.9063,360.9297 833.2188,359.8672 Q832.5313,358.7891 832.5313,357.5078 L832.5313,356.3516 Q832.5313,355.0234 833.1406,353.8828 Q833.7656,352.7266 834.8594,352.1172 Q835.9531,351.4922 837.1875,351.4922 Q837.9219,351.4922 838.5625,351.6641 Q839.2188,351.8203 839.7656,352.1797 Z " fill="#000000"/><text fill="#000000" font-family="sans-serif" font-size="12" font-style="italic" lengthAdjust="spacing" textLength="82.0547" x="849" y="351.9629">&#171;Value Object&#187;</text><text fill="#000000" font-family="sans-serif" font-size="14" lengthAdjust="spacing" textLength="48.2549" x="865.8999" y="370.082">Periodo</text><line style="stroke:#181818;stroke-width:0.5;" x1="823" x2="931.0547" y1="378.5957" y2="378.5957"/><line style="stroke:#181818;stroke-width:0.5;" x1="823" x2="931.0547" y1="386.5957" y2="386.5957"/></g><!--class Transacao--><g class="entity" data-entity="Transacao" data-source-line="24" data-uid="ent0011" id="entity_Transacao"><rect fill="#F1F1F1" height="76.543" rx="2.5" ry="2.5" style="stroke:#181818;stroke-width:0.5;" width="98.1445" x="1214" y="326.0137"/><ellipse cx="1229" cy="356.2852" fill="#ADD1B2" rx="11" ry="11" style="stroke:#181818;stroke-width:1;"/><path d="M1231.7656,352.1602 Q1231.9219,351.9414 1232.1094,351.832 Q1232.2969,351.7227 1232.5156,351.7227 Q1232.8906,351.7227 1233.125,351.9883 Q1233.3594,352.2383 1233.3594,352.8477 L1233.3594,354.3008 Q1233.3594,354.9102 1233.125,355.1758 Q1232.8906,355.4414 1232.5156,355.4414 Q1232.1719,355.4414 1231.9688,355.2383 Q1231.7656,355.0508 1231.6563,354.5352 Q1231.6094,354.1758 1231.4219,353.9883 Q1231.0938,353.6133 1230.4844,353.3945 Q1229.875,353.1758 1229.25,353.1758 Q1228.4844,353.1758 1227.8438,353.5039 Q1227.2188,353.832 1226.7188,354.582 Q1226.2344,355.332 1226.2344,356.3633 L1226.2344,357.457 Q1226.2344,358.6914 1227.125,359.5195 Q1228.0156,360.332 1229.6094,360.332 Q1230.5469,360.332 1231.2031,360.082 Q1231.5938,359.9258 1232.0156,359.4883 Q1232.2813,359.2227 1232.4219,359.1445 Q1232.5781,359.0664 1232.7813,359.0664 Q1233.1094,359.0664 1233.3594,359.332 Q1233.625,359.582 1233.625,359.9258 Q1233.625,360.2695 1233.2813,360.6758 Q1232.7813,361.2539 1231.9844,361.582 Q1230.9063,362.0352 1229.6094,362.0352 Q1228.0938,362.0352 1226.8906,361.4102 Q1225.9063,360.9102 1225.2188,359.8477 Q1224.5313,358.7695 1224.5313,357.4883 L1224.5313,356.332 Q1224.5313,355.0039 1225.1406,353.8633 Q1225.7656,352.707 1226.8594,352.0977 Q1227.9531,351.4727 1229.1875,351.4727 Q1229.9219,351.4727 1230.5625,351.6445 Q1231.2188,351.8008 1231.7656,352.1602 Z " fill="#000000"/><text fill="#000000" font-family="sans-serif" font-size="12" font-style="italic" lengthAdjust="spacing" textLength="43.3594" x="1254.3926" y="343.9629">&#171;Entity&#187;</text><text fill="#000000" font-family="sans-serif" font-size="12" font-style="italic" lengthAdjust="spacing" textLength="34.0254" x="1259.0596" y="359.9238">&#171;root&#187;</text><text fill="#000000" font-family="sans-serif" font-size="14" lengthAdjust="spacing" textLength="66.1445" x="1243" y="378.043">Transacao</text><line style="stroke:#181818;stroke-width:0.5;" x1="1215" x2="1311.1445" y1="386.5566" y2="386.5566"/><line style="stroke:#181818;stroke-width:0.5;" x1="1215" x2="1311.1445" y1="394.5566" y2="394.5566"/></g><!--class Data--><g class="entity" data-entity="Data" data-source-line="27" data-uid="ent0012" id="entity_Data"><rect fill="#F1F1F1" height="60.582" rx="2.5" ry="2.5" style="stroke:#181818;stroke-width:0.5;" width="110.0547" x="1278" y="574.0137"/><ellipse cx="1293" cy="596.3047" fill="#ADD1B2" rx="11" ry="11" style="stroke:#181818;stroke-width:1;"/><path d="M1295.7656,592.1797 Q1295.9219,591.9609 1296.1094,591.8516 Q1296.2969,591.7422 1296.5156,591.7422 Q1296.8906,591.7422 1297.125,592.0078 Q1297.3594,592.2578 1297.3594,592.8672 L1297.3594,594.3203 Q1297.3594,594.9297 1297.125,595.1953 Q1296.8906,595.4609 1296.5156,595.4609 Q1296.1719,595.4609 1295.9688,595.2578 Q1295.7656,595.0703 1295.6563,594.5547 Q1295.6094,594.1953 1295.4219,594.0078 Q1295.0938,593.6328 1294.4844,593.4141 Q1293.875,593.1953 1293.25,593.1953 Q1292.4844,593.1953 1291.8438,593.5234 Q1291.2188,593.8516 1290.7188,594.6016 Q1290.2344,595.3516 1290.2344,596.3828 L1290.2344,597.4766 Q1290.2344,598.7109 1291.125,599.5391 Q1292.0156,600.3516 1293.6094,600.3516 Q1294.5469,600.3516 1295.2031,600.1016 Q1295.5938,599.9453 1296.0156,599.5078 Q1296.2813,599.2422 1296.4219,599.1641 Q1296.5781,599.0859 1296.7813,599.0859 Q1297.1094,599.0859 1297.3594,599.3516 Q1297.625,599.6016 1297.625,599.9453 Q1297.625,600.2891 1297.2813,600.6953 Q1296.7813,601.2734 1295.9844,601.6016 Q1294.9063,602.0547 1293.6094,602.0547 Q1292.0938,602.0547 1290.8906,601.4297 Q1289.9063,600.9297 1289.2188,599.8672 Q1288.5313,598.7891 1288.5313,597.5078 L1288.5313,596.3516 Q1288.5313,595.0234 1289.1406,593.8828 Q1289.7656,592.7266 1290.8594,592.1172 Q1291.9531,591.4922 1293.1875,591.4922 Q1293.9219,591.4922 1294.5625,591.6641 Q1295.2188,591.8203 1295.7656,592.1797 Z " fill="#000000"/><text fill="#000000" font-family="sans-serif" font-size="12" font-style="italic" lengthAdjust="spacing" textLength="82.0547" x="1305" y="591.9629">&#171;Value Object&#187;</text><text fill="#000000" font-family="sans-serif" font-size="14" lengthAdjust="spacing" textLength="29.5723" x="1331.2412" y="610.082">Data</text><line style="stroke:#181818;stroke-width:0.5;" x1="1279" x2="1387.0547" y1="618.5957" y2="618.5957"/><line style="stroke:#181818;stroke-width:0.5;" x1="1279" x2="1387.0547" y1="626.5957" y2="626.5957"/></g><!--class Reembolso--><g class="entity" data-entity="Reembolso" data-source-line="30" data-uid="ent0013" id="entity_Reembolso"><rect fill="#F1F1F1" height="60.582" rx="2.5" ry="2.5" style="stroke:#181818;stroke-width:0.5;" width="110.0547" x="1423" y="574.0137"/><ellipse cx="1438" cy="596.3047" fill="#ADD1B2" rx="11" ry="11" style="stroke:#181818;stroke-width:1;"/><path d="M1440.7656,592.1797 Q1440.9219,591.9609 1441.1094,591.8516 Q1441.2969,591.7422 1441.5156,591.7422 Q1441.8906,591.7422 1442.125,592.0078 Q1442.3594,592.2578 1442.3594,592.8672 L1442.3594,594.3203 Q1442.3594,594.9297 1442.125,595.1953 Q1441.8906,595.4609 1441.5156,595.4609 Q1441.1719,595.4609 1440.9688,595.2578 Q1440.7656,595.0703 1440.6563,594.5547 Q1440.6094,594.1953 1440.4219,594.0078 Q1440.0938,593.6328 1439.4844,593.4141 Q1438.875,593.1953 1438.25,593.1953 Q1437.4844,593.1953 1436.8438,593.5234 Q1436.2188,593.8516 1435.7188,594.6016 Q1435.2344,595.3516 1435.2344,596.3828 L1435.2344,597.4766 Q1435.2344,598.7109 1436.125,599.5391 Q1437.0156,600.3516 1438.6094,600.3516 Q1439.5469,600.3516 1440.2031,600.1016 Q1440.5938,599.9453 1441.0156,599.5078 Q1441.2813,599.2422 1441.4219,599.1641 Q1441.5781,599.0859 1441.7813,599.0859 Q1442.1094,599.0859 1442.3594,599.3516 Q1442.625,599.6016 1442.625,599.9453 Q1442.625,600.2891 1442.2813,600.6953 Q1441.7813,601.2734 1440.9844,601.6016 Q1439.9063,602.0547 1438.6094,602.0547 Q1437.0938,602.0547 1435.8906,601.4297 Q1434.9063,600.9297 1434.2188,599.8672 Q1433.5313,598.7891 1433.5313,597.5078 L1433.5313,596.3516 Q1433.5313,595.0234 1434.1406,593.8828 Q1434.7656,592.7266 1435.8594,592.1172 Q1436.9531,591.4922 1438.1875,591.4922 Q1438.9219,591.4922 1439.5625,591.6641 Q1440.2188,591.8203 1440.7656,592.1797 Z " fill="#000000"/><text fill="#000000" font-family="sans-serif" font-size="12" font-style="italic" lengthAdjust="spacing" textLength="82.0547" x="1450" y="591.9629">&#171;Value Object&#187;</text><text fill="#000000" font-family="sans-serif" font-size="14" lengthAdjust="spacing" textLength="70.8135" x="1455.6206" y="610.082">Reembolso</text><line style="stroke:#181818;stroke-width:0.5;" x1="1424" x2="1532.0547" y1="618.5957" y2="618.5957"/><line style="stroke:#181818;stroke-width:0.5;" x1="1424" x2="1532.0547" y1="626.5957" y2="626.5957"/></g><!--class Tipo--><g class="entity" data-entity="Tipo" data-source-line="33" data-uid="ent0014" id="entity_Tipo"><rect fill="#F1F1F1" height="60.582" rx="2.5" ry="2.5" style="stroke:#181818;stroke-width:0.5;" width="110.0547" x="1568" y="574.0137"/><ellipse cx="1583" cy="596.3047" fill="#ADD1B2" rx="11" ry="11" style="stroke:#181818;stroke-width:1;"/><path d="M1585.7656,592.1797 Q1585.9219,591.9609 1586.1094,591.8516 Q1586.2969,591.7422 1586.5156,591.7422 Q1586.8906,591.7422 1587.125,592.0078 Q1587.3594,592.2578 1587.3594,592.8672 L1587.3594,594.3203 Q1587.3594,594.9297 1587.125,595.1953 Q1586.8906,595.4609 1586.5156,595.4609 Q1586.1719,595.4609 1585.9688,595.2578 Q1585.7656,595.0703 1585.6563,594.5547 Q1585.6094,594.1953 1585.4219,594.0078 Q1585.0938,593.6328 1584.4844,593.4141 Q1583.875,593.1953 1583.25,593.1953 Q1582.4844,593.1953 1581.8438,593.5234 Q1581.2188,593.8516 1580.7188,594.6016 Q1580.2344,595.3516 1580.2344,596.3828 L1580.2344,597.4766 Q1580.2344,598.7109 1581.125,599.5391 Q1582.0156,600.3516 1583.6094,600.3516 Q1584.5469,600.3516 1585.2031,600.1016 Q1585.5938,599.9453 1586.0156,599.5078 Q1586.2813,599.2422 1586.4219,599.1641 Q1586.5781,599.0859 1586.7813,599.0859 Q1587.1094,599.0859 1587.3594,599.3516 Q1587.625,599.6016 1587.625,599.9453 Q1587.625,600.2891 1587.2813,600.6953 Q1586.7813,601.2734 1585.9844,601.6016 Q1584.9063,602.0547 1583.6094,602.0547 Q1582.0938,602.0547 1580.8906,601.4297 Q1579.9063,600.9297 1579.2188,599.8672 Q1578.5313,598.7891 1578.5313,597.5078 L1578.5313,596.3516 Q1578.5313,595.0234 1579.1406,593.8828 Q1579.7656,592.7266 1580.8594,592.1172 Q1581.9531,591.4922 1583.1875,591.4922 Q1583.9219,591.4922 1584.5625,591.6641 Q1585.2188,591.8203 1585.7656,592.1797 Z " fill="#000000"/><text fill="#000000" font-family="sans-serif" font-size="12" font-style="italic" lengthAdjust="spacing" textLength="82.0547" x="1595" y="591.9629">&#171;Value Object&#187;</text><text fill="#000000" font-family="sans-serif" font-size="14" lengthAdjust="spacing" textLength="27.2344" x="1622.4102" y="610.082">Tipo</text><line style="stroke:#181818;stroke-width:0.5;" x1="1569" x2="1677.0547" y1="618.5957" y2="618.5957"/><line style="stroke:#181818;stroke-width:0.5;" x1="1569" x2="1677.0547" y1="626.5957" y2="626.5957"/></g><!--class Status--><g class="entity" data-entity="Status" data-source-line="36" data-uid="ent0015" id="entity_Status"><rect fill="#F1F1F1" height="60.582" rx="2.5" ry="2.5" style="stroke:#181818;stroke-width:0.5;" width="110.0547" x="988" y="574.0137"/><ellipse cx="1003" cy="596.3047" fill="#ADD1B2" rx="11" ry="11" style="stroke:#181818;stroke-width:1;"/><path d="M1005.7656,592.1797 Q1005.9219,591.9609 1006.1094,591.8516 Q1006.2969,591.7422 1006.5156,591.7422 Q1006.8906,591.7422 1007.125,592.0078 Q1007.3594,592.2578 1007.3594,592.8672 L1007.3594,594.3203 Q1007.3594,594.9297 1007.125,595.1953 Q1006.8906,595.4609 1006.5156,595.4609 Q1006.1719,595.4609 1005.9688,595.2578 Q1005.7656,595.0703 1005.6563,594.5547 Q1005.6094,594.1953 1005.4219,594.0078 Q1005.0938,593.6328 1004.4844,593.4141 Q1003.875,593.1953 1003.25,593.1953 Q1002.4844,593.1953 1001.8438,593.5234 Q1001.2188,593.8516 1000.7188,594.6016 Q1000.2344,595.3516 1000.2344,596.3828 L1000.2344,597.4766 Q1000.2344,598.7109 1001.125,599.5391 Q1002.0156,600.3516 1003.6094,600.3516 Q1004.5469,600.3516 1005.2031,600.1016 Q1005.5938,599.9453 1006.0156,599.5078 Q1006.2813,599.2422 1006.4219,599.1641 Q1006.5781,599.0859 1006.7813,599.0859 Q1007.1094,599.0859 1007.3594,599.3516 Q1007.625,599.6016 1007.625,599.9453 Q1007.625,600.2891 1007.2813,600.6953 Q1006.7813,601.2734 1005.9844,601.6016 Q1004.9063,602.0547 1003.6094,602.0547 Q1002.0938,602.0547 1000.8906,601.4297 Q999.9063,600.9297 999.2188,599.8672 Q998.5313,598.7891 998.5313,597.5078 L998.5313,596.3516 Q998.5313,595.0234 999.1406,593.8828 Q999.7656,592.7266 1000.8594,592.1172 Q1001.9531,591.4922 1003.1875,591.4922 Q1003.9219,591.4922 1004.5625,591.6641 Q1005.2188,591.8203 1005.7656,592.1797 Z " fill="#000000"/><text fill="#000000" font-family="sans-serif" font-size="12" font-style="italic" lengthAdjust="spacing" textLength="82.0547" x="1015" y="591.9629">&#171;Value Object&#187;</text><text fill="#000000" font-family="sans-serif" font-size="14" lengthAdjust="spacing" textLength="39.6895" x="1036.1826" y="610.082">Status</text><line style="stroke:#181818;stroke-width:0.5;" x1="989" x2="1097.0547" y1="618.5957" y2="618.5957"/><line style="stroke:#181818;stroke-width:0.5;" x1="989" x2="1097.0547" y1="626.5957" y2="626.5957"/></g><!--class Descricao--><g class="entity" data-entity="Descricao" data-source-line="39" data-uid="ent0016" id="entity_Descricao"><rect fill="#F1F1F1" height="60.582" rx="2.5" ry="2.5" style="stroke:#181818;stroke-width:0.5;" width="110.0547" x="1133" y="574.0137"/><ellipse cx="1148" cy="596.3047" fill="#ADD1B2" rx="11" ry="11" style="stroke:#181818;stroke-width:1;"/><path d="M1150.7656,592.1797 Q1150.9219,591.9609 1151.1094,591.8516 Q1151.2969,591.7422 1151.5156,591.7422 Q1151.8906,591.7422 1152.125,592.0078 Q1152.3594,592.2578 1152.3594,592.8672 L1152.3594,594.3203 Q1152.3594,594.9297 1152.125,595.1953 Q1151.8906,595.4609 1151.5156,595.4609 Q1151.1719,595.4609 1150.9688,595.2578 Q1150.7656,595.0703 1150.6563,594.5547 Q1150.6094,594.1953 1150.4219,594.0078 Q1150.0938,593.6328 1149.4844,593.4141 Q1148.875,593.1953 1148.25,593.1953 Q1147.4844,593.1953 1146.8438,593.5234 Q1146.2188,593.8516 1145.7188,594.6016 Q1145.2344,595.3516 1145.2344,596.3828 L1145.2344,597.4766 Q1145.2344,598.7109 1146.125,599.5391 Q1147.0156,600.3516 1148.6094,600.3516 Q1149.5469,600.3516 1150.2031,600.1016 Q1150.5938,599.9453 1151.0156,599.5078 Q1151.2813,599.2422 1151.4219,599.1641 Q1151.5781,599.0859 1151.7813,599.0859 Q1152.1094,599.0859 1152.3594,599.3516 Q1152.625,599.6016 1152.625,599.9453 Q1152.625,600.2891 1152.2813,600.6953 Q1151.7813,601.2734 1150.9844,601.6016 Q1149.9063,602.0547 1148.6094,602.0547 Q1147.0938,602.0547 1145.8906,601.4297 Q1144.9063,600.9297 1144.2188,599.8672 Q1143.5313,598.7891 1143.5313,597.5078 L1143.5313,596.3516 Q1143.5313,595.0234 1144.1406,593.8828 Q1144.7656,592.7266 1145.8594,592.1172 Q1146.9531,591.4922 1148.1875,591.4922 Q1148.9219,591.4922 1149.5625,591.6641 Q1150.2188,591.8203 1150.7656,592.1797 Z " fill="#000000"/><text fill="#000000" font-family="sans-serif" font-size="12" font-style="italic" lengthAdjust="spacing" textLength="82.0547" x="1160" y="591.9629">&#171;Value Object&#187;</text><text fill="#000000" font-family="sans-serif" font-size="14" lengthAdjust="spacing" textLength="62.2412" x="1169.9067" y="610.082">Descricao</text><line style="stroke:#181818;stroke-width:0.5;" x1="1134" x2="1242.0547" y1="618.5957" y2="618.5957"/><line style="stroke:#181818;stroke-width:0.5;" x1="1134" x2="1242.0547" y1="626.5957" y2="626.5957"/></g><!--class Categoria--><g class="entity" data-entity="Categoria" data-source-line="51" data-uid="ent0023" id="entity_Categoria"><rect fill="#F1F1F1" height="76.543" rx="2.5" ry="2.5" style="stroke:#181818;stroke-width:0.5;" width="92.7031" x="1734.5" y="566.0137"/><ellipse cx="1749.5" cy="596.2852" fill="#ADD1B2" rx="11" ry="11" style="stroke:#181818;stroke-width:1;"/><path d="M1752.2656,592.1602 Q1752.4219,591.9414 1752.6094,591.832 Q1752.7969,591.7227 1753.0156,591.7227 Q1753.3906,591.7227 1753.625,591.9883 Q1753.8594,592.2383 1753.8594,592.8477 L1753.8594,594.3008 Q1753.8594,594.9102 1753.625,595.1758 Q1753.3906,595.4414 1753.0156,595.4414 Q1752.6719,595.4414 1752.4688,595.2383 Q1752.2656,595.0508 1752.1563,594.5352 Q1752.1094,594.1758 1751.9219,593.9883 Q1751.5938,593.6133 1750.9844,593.3945 Q1750.375,593.1758 1749.75,593.1758 Q1748.9844,593.1758 1748.3438,593.5039 Q1747.7188,593.832 1747.2188,594.582 Q1746.7344,595.332 1746.7344,596.3633 L1746.7344,597.457 Q1746.7344,598.6914 1747.625,599.5195 Q1748.5156,600.332 1750.1094,600.332 Q1751.0469,600.332 1751.7031,600.082 Q1752.0938,599.9258 1752.5156,599.4883 Q1752.7813,599.2227 1752.9219,599.1445 Q1753.0781,599.0664 1753.2813,599.0664 Q1753.6094,599.0664 1753.8594,599.332 Q1754.125,599.582 1754.125,599.9258 Q1754.125,600.2695 1753.7813,600.6758 Q1753.2813,601.2539 1752.4844,601.582 Q1751.4063,602.0352 1750.1094,602.0352 Q1748.5938,602.0352 1747.3906,601.4102 Q1746.4063,600.9102 1745.7188,599.8477 Q1745.0313,598.7695 1745.0313,597.4883 L1745.0313,596.332 Q1745.0313,595.0039 1745.6406,593.8633 Q1746.2656,592.707 1747.3594,592.0977 Q1748.4531,591.4727 1749.6875,591.4727 Q1750.4219,591.4727 1751.0625,591.6445 Q1751.7188,591.8008 1752.2656,592.1602 Z " fill="#000000"/><text fill="#000000" font-family="sans-serif" font-size="12" font-style="italic" lengthAdjust="spacing" textLength="43.3594" x="1772.1719" y="583.9629">&#171;Entity&#187;</text><text fill="#000000" font-family="sans-serif" font-size="12" font-style="italic" lengthAdjust="spacing" textLength="34.0254" x="1776.8389" y="599.9238">&#171;root&#187;</text><text fill="#000000" font-family="sans-serif" font-size="14" lengthAdjust="spacing" textLength="60.7031" x="1763.5" y="618.043">Categoria</text><line style="stroke:#181818;stroke-width:0.5;" x1="1735.5" x2="1826.2031" y1="626.5566" y2="626.5566"/><line style="stroke:#181818;stroke-width:0.5;" x1="1735.5" x2="1826.2031" y1="634.5566" y2="634.5566"/></g><!--class Nome--><g class="entity" data-entity="Nome" data-source-line="56" data-uid="ent0025" id="entity_Nome"><rect fill="#F1F1F1" height="60.582" rx="2.5" ry="2.5" style="stroke:#181818;stroke-width:0.5;" width="110.0547" x="913" y="886.0137"/><ellipse cx="928" cy="908.3047" fill="#ADD1B2" rx="11" ry="11" style="stroke:#181818;stroke-width:1;"/><path d="M930.7656,904.1797 Q930.9219,903.9609 931.1094,903.8516 Q931.2969,903.7422 931.5156,903.7422 Q931.8906,903.7422 932.125,904.0078 Q932.3594,904.2578 932.3594,904.8672 L932.3594,906.3203 Q932.3594,906.9297 932.125,907.1953 Q931.8906,907.4609 931.5156,907.4609 Q931.1719,907.4609 930.9688,907.2578 Q930.7656,907.0703 930.6563,906.5547 Q930.6094,906.1953 930.4219,906.0078 Q930.0938,905.6328 929.4844,905.4141 Q928.875,905.1953 928.25,905.1953 Q927.4844,905.1953 926.8438,905.5234 Q926.2188,905.8516 925.7188,906.6016 Q925.2344,907.3516 925.2344,908.3828 L925.2344,909.4766 Q925.2344,910.7109 926.125,911.5391 Q927.0156,912.3516 928.6094,912.3516 Q929.5469,912.3516 930.2031,912.1016 Q930.5938,911.9453 931.0156,911.5078 Q931.2813,911.2422 931.4219,911.1641 Q931.5781,911.0859 931.7813,911.0859 Q932.1094,911.0859 932.3594,911.3516 Q932.625,911.6016 932.625,911.9453 Q932.625,912.2891 932.2813,912.6953 Q931.7813,913.2734 930.9844,913.6016 Q929.9063,914.0547 928.6094,914.0547 Q927.0938,914.0547 925.8906,913.4297 Q924.9063,912.9297 924.2188,911.8672 Q923.5313,910.7891 923.5313,909.5078 L923.5313,908.3516 Q923.5313,907.0234 924.1406,905.8828 Q924.7656,904.7266 925.8594,904.1172 Q926.9531,903.4922 928.1875,903.4922 Q928.9219,903.4922 929.5625,903.6641 Q930.2188,903.8203 930.7656,904.1797 Z " fill="#000000"/><text fill="#000000" font-family="sans-serif" font-size="12" font-style="italic" lengthAdjust="spacing" textLength="82.0547" x="940" y="903.9629">&#171;Value Object&#187;</text><text fill="#000000" font-family="sans-serif" font-size="14" lengthAdjust="spacing" textLength="37.3447" x="962.355" y="922.082">Nome</text><line style="stroke:#181818;stroke-width:0.5;" x1="914" x2="1022.0547" y1="930.5957" y2="930.5957"/><line style="stroke:#181818;stroke-width:0.5;" x1="914" x2="1022.0547" y1="938.5957" y2="938.5957"/></g><!--class Dinheiro--><g class="entity" data-entity="Dinheiro" data-source-line="59" data-uid="ent0026" id="entity_Dinheiro"><rect fill="#F1F1F1" height="60.582" rx="2.5" ry="2.5" style="stroke:#181818;stroke-width:0.5;" width="110.0547" x="623" y="886.0137"/><ellipse cx="638" cy="908.3047" fill="#ADD1B2" rx="11" ry="11" style="stroke:#181818;stroke-width:1;"/><path d="M640.7656,904.1797 Q640.9219,903.9609 641.1094,903.8516 Q641.2969,903.7422 641.5156,903.7422 Q641.8906,903.7422 642.125,904.0078 Q642.3594,904.2578 642.3594,904.8672 L642.3594,906.3203 Q642.3594,906.9297 642.125,907.1953 Q641.8906,907.4609 641.5156,907.4609 Q641.1719,907.4609 640.9688,907.2578 Q640.7656,907.0703 640.6563,906.5547 Q640.6094,906.1953 640.4219,906.0078 Q640.0938,905.6328 639.4844,905.4141 Q638.875,905.1953 638.25,905.1953 Q637.4844,905.1953 636.8438,905.5234 Q636.2188,905.8516 635.7188,906.6016 Q635.2344,907.3516 635.2344,908.3828 L635.2344,909.4766 Q635.2344,910.7109 636.125,911.5391 Q637.0156,912.3516 638.6094,912.3516 Q639.5469,912.3516 640.2031,912.1016 Q640.5938,911.9453 641.0156,911.5078 Q641.2813,911.2422 641.4219,911.1641 Q641.5781,911.0859 641.7813,911.0859 Q642.1094,911.0859 642.3594,911.3516 Q642.625,911.6016 642.625,911.9453 Q642.625,912.2891 642.2813,912.6953 Q641.7813,913.2734 640.9844,913.6016 Q639.9063,914.0547 638.6094,914.0547 Q637.0938,914.0547 635.8906,913.4297 Q634.9063,912.9297 634.2188,911.8672 Q633.5313,910.7891 633.5313,909.5078 L633.5313,908.3516 Q633.5313,907.0234 634.1406,905.8828 Q634.7656,904.7266 635.8594,904.1172 Q636.9531,903.4922 638.1875,903.4922 Q638.9219,903.4922 639.5625,903.6641 Q640.2188,903.8203 640.7656,904.1797 Z " fill="#000000"/><text fill="#000000" font-family="sans-serif" font-size="12" font-style="italic" lengthAdjust="spacing" textLength="82.0547" x="650" y="903.9629">&#171;Value Object&#187;</text><text fill="#000000" font-family="sans-serif" font-size="14" lengthAdjust="spacing" textLength="52.1377" x="664.9585" y="922.082">Dinheiro</text><line style="stroke:#181818;stroke-width:0.5;" x1="624" x2="732.0547" y1="930.5957" y2="930.5957"/><line style="stroke:#181818;stroke-width:0.5;" x1="624" x2="732.0547" y1="938.5957" y2="938.5957"/></g><!--class Icon--><g class="entity" data-entity="Icon" data-source-line="62" data-uid="ent0027" id="entity_Icon"><rect fill="#F1F1F1" height="60.582" rx="2.5" ry="2.5" style="stroke:#181818;stroke-width:0.5;" width="110.0547" x="768" y="886.0137"/><ellipse cx="783" cy="908.3047" fill="#ADD1B2" rx="11" ry="11" style="stroke:#181818;stroke-width:1;"/><path d="M785.7656,904.1797 Q785.9219,903.9609 786.1094,903.8516 Q786.2969,903.7422 786.5156,903.7422 Q786.8906,903.7422 787.125,904.0078 Q787.3594,904.2578 787.3594,904.8672 L787.3594,906.3203 Q787.3594,906.9297 787.125,907.1953 Q786.8906,907.4609 786.5156,907.4609 Q786.1719,907.4609 785.9688,907.2578 Q785.7656,907.0703 785.6563,906.5547 Q785.6094,906.1953 785.4219,906.0078 Q785.0938,905.6328 784.4844,905.4141 Q783.875,905.1953 783.25,905.1953 Q782.4844,905.1953 781.8438,905.5234 Q781.2188,905.8516 780.7188,906.6016 Q780.2344,907.3516 780.2344,908.3828 L780.2344,909.4766 Q780.2344,910.7109 781.125,911.5391 Q782.0156,912.3516 783.6094,912.3516 Q784.5469,912.3516 785.2031,912.1016 Q785.5938,911.9453 786.0156,911.5078 Q786.2813,911.2422 786.4219,911.1641 Q786.5781,911.0859 786.7813,911.0859 Q787.1094,911.0859 787.3594,911.3516 Q787.625,911.6016 787.625,911.9453 Q787.625,912.2891 787.2813,912.6953 Q786.7813,913.2734 785.9844,913.6016 Q784.9063,914.0547 783.6094,914.0547 Q782.0938,914.0547 780.8906,913.4297 Q779.9063,912.9297 779.2188,911.8672 Q778.5313,910.7891 778.5313,909.5078 L778.5313,908.3516 Q778.5313,907.0234 779.1406,905.8828 Q779.7656,904.7266 780.8594,904.1172 Q781.9531,903.4922 783.1875,903.4922 Q783.9219,903.4922 784.5625,903.6641 Q785.2188,903.8203 785.7656,904.1797 Z " fill="#000000"/><text fill="#000000" font-family="sans-serif" font-size="12" font-style="italic" lengthAdjust="spacing" textLength="82.0547" x="795" y="903.9629">&#171;Value Object&#187;</text><text fill="#000000" font-family="sans-serif" font-size="14" lengthAdjust="spacing" textLength="26.4619" x="822.7964" y="922.082">Icon</text><line style="stroke:#181818;stroke-width:0.5;" x1="769" x2="877.0547" y1="930.5957" y2="930.5957"/><line style="stroke:#181818;stroke-width:0.5;" x1="769" x2="877.0547" y1="938.5957" y2="938.5957"/></g><!--link CartaoCredito to Periodo--><g class="link" data-entity-1="CartaoCredito" data-entity-2="Periodo" data-source-line="20" data-uid="lnk9" id="link_CartaoCredito_Periodo"><path codeLine="20" d="M872.64,163.1137 C873.6,207.1537 875.2597,283.4851 876.2197,327.6651" fill="none" id="CartaoCredito-to-Periodo" style="stroke:#181818;stroke-width:1;"/><polygon fill="#181818" points="876.35,333.6637,880.1535,324.5789,876.2414,328.6649,872.1554,324.7527,876.35,333.6637" style="stroke:#181818;stroke-width:1;"/><text fill="#000000" font-family="sans-serif" font-size="13" lengthAdjust="spacing" textLength="83.1099" x="874" y="210.042">define ciclo de</text><text fill="#000000" font-family="sans-serif" font-size="13" lengthAdjust="spacing" textLength="7.23" x="865.1023" y="184.663">1</text><text fill="#000000" font-family="sans-serif" font-size="13" lengthAdjust="spacing" textLength="7.23" x="868.5121" y="322.6492">1</text></g><!--link Transacao to Data--><g class="link" data-entity-1="Transacao" data-entity-2="Data" data-source-line="43" data-uid="lnk17" id="link_Transacao_Data"><path codeLine="43" d="M1276.53,403.2337 C1280.08,413.5037 1283.8,424.6437 1287,435.0137 C1301.9,483.2537 1315.3804,534.2115 1324.0404,568.0015" fill="none" id="Transacao-to-Data" style="stroke:#181818;stroke-width:1;"/><polygon fill="#181818" points="1325.53,573.8137,1327.1704,564.1024,1324.2887,568.9702,1319.4208,566.0885,1325.53,573.8137" style="stroke:#181818;stroke-width:1;"/><text fill="#000000" font-family="sans-serif" font-size="13" lengthAdjust="spacing" textLength="68.6372" x="1293" y="450.042">ocorrida em</text><text fill="#000000" font-family="sans-serif" font-size="13" lengthAdjust="spacing" textLength="7.23" x="1271.0724" y="424.5498">1</text><text fill="#000000" font-family="sans-serif" font-size="13" lengthAdjust="spacing" textLength="7.23" x="1316.2855" y="562.8301">1</text></g><!--link Transacao to Reembolso--><g class="link" data-entity-1="Transacao" data-entity-2="Reembolso" data-source-line="44" data-uid="lnk18" id="link_Transacao_Reembolso"><path codeLine="44" d="M1312.22,389.6337 C1342.49,406.4837 1380.27,431.4037 1406,462.0137 C1434.64,496.0937 1453.6386,537.8865 1465.3586,568.2365" fill="none" id="Transacao-to-Reembolso" style="stroke:#181818;stroke-width:1;"/><polygon fill="#181818" points="1467.52,573.8337,1468.0093,563.997,1465.7188,569.1694,1460.5464,566.8789,1467.52,573.8337" style="stroke:#181818;stroke-width:1;"/><text fill="#000000" font-family="sans-serif" font-size="13" lengthAdjust="spacing" textLength="75.8862" x="1397" y="450.042">pode originar</text><text fill="#000000" font-family="sans-serif" font-size="13" lengthAdjust="spacing" textLength="7.23" x="1320.2993" y="389.2642">1</text><text fill="#000000" font-family="sans-serif" font-size="13" lengthAdjust="spacing" textLength="21.6836" x="1442.2577" y="562.8542">0..1</text></g><!--link Transacao to Tipo--><g class="link" data-entity-1="Transacao" data-entity-2="Tipo" data-source-line="45" data-uid="lnk19" id="link_Transacao_Tipo"><path codeLine="45" d="M1312.02,369.9837 C1374.62,378.1237 1482.98,400.6337 1551,462.0137 C1584.66,492.3937 1602.9697,536.4365 1613.0597,568.1265" fill="none" id="Transacao-to-Tipo" style="stroke:#181818;stroke-width:1;"/><polygon fill="#181818" points="1614.88,573.8437,1615.961,564.0543,1613.3631,569.0793,1608.338,566.4814,1614.88,573.8437" style="stroke:#181818;stroke-width:1;"/><text fill="#000000" font-family="sans-serif" font-size="13" lengthAdjust="spacing" textLength="49.8735" x="1539" y="450.042">&#233; do tipo</text><text fill="#000000" font-family="sans-serif" font-size="13" lengthAdjust="spacing" textLength="7.23" x="1320.0687" y="366.6053">1</text><text fill="#000000" font-family="sans-serif" font-size="13" lengthAdjust="spacing" textLength="7.23" x="1605.5015" y="562.8663">1</text></g><!--link Transacao to Status--><g class="link" data-entity-1="Transacao" data-entity-2="Status" data-source-line="46" data-uid="lnk20" id="link_Transacao_Status"><path codeLine="46" d="M1213.61,373.3437 C1175.02,381.9937 1122.76,399.6837 1091,435.0137 C1055.93,474.0337 1046.7419,530.9878 1044.2019,567.8978" fill="none" id="Transacao-to-Status" style="stroke:#181818;stroke-width:1;"/><polygon fill="#181818" points="1043.79,573.8837,1048.3984,565.1795,1044.1333,568.8955,1040.4173,564.6303,1043.79,573.8837" style="stroke:#181818;stroke-width:1;"/><text fill="#000000" font-family="sans-serif" font-size="13" lengthAdjust="spacing" textLength="90.3208" x="1092" y="450.042">encontra-se em</text><text fill="#000000" font-family="sans-serif" font-size="13" lengthAdjust="spacing" textLength="7.23" x="1198.8481" y="370.4754">1</text><text fill="#000000" font-family="sans-serif" font-size="13" lengthAdjust="spacing" textLength="7.23" x="1036.2491" y="562.9145">1</text></g><!--link Transacao to Descricao--><g class="link" data-entity-1="Transacao" data-entity-2="Descricao" data-source-line="47" data-uid="lnk21" id="link_Transacao_Descricao"><path codeLine="47" d="M1219.13,403.1637 C1210.7,412.6637 1202.95,423.4737 1198,435.0137 C1178.52,480.3837 1179.7441,533.0643 1183.2741,567.8443" fill="none" id="Transacao-to-Descricao" style="stroke:#181818;stroke-width:1;"/><polygon fill="#181818" points="1183.88,573.8137,1186.9508,564.4558,1183.3751,568.8392,1178.9917,565.2636,1183.88,573.8137" style="stroke:#181818;stroke-width:1;"/><text fill="#000000" font-family="sans-serif" font-size="13" lengthAdjust="spacing" textLength="79.5107" x="1199" y="450.042">detalhada por</text><text fill="#000000" font-family="sans-serif" font-size="13" lengthAdjust="spacing" textLength="7.23" x="1204.883" y="424.4691">1</text><text fill="#000000" font-family="sans-serif" font-size="13" lengthAdjust="spacing" textLength="7.23" x="1175.3265" y="562.8301">1</text></g><!--link Conta to Transacao--><g class="link" data-entity-1="Conta" data-entity-2="Transacao" data-source-line="70" data-uid="lnk28" id="link_Conta_Transacao"><path codeLine="70" d="M644.72,329.6837 C679.9,298.0237 736.82,253.5037 796,235.0137 C947.18,187.7737 1123.4191,276.9069 1208.8291,329.0569" fill="none" id="Conta-to-Transacao" style="stroke:#181818;stroke-width:1;"/><polygon fill="#181818" points="1213.95,332.1837,1208.3532,324.0796,1209.6826,329.5781,1204.1842,330.9075,1213.95,332.1837" style="stroke:#181818;stroke-width:1;"/><text fill="#000000" font-family="sans-serif" font-size="13" lengthAdjust="spacing" textLength="39.019" x="722.5" y="210.042">regista</text><text fill="#000000" font-family="sans-serif" font-size="13" lengthAdjust="spacing" textLength="7.23" x="652.7958" y="317.8523">1</text><text fill="#000000" font-family="sans-serif" font-size="13" lengthAdjust="spacing" textLength="19.5127" x="1186.3775" y="323.27">0..*</text></g><!--link Conta to Icon--><g class="link" data-entity-1="Conta" data-entity-2="Icon" data-source-line="71" data-uid="lnk29" id="link_Conta_Icon"><path codeLine="71" d="M582.9,403.1637 C541.47,468.0337 471.36,602.6637 533,694.0137 C591.44,780.6237 673.14,712.3437 751,782.0137 C782.69,810.3737 801.0238,850.4361 811.7438,880.3161" fill="none" id="Conta-to-Icon" style="stroke:#181818;stroke-width:1;"/><polygon fill="#181818" points="813.77,885.9637,814.4958,876.1416,812.0815,881.2574,806.9657,878.8431,813.77,885.9637" style="stroke:#181818;stroke-width:1;"/><text fill="#000000" font-family="sans-serif" font-size="13" lengthAdjust="spacing" textLength="88.1689" x="534" y="690.042">identificada por</text><text fill="#000000" font-family="sans-serif" font-size="13" lengthAdjust="spacing" textLength="7.23" x="571.3576" y="424.4691">1</text><text fill="#000000" font-family="sans-serif" font-size="13" lengthAdjust="spacing" textLength="21.6836" x="814.1166" y="874.5273">0..1</text></g><!--link Conta to Dinheiro--><g class="link" data-entity-1="Conta" data-entity-2="Dinheiro" data-source-line="72" data-uid="lnk30" id="link_Conta_Dinheiro"><path codeLine="72" d="M573.26,384.1237 C552.6,396.3337 527.34,413.9337 510,435.0137 C438.34,522.1437 470.85,574.0037 407,667.0137 C404.15,671.1637 400.92,670.3637 399,675.0137 C395.77,682.8137 395.33,686.4137 399,694.0137 C445.33,789.9437 550.2546,854.3782 617.4646,888.0182" fill="none" id="Conta-to-Dinheiro" style="stroke:#181818;stroke-width:1;"/><polygon fill="#181818" points="622.83,890.7037,616.5722,883.0984,618.3588,888.4657,612.9915,890.2524,622.83,890.7037" style="stroke:#181818;stroke-width:1;"/><text fill="#000000" font-family="sans-serif" font-size="13" lengthAdjust="spacing" textLength="92.5107" x="400" y="690.042">apresenta saldo</text><text fill="#000000" font-family="sans-serif" font-size="13" lengthAdjust="spacing" textLength="7.23" x="558.1534" y="383.5206">1</text><text fill="#000000" font-family="sans-serif" font-size="13" lengthAdjust="spacing" textLength="7.23" x="607.5919" y="882.957">1</text></g><!--link Conta to Nome--><g class="link" data-entity-1="Conta" data-entity-2="Nome" data-source-line="73" data-uid="lnk31" id="link_Conta_Nome"><path codeLine="73" d="M604.27,403.0737 C598.62,464.6037 596.3,587.9337 655,667.0137 C725.73,762.3137 810.03,700.1937 896,782.0137 C926.61,811.1537 945.0387,850.6037 956.0987,880.1837" fill="none" id="Conta-to-Nome" style="stroke:#181818;stroke-width:1;"/><polygon fill="#181818" points="958.2,885.8037,958.7947,875.9728,956.4489,881.1203,951.3013,878.7746,958.2,885.8037" style="stroke:#181818;stroke-width:1;"/><text fill="#000000" font-family="sans-serif" font-size="13" lengthAdjust="spacing" textLength="95.3989" x="679" y="690.042">designada como</text><text fill="#000000" font-family="sans-serif" font-size="13" lengthAdjust="spacing" textLength="7.23" x="595.948" y="424.6618">1</text><text fill="#000000" font-family="sans-serif" font-size="13" lengthAdjust="spacing" textLength="7.23" x="948.475" y="874.818">1</text></g><!--link CartaoCredito to Icon--><g class="link" data-entity-1="CartaoCredito" data-entity-2="Icon" data-source-line="76" data-uid="lnk32" id="link_CartaoCredito_Icon"><path codeLine="76" d="M841.6,163.3437 C827.54,179.2737 812.36,200.0937 805,222.0137 C794.3,253.8737 815.6829,751.5796 821.4029,879.9396" fill="none" id="CartaoCredito-to-Icon" style="stroke:#181818;stroke-width:1;"/><polygon fill="#181818" points="821.67,885.9337,825.2654,876.7645,821.4474,880.9386,817.2733,877.1207,821.67,885.9337" style="stroke:#181818;stroke-width:1;"/><text fill="#000000" font-family="sans-serif" font-size="13" lengthAdjust="spacing" textLength="33.2363" x="813" y="610.042">utiliza</text><text fill="#000000" font-family="sans-serif" font-size="13" lengthAdjust="spacing" textLength="7.23" x="828.3569" y="184.6888">1</text><text fill="#000000" font-family="sans-serif" font-size="13" lengthAdjust="spacing" textLength="21.6836" x="823.6262" y="874.9749">0..1</text></g><!--link CartaoCredito to Conta--><g class="link" data-entity-1="CartaoCredito" data-entity-2="Conta" data-source-line="77" data-uid="lnk33" id="link_CartaoCredito_Conta"><path codeLine="77" d="M812.32,139.3337 C743.82,147.3837 637.72,164.4837 613,195.0137 C583.44,231.5137 588.0468,282.6237 596.5768,320.0537" fill="none" id="CartaoCredito-to-Conta" style="stroke:#181818;stroke-width:1;"/><polygon fill="#181818" points="597.91,325.9037,599.8103,316.2399,596.799,321.0287,592.0102,318.0174,597.91,325.9037" style="stroke:#181818;stroke-width:1;"/><text fill="#000000" font-family="sans-serif" font-size="13" lengthAdjust="spacing" textLength="57.0908" x="614" y="210.042">debita em</text><text fill="#000000" font-family="sans-serif" font-size="13" lengthAdjust="spacing" textLength="7.23" x="797.2301" y="136.1922">1</text><text fill="#000000" font-family="sans-serif" font-size="13" lengthAdjust="spacing" textLength="7.23" x="588.2996" y="314.6071">1</text></g><!--link CartaoCredito to Dinheiro--><g class="link" data-entity-1="CartaoCredito" data-entity-2="Dinheiro" data-source-line="78" data-uid="lnk34" id="link_CartaoCredito_Dinheiro"><path codeLine="78" d="M812.42,141.6837 C779.47,149.5337 741.04,164.9137 720,195.0137 C659.9,281.0037 642.58,587.4937 711,667.0137 C726.54,685.0737 748.46,656.9537 764,675.0137 C769.51,681.4137 765.55,685.7137 764,694.0137 C750.56,765.7837 717.2877,838.8343 696.3677,880.3943" fill="none" id="CartaoCredito-to-Dinheiro" style="stroke:#181818;stroke-width:1;"/><polygon fill="#181818" points="693.67,885.7537,701.2895,879.5132,695.9181,881.2876,694.1437,875.9162,693.67,885.7537" style="stroke:#181818;stroke-width:1;"/><text fill="#000000" font-family="sans-serif" font-size="13" lengthAdjust="spacing" textLength="84.5508" x="712" y="610.042">acumula gasto</text><text fill="#000000" font-family="sans-serif" font-size="13" lengthAdjust="spacing" textLength="7.23" x="797.3429" y="158.0214">1</text><text fill="#000000" font-family="sans-serif" font-size="13" lengthAdjust="spacing" textLength="7.23" x="689.1981" y="874.7577">1</text></g><!--link CartaoCredito to Nome--><g class="link" data-entity-1="CartaoCredito" data-entity-2="Nome" data-source-line="79" data-uid="lnk35" id="link_CartaoCredito_Nome"><path codeLine="79" d="M931.76,133.1837 C1160.68,133.4837 1969,149.7037 1969,363.5137 C1969,363.5137 1969,363.5137 1969,734.5137 C1969,831.4237 1239.0722,894.7513 1029.2222,910.9713" fill="none" id="CartaoCredito-to-Nome" style="stroke:#181818;stroke-width:1;"/><polygon fill="#181818" points="1023.24,911.4337,1032.5215,914.7282,1028.2251,911.0484,1031.905,906.752,1023.24,911.4337" style="stroke:#181818;stroke-width:1;"/><text fill="#000000" font-family="sans-serif" font-size="13" lengthAdjust="spacing" textLength="74.458" x="1970" y="610.042">apelidado de</text><text fill="#000000" font-family="sans-serif" font-size="13" lengthAdjust="spacing" textLength="7.23" x="939.4746" y="129.3009">1</text><text fill="#000000" font-family="sans-serif" font-size="13" lengthAdjust="spacing" textLength="7.23" x="1031.145" y="925.9692">1</text></g><!--link CartaoCredito to Transacao--><g class="link" data-entity-1="CartaoCredito" data-entity-2="Transacao" data-source-line="80" data-uid="lnk36" id="link_CartaoCredito_Transacao"><path codeLine="80" d="M922.32,163.1137 C997.7,207.4537 1133.8984,287.5715 1208.6284,331.5315" fill="none" id="CartaoCredito-to-Transacao" style="stroke:#181818;stroke-width:1;"/><polygon fill="#181818" points="1213.8,334.5737,1208.0708,326.5627,1209.4904,332.0385,1204.0145,333.4581,1213.8,334.5737" style="stroke:#181818;stroke-width:1;"/><text fill="#000000" font-family="sans-serif" font-size="13" lengthAdjust="spacing" textLength="39.0254" x="999" y="210.042">origina</text><text fill="#000000" font-family="sans-serif" font-size="13" lengthAdjust="spacing" textLength="7.23" x="924.2526" y="184.663">1</text><text fill="#000000" font-family="sans-serif" font-size="13" lengthAdjust="spacing" textLength="19.5127" x="1186.5712" y="345.6396">0..*</text></g><!--link Categoria to Icon--><g class="link" data-entity-1="Categoria" data-entity-2="Icon" data-source-line="83" data-uid="lnk37" id="link_Categoria_Icon"><path codeLine="83" d="M1736.45,643.1637 C1723.49,652.3537 1708.81,661.2037 1694,667.0137 C1668.96,676.8437 1660.65,671.3037 1634,675.0137 C1305.73,720.6937 1168.19,592.9137 896,782.0137 C860.42,806.7337 842.2602,848.837 832.5102,880.027" fill="none" id="Categoria-to-Icon" style="stroke:#181818;stroke-width:1;"/><polygon fill="#181818" points="830.72,885.7537,837.2231,878.357,832.2118,880.9814,829.5874,875.9701,830.72,885.7537" style="stroke:#181818;stroke-width:1;"/><text fill="#000000" font-family="sans-serif" font-size="13" lengthAdjust="spacing" textLength="71.5381" x="995" y="739.042">ilustrada por</text><text fill="#000000" font-family="sans-serif" font-size="13" lengthAdjust="spacing" textLength="7.23" x="1722.1327" y="664.4691">1</text><text fill="#000000" font-family="sans-serif" font-size="13" lengthAdjust="spacing" textLength="21.6836" x="806.9463" y="875.1383">0..1</text></g><!--link Categoria to Nome--><g class="link" data-entity-1="Categoria" data-entity-2="Nome" data-source-line="84" data-uid="lnk38" id="link_Categoria_Nome"><path codeLine="84" d="M1734.23,642.2337 C1721.62,651.1037 1707.67,660.0237 1694,667.0137 C1457.06,788.1337 1153.6943,870.0921 1029.2543,900.8921" fill="none" id="Categoria-to-Nome" style="stroke:#181818;stroke-width:1;"/><polygon fill="#181818" points="1023.43,902.3337,1033.1274,904.0542,1028.2835,901.1324,1031.2053,896.2885,1023.43,902.3337" style="stroke:#181818;stroke-width:1;"/><text fill="#000000" font-family="sans-serif" font-size="13" lengthAdjust="spacing" textLength="71.5571" x="1568" y="739.042">denominada</text><text fill="#000000" font-family="sans-serif" font-size="13" lengthAdjust="spacing" textLength="7.23" x="1719.2602" y="643.9785">1</text><text fill="#000000" font-family="sans-serif" font-size="13" lengthAdjust="spacing" textLength="7.23" x="1030.9916" y="896.5015">1</text></g><!--link Banco to Icon--><g class="link" data-entity-1="Banco" data-entity-2="Icon" data-source-line="87" data-uid="lnk39" id="link_Banco_Icon"><path codeLine="87" d="M250.1,163.3237 C227.44,206.1837 190,288.3537 190,363.5137 C190,363.5137 190,363.5137 190,734.5137 C190,797.0737 698.69,747.7137 751,782.0137 C787.34,805.8337 805.0572,848.6545 814.2672,880.1745" fill="none" id="Banco-to-Icon" style="stroke:#181818;stroke-width:1;"/><polygon fill="#181818" points="815.95,885.9337,817.2652,876.173,814.5477,881.1344,809.5863,878.4168,815.95,885.9337" style="stroke:#181818;stroke-width:1;"/><text fill="#000000" font-family="sans-serif" font-size="13" lengthAdjust="spacing" textLength="82.3735" x="191" y="610.042">ostenta marca</text><text fill="#000000" font-family="sans-serif" font-size="13" lengthAdjust="spacing" textLength="7.23" x="239.3879" y="184.6651">1</text><text fill="#000000" font-family="sans-serif" font-size="13" lengthAdjust="spacing" textLength="21.6836" x="791.3952" y="874.9749">0..1</text></g><!--link Banco to Conta--><g class="link" data-entity-1="Banco" data-entity-2="Conta" data-source-line="88" data-uid="lnk40" id="link_Banco_Conta"><path codeLine="88" d="M303.16,154.2037 C323.1,165.8337 348.17,180.8337 370,195.0137 C443.65,242.8637 522.0637,299.4425 568.3137,333.4025" fill="none" id="Banco-to-Conta" style="stroke:#181818;stroke-width:1;"/><polygon fill="#181818" points="573.15,336.9537,568.263,328.4028,569.1198,333.9944,563.5282,334.8512,573.15,336.9537" style="stroke:#181818;stroke-width:1;"/><text fill="#000000" font-family="sans-serif" font-size="13" lengthAdjust="spacing" textLength="48.4199" x="397" y="210.042">custodia</text><text fill="#000000" font-family="sans-serif" font-size="13" lengthAdjust="spacing" textLength="7.23" x="310.7711" y="153.8139">1</text><text fill="#000000" font-family="sans-serif" font-size="13" lengthAdjust="spacing" textLength="19.5127" x="546.0857" y="327.6254">1..*</text></g><!--link Banco to Nome--><g class="link" data-entity-1="Banco" data-entity-2="Nome" data-source-line="89" data-uid="lnk41" id="link_Banco_Nome"><path codeLine="89" d="M283.9,163.3237 C306.56,206.1837 344,288.3537 344,363.5137 C344,363.5137 344,363.5137 344,685.5137 C344,747.7737 845.46,745.6437 896,782.0137 C931.05,807.2437 948.9611,849.2034 958.5911,880.2234" fill="none" id="Banco-to-Nome" style="stroke:#181818;stroke-width:1;"/><polygon fill="#181818" points="960.37,885.9537,961.5218,876.1724,958.8876,881.1785,953.8815,878.5443,960.37,885.9537" style="stroke:#181818;stroke-width:1;"/><text fill="#000000" font-family="sans-serif" font-size="13" lengthAdjust="spacing" textLength="53.479" x="345" y="610.042">chamado</text><text fill="#000000" font-family="sans-serif" font-size="13" lengthAdjust="spacing" textLength="7.23" x="279.4198" y="184.6651">1</text><text fill="#000000" font-family="sans-serif" font-size="13" lengthAdjust="spacing" textLength="7.23" x="959.4857" y="874.5152">1</text></g><!--link Banco to Dinheiro--><g class="link" data-entity-1="Banco" data-entity-2="Dinheiro" data-source-line="90" data-uid="lnk42" id="link_Banco_Dinheiro"><path codeLine="90" d="M230.98,145.8837 C159.38,173.0237 6,244.9837 6,363.5137 C6,363.5137 6,363.5137 6,734.5137 C6,861.9037 455.9822,901.8615 616.7322,912.1215" fill="none" id="Banco-to-Dinheiro" style="stroke:#181818;stroke-width:1;"/><polygon fill="#181818" points="622.72,912.5037,613.9931,907.9385,617.7302,912.1852,613.4835,915.9223,622.72,912.5037" style="stroke:#181818;stroke-width:1;"/><text fill="#000000" font-family="sans-serif" font-size="13" lengthAdjust="spacing" textLength="112.0171" x="7" y="610.042">det&#233;m montante de</text><text fill="#000000" font-family="sans-serif" font-size="13" lengthAdjust="spacing" textLength="7.23" x="215.884" y="143.9895">1</text><text fill="#000000" font-family="sans-serif" font-size="13" lengthAdjust="spacing" textLength="7.23" x="607.8332" y="907.8986">1</text></g><!--link Transacao to Categoria--><g class="link" data-entity-1="Transacao" data-entity-2="Categoria" data-source-line="93" data-uid="lnk43" id="link_Transacao_Categoria"><path codeLine="93" d="M1312.27,371.3837 C1412.09,384.0937 1633.82,416.6937 1694,462.0137 C1729.13,488.4737 1750.9181,528.1081 1764.6981,560.2881" fill="none" id="Transacao-to-Categoria" style="stroke:#181818;stroke-width:1;"/><polygon fill="#181818" points="1767.06,565.8037,1767.1943,555.9557,1765.0918,561.2074,1759.8402,559.1049,1767.06,565.8037" style="stroke:#181818;stroke-width:1;"/><text fill="#000000" font-family="sans-serif" font-size="13" lengthAdjust="spacing" textLength="94.6689" x="1678" y="450.042">enquadra-se em</text><text fill="#000000" font-family="sans-serif" font-size="13" lengthAdjust="spacing" textLength="7.23" x="1320.0269" y="368.2275">1</text><text fill="#000000" font-family="sans-serif" font-size="13" lengthAdjust="spacing" textLength="7.23" x="1757.1078" y="554.7821">1</text></g><!--link Transacao to Dinheiro--><g class="link" data-entity-1="Transacao" data-entity-2="Dinheiro" data-source-line="94" data-uid="lnk44" id="link_Transacao_Dinheiro"><path codeLine="94" d="M1312.31,365.0537 C1441.83,365.0937 1785.74,373.6637 1844,462.0137 C1894.16,538.0737 1895.48,591.8437 1844,667.0137 C1791.21,744.1037 1739.44,723.8437 1648,743.0137 C1623.59,748.1337 772.17,768.8337 751,782.0137 C713.89,805.1237 695.9268,848.3827 686.6768,880.1627" fill="none" id="Transacao-to-Dinheiro" style="stroke:#181818;stroke-width:1;"/><polygon fill="#181818" points="685,885.9237,691.3558,878.4001,686.3973,881.1229,683.6746,876.1644,685,885.9237" style="stroke:#181818;stroke-width:1;"/><text fill="#000000" font-family="sans-serif" font-size="13" lengthAdjust="spacing" textLength="63.5781" x="1838" y="690.042">movimenta</text><text fill="#000000" font-family="sans-serif" font-size="13" lengthAdjust="spacing" textLength="7.23" x="1319.9256" y="359.664">1</text><text fill="#000000" font-family="sans-serif" font-size="13" lengthAdjust="spacing" textLength="7.23" x="678.74" y="874.9628">1</text></g><!--SRC=[ZLNBRjim4BphAnQ-12ZWeBqAhWzDUiYb3PAWzpMrbfcIN9Ma2gH5FYZVaHyhISbwsB8gNIIRezdPsOSg53-n95XzGICOLh3PO5bQAj7JTWj_CmYNKEWSD8ZDvglnqhzqXw_PQvPLHveRDXvdQHh4W6QpiSn-kvsaG-kHRomLqi-h6oDx-YFh07fFLd8HGJzGrGJVTyya_22XTBk21rBe9PiyaXTGq5uQSY2zWvrKIfeIn8jGbE0dIZ-jOBtUfdiRBcy9G4YXEFmO9VfaqJWKE9zaZvhnRu2_nMJrN9eDy858xrWvNeH-ajKouAD7Nxj5q5jomiecjVcoF9B6aBi0szR7mPxjqPluHm8E71qK8pgI0mksLXO8f2zXFrvVXyVEbnmgBWZOob8Qj3CHeZavlBz1w30VdcUWZJqvK1Wiuosk7SqeYkgF9iLcygWE67Aes9xCZASo2FtF67QeXQFuUC3Gt8dJfSSJmc-iQLcbfJcGjCiww2uuSnaOeDaLV0uNt1bFTdtVgWrBnf1ecYCUHrYpU4H_ahNBQb3o3wlU-JmqM2cTnn6kxuqeBGTPK71l7uhIbk8K7ClMPfm3LfOSHO13LV0KEFeOo-jaQIAdOCr9_cZ1ZDAOM3sdCcilbVo3sUKrbQJ4m3lfqs1SeXqd96fTAuGIdUUvLvgqi28Lvgv8- - -2bhCoj4FNc73ish41NSTFrqZLBepNiK0Jw87lXhMCniTmpITl6AhzJ4w6OUTJQJLQWIDaZ92oQaqMGGyN4i_eEXtYW3hOD0NepGyxuFrDWuwaeVsZfq7qO162iEpSsjAUR5Wob4slbSwHk8f-rLXqg-WKVoP1ys-fOzRPFm00]--></g></svg>