<svg xmlns="http://www.w3.org/2000/svg" xmlns:xlink="http://www.w3.org/1999/xlink" contentStyleType="text/css" data-diagram-type="CLASS" height="780px" preserveAspectRatio="none" style="width:1695px;height:780px;background:#FFFFFF;" version="1.1" viewBox="0 0 1695 780" width="1695px" zoomAndPan="magnify"><defs/><g><!--cluster Conta --><g class="cluster" data-entity="Conta " data-source-line="2" data-uid="ent0002" id="cluster_Conta "><path d="M8.5,6.0137 L53.0518,6.0137 A3.75,3.75 0 0 1 55.5518,8.5137 L62.5518,30.6348 L717.5,30.6348 A2.5,2.5 0 0 1 720,33.1348 L720,482.5137 A2.5,2.5 0 0 1 717.5,485.0137 L8.5,485.0137 A2.5,2.5 0 0 1 6,482.5137 L6,8.5137 A2.5,2.5 0 0 1 8.5,6.0137" fill="none" style="stroke:#000000;stroke-width:1.5;"/><line style="stroke:#000000;stroke-width:1.5;" x1="6" x2="62.5518" y1="30.6348" y2="30.6348"/><text fill="#000000" font-family="sans-serif" font-size="14" font-weight="bold" lengthAdjust="spacing" textLength="39.6621" x="10" y="23.1211">Conta</text><text fill="#000000" font-family="sans-serif" font-size="14" font-style="italic" lengthAdjust="spacing" textLength="78.627" x="327.6865" y="47.7422">&#171;aggregate&#187;</text></g><!--cluster Transacao --><g class="cluster" data-entity="Transacao " data-source-line="58" data-uid="ent0021" id="cluster_Transacao "><path d="M746.5,344.0137 L821.4238,344.0137 A3.75,3.75 0 0 1 823.9238,346.5137 L830.9238,368.6348 L1685.5,368.6348 A2.5,2.5 0 0 1 1688,371.1348 L1688,770.5137 A2.5,2.5 0 0 1 1685.5,773.0137 L746.5,773.0137 A2.5,2.5 0 0 1 744,770.5137 L744,346.5137 A2.5,2.5 0 0 1 746.5,344.0137" fill="none" style="stroke:#000000;stroke-width:1.5;"/><line style="stroke:#000000;stroke-width:1.5;" x1="744" x2="830.9238" y1="368.6348" y2="368.6348"/><text fill="#000000" font-family="sans-serif" font-size="14" font-weight="bold" lengthAdjust="spacing" textLength="70.0342" x="748" y="361.1211">Transacao</text><text fill="#000000" font-family="sans-serif" font-size="14" font-style="italic" lengthAdjust="spacing" textLength="78.627" x="1180.6865" y="385.7422">&#171;aggregate&#187;</text></g><!--class Conta--><g class="entity" data-entity="Conta" data-source-line="6" data-uid="ent0003" id="entity_Conta"><rect fill="#F1F1F1" height="76.543" rx="2.5" ry="2.5" style="stroke:#181818;stroke-width:0.5;" width="71.3594" x="353.5" y="202.0137"/><ellipse cx="368.5" cy="232.2852" fill="#ADD1B2" rx="11" ry="11" style="stroke:#181818;stroke-width:1;"/><path d="M371.2656,228.1602 Q371.4219,227.9414 371.6094,227.832 Q371.7969,227.7227 372.0156,227.7227 Q372.3906,227.7227 372.625,227.9883 Q372.8594,228.2383 372.8594,228.8477 L372.8594,230.3008 Q372.8594,230.9102 372.625,231.1758 Q372.3906,231.4414 372.0156,231.4414 Q371.6719,231.4414 371.4688,231.2383 Q371.2656,231.0508 371.1563,230.5352 Q371.1094,230.1758 370.9219,229.9883 Q370.5938,229.6133 369.9844,229.3945 Q369.375,229.1758 368.75,229.1758 Q367.9844,229.1758 367.3438,229.5039 Q366.7188,229.832 366.2188,230.582 Q365.7344,231.332 365.7344,232.3633 L365.7344,233.457 Q365.7344,234.6914 366.625,235.5195 Q367.5156,236.332 369.1094,236.332 Q370.0469,236.332 370.7031,236.082 Q371.0938,235.9258 371.5156,235.4883 Q371.7813,235.2227 371.9219,235.1445 Q372.0781,235.0664 372.2813,235.0664 Q372.6094,235.0664 372.8594,235.332 Q373.125,235.582 373.125,235.9258 Q373.125,236.2695 372.7813,236.6758 Q372.2813,237.2539 371.4844,237.582 Q370.4063,238.0352 369.1094,238.0352 Q367.5938,238.0352 366.3906,237.4102 Q365.4063,236.9102 364.7188,235.8477 Q364.0313,234.7695 364.0313,233.4883 L364.0313,232.332 Q364.0313,231.0039 364.6406,229.8633 Q365.2656,228.707 366.3594,228.0977 Q367.4531,227.4727 368.6875,227.4727 Q369.4219,227.4727 370.0625,227.6445 Q370.7188,227.8008 371.2656,228.1602 Z " fill="#000000"/><text fill="#000000" font-family="sans-serif" font-size="12" font-style="italic" lengthAdjust="spacing" textLength="43.3594" x="380.5" y="219.9629">&#171;Entity&#187;</text><text fill="#000000" font-family="sans-serif" font-size="12" font-style="italic" lengthAdjust="spacing" textLength="34.0254" x="385.167" y="235.9238">&#171;root&#187;</text><text fill="#000000" font-family="sans-serif" font-size="14" lengthAdjust="spacing" textLength="37.3584" x="383.5005" y="254.043">Conta</text><line style="stroke:#181818;stroke-width:0.5;" x1="354.5" x2="423.8594" y1="262.5566" y2="262.5566"/><line style="stroke:#181818;stroke-width:0.5;" x1="354.5" x2="423.8594" y1="270.5566" y2="270.5566"/></g><!--class CartaoCredito--><g class="entity" data-entity="CartaoCredito" data-source-line="10" data-uid="ent0004" id="entity_CartaoCredito"><rect fill="#F1F1F1" height="60.582" rx="2.5" ry="2.5" style="stroke:#181818;stroke-width:0.5;" width="119.1514" x="203.5" y="62.0137"/><ellipse cx="218.5" cy="84.3047" fill="#ADD1B2" rx="11" ry="11" style="stroke:#181818;stroke-width:1;"/><path d="M221.2656,80.1797 Q221.4219,79.9609 221.6094,79.8516 Q221.7969,79.7422 222.0156,79.7422 Q222.3906,79.7422 222.625,80.0078 Q222.8594,80.2578 222.8594,80.8672 L222.8594,82.3203 Q222.8594,82.9297 222.625,83.1953 Q222.3906,83.4609 222.0156,83.4609 Q221.6719,83.4609 221.4688,83.2578 Q221.2656,83.0703 221.1563,82.5547 Q221.1094,82.1953 220.9219,82.0078 Q220.5938,81.6328 219.9844,81.4141 Q219.375,81.1953 218.75,81.1953 Q217.9844,81.1953 217.3438,81.5234 Q216.7188,81.8516 216.2188,82.6016 Q215.7344,83.3516 215.7344,84.3828 L215.7344,85.4766 Q215.7344,86.7109 216.625,87.5391 Q217.5156,88.3516 219.1094,88.3516 Q220.0469,88.3516 220.7031,88.1016 Q221.0938,87.9453 221.5156,87.5078 Q221.7813,87.2422 221.9219,87.1641 Q222.0781,87.0859 222.2813,87.0859 Q222.6094,87.0859 222.8594,87.3516 Q223.125,87.6016 223.125,87.9453 Q223.125,88.2891 222.7813,88.6953 Q222.2813,89.2734 221.4844,89.6016 Q220.4063,90.0547 219.1094,90.0547 Q217.5938,90.0547 216.3906,89.4297 Q215.4063,88.9297 214.7188,87.8672 Q214.0313,86.7891 214.0313,85.5078 L214.0313,84.3516 Q214.0313,83.0234 214.6406,81.8828 Q215.2656,80.7266 216.3594,80.1172 Q217.4531,79.4922 218.6875,79.4922 Q219.4219,79.4922 220.0625,79.6641 Q220.7188,79.8203 221.2656,80.1797 Z " fill="#000000"/><text fill="#000000" font-family="sans-serif" font-size="12" font-style="italic" lengthAdjust="spacing" textLength="43.3594" x="254.396" y="79.9629">&#171;Entity&#187;</text><text fill="#000000" font-family="sans-serif" font-size="14" lengthAdjust="spacing" textLength="87.1514" x="232.5" y="98.082">CartaoCredito</text><line style="stroke:#181818;stroke-width:0.5;" x1="204.5" x2="321.6514" y1="106.5957" y2="106.5957"/><line style="stroke:#181818;stroke-width:0.5;" x1="204.5" x2="321.6514" y1="114.5957" y2="114.5957"/></g><!--class Banco--><g class="entity" data-entity="Banco" data-source-line="14" data-uid="ent0005" id="entity_Banco"><rect fill="#F1F1F1" height="60.582" rx="2.5" ry="2.5" style="stroke:#181818;stroke-width:0.5;" width="71.6963" x="459" y="62.0137"/><ellipse cx="474" cy="84.3047" fill="#ADD1B2" rx="11" ry="11" style="stroke:#181818;stroke-width:1;"/><path d="M476.7656,80.1797 Q476.9219,79.9609 477.1094,79.8516 Q477.2969,79.7422 477.5156,79.7422 Q477.8906,79.7422 478.125,80.0078 Q478.3594,80.2578 478.3594,80.8672 L478.3594,82.3203 Q478.3594,82.9297 478.125,83.1953 Q477.8906,83.4609 477.5156,83.4609 Q477.1719,83.4609 476.9688,83.2578 Q476.7656,83.0703 476.6563,82.5547 Q476.6094,82.1953 476.4219,82.0078 Q476.0938,81.6328 475.4844,81.4141 Q474.875,81.1953 474.25,81.1953 Q473.4844,81.1953 472.8438,81.5234 Q472.2188,81.8516 471.7188,82.6016 Q471.2344,83.3516 471.2344,84.3828 L471.2344,85.4766 Q471.2344,86.7109 472.125,87.5391 Q473.0156,88.3516 474.6094,88.3516 Q475.5469,88.3516 476.2031,88.1016 Q476.5938,87.9453 477.0156,87.5078 Q477.2813,87.2422 477.4219,87.1641 Q477.5781,87.0859 477.7813,87.0859 Q478.1094,87.0859 478.3594,87.3516 Q478.625,87.6016 478.625,87.9453 Q478.625,88.2891 478.2813,88.6953 Q477.7813,89.2734 476.9844,89.6016 Q475.9063,90.0547 474.6094,90.0547 Q473.0938,90.0547 471.8906,89.4297 Q470.9063,88.9297 470.2188,87.8672 Q469.5313,86.7891 469.5313,85.5078 L469.5313,84.3516 Q469.5313,83.0234 470.1406,81.8828 Q470.7656,80.7266 471.8594,80.1172 Q472.9531,79.4922 474.1875,79.4922 Q474.9219,79.4922 475.5625,79.6641 Q476.2188,79.8203 476.7656,80.1797 Z " fill="#000000"/><text fill="#000000" font-family="sans-serif" font-size="12" font-style="italic" lengthAdjust="spacing" textLength="43.3594" x="486.1685" y="79.9629">&#171;Entity&#187;</text><text fill="#000000" font-family="sans-serif" font-size="14" lengthAdjust="spacing" textLength="39.6963" x="488" y="98.082">Banco</text><line style="stroke:#181818;stroke-width:0.5;" x1="460" x2="529.6963" y1="106.5957" y2="106.5957"/><line style="stroke:#181818;stroke-width:0.5;" x1="460" x2="529.6963" y1="114.5957" y2="114.5957"/></g><!--class Nome--><g class="entity" data-entity="Nome" data-source-line="21" data-uid="ent0006" id="entity_Nome"><rect fill="#F1F1F1" height="60.582" rx="2.5" ry="2.5" style="stroke:#181818;stroke-width:0.5;" width="110.0547" x="334" y="408.0137"/><ellipse cx="349" cy="430.3047" fill="#ADD1B2" rx="11" ry="11" style="stroke:#181818;stroke-width:1;"/><path d="M351.7656,426.1797 Q351.9219,425.9609 352.1094,425.8516 Q352.2969,425.7422 352.5156,425.7422 Q352.8906,425.7422 353.125,426.0078 Q353.3594,426.2578 353.3594,426.8672 L353.3594,428.3203 Q353.3594,428.9297 353.125,429.1953 Q352.8906,429.4609 352.5156,429.4609 Q352.1719,429.4609 351.9688,429.2578 Q351.7656,429.0703 351.6563,428.5547 Q351.6094,428.1953 351.4219,428.0078 Q351.0938,427.6328 350.4844,427.4141 Q349.875,427.1953 349.25,427.1953 Q348.4844,427.1953 347.8438,427.5234 Q347.2188,427.8516 346.7188,428.6016 Q346.2344,429.3516 346.2344,430.3828 L346.2344,431.4766 Q346.2344,432.7109 347.125,433.5391 Q348.0156,434.3516 349.6094,434.3516 Q350.5469,434.3516 351.2031,434.1016 Q351.5938,433.9453 352.0156,433.5078 Q352.2813,433.2422 352.4219,433.1641 Q352.5781,433.0859 352.7813,433.0859 Q353.1094,433.0859 353.3594,433.3516 Q353.625,433.6016 353.625,433.9453 Q353.625,434.2891 353.2813,434.6953 Q352.7813,435.2734 351.9844,435.6016 Q350.9063,436.0547 349.6094,436.0547 Q348.0938,436.0547 346.8906,435.4297 Q345.9063,434.9297 345.2188,433.8672 Q344.5313,432.7891 344.5313,431.5078 L344.5313,430.3516 Q344.5313,429.0234 345.1406,427.8828 Q345.7656,426.7266 346.8594,426.1172 Q347.9531,425.4922 349.1875,425.4922 Q349.9219,425.4922 350.5625,425.6641 Q351.2188,425.8203 351.7656,426.1797 Z " fill="#000000"/><text fill="#000000" font-family="sans-serif" font-size="12" font-style="italic" lengthAdjust="spacing" textLength="82.0547" x="361" y="425.9629">&#171;Value Object&#187;</text><text fill="#000000" font-family="sans-serif" font-size="14" lengthAdjust="spacing" textLength="37.3447" x="383.355" y="444.082">Nome</text><line style="stroke:#181818;stroke-width:0.5;" x1="335" x2="443.0547" y1="452.5957" y2="452.5957"/><line style="stroke:#181818;stroke-width:0.5;" x1="335" x2="443.0547" y1="460.5957" y2="460.5957"/></g><!--class Total--><g class="entity" data-entity="Total" data-source-line="25" data-uid="ent0007" id="entity_Total"><rect fill="#F1F1F1" height="60.582" rx="2.5" ry="2.5" style="stroke:#181818;stroke-width:0.5;" width="110.0547" x="533" y="408.0137"/><ellipse cx="548" cy="430.3047" fill="#ADD1B2" rx="11" ry="11" style="stroke:#181818;stroke-width:1;"/><path d="M550.7656,426.1797 Q550.9219,425.9609 551.1094,425.8516 Q551.2969,425.7422 551.5156,425.7422 Q551.8906,425.7422 552.125,426.0078 Q552.3594,426.2578 552.3594,426.8672 L552.3594,428.3203 Q552.3594,428.9297 552.125,429.1953 Q551.8906,429.4609 551.5156,429.4609 Q551.1719,429.4609 550.9688,429.2578 Q550.7656,429.0703 550.6563,428.5547 Q550.6094,428.1953 550.4219,428.0078 Q550.0938,427.6328 549.4844,427.4141 Q548.875,427.1953 548.25,427.1953 Q547.4844,427.1953 546.8438,427.5234 Q546.2188,427.8516 545.7188,428.6016 Q545.2344,429.3516 545.2344,430.3828 L545.2344,431.4766 Q545.2344,432.7109 546.125,433.5391 Q547.0156,434.3516 548.6094,434.3516 Q549.5469,434.3516 550.2031,434.1016 Q550.5938,433.9453 551.0156,433.5078 Q551.2813,433.2422 551.4219,433.1641 Q551.5781,433.0859 551.7813,433.0859 Q552.1094,433.0859 552.3594,433.3516 Q552.625,433.6016 552.625,433.9453 Q552.625,434.2891 552.2813,434.6953 Q551.7813,435.2734 550.9844,435.6016 Q549.9063,436.0547 548.6094,436.0547 Q547.0938,436.0547 545.8906,435.4297 Q544.9063,434.9297 544.2188,433.8672 Q543.5313,432.7891 543.5313,431.5078 L543.5313,430.3516 Q543.5313,429.0234 544.1406,427.8828 Q544.7656,426.7266 545.8594,426.1172 Q546.9531,425.4922 548.1875,425.4922 Q548.9219,425.4922 549.5625,425.6641 Q550.2188,425.8203 550.7656,426.1797 Z " fill="#000000"/><text fill="#000000" font-family="sans-serif" font-size="12" font-style="italic" lengthAdjust="spacing" textLength="82.0547" x="560" y="425.9629">&#171;Value Object&#187;</text><text fill="#000000" font-family="sans-serif" font-size="14" lengthAdjust="spacing" textLength="31.124" x="585.4653" y="444.082">Total</text><line style="stroke:#181818;stroke-width:0.5;" x1="534" x2="642.0547" y1="452.5957" y2="452.5957"/><line style="stroke:#181818;stroke-width:0.5;" x1="534" x2="642.0547" y1="460.5957" y2="460.5957"/></g><!--class ValorInicial--><g class="entity" data-entity="ValorInicial" data-source-line="29" data-uid="ent0008" id="entity_ValorInicial"><rect fill="#F1F1F1" height="60.582" rx="2.5" ry="2.5" style="stroke:#181818;stroke-width:0.5;" width="110.0547" x="106" y="408.0137"/><ellipse cx="121" cy="430.3047" fill="#ADD1B2" rx="11" ry="11" style="stroke:#181818;stroke-width:1;"/><path d="M123.7656,426.1797 Q123.9219,425.9609 124.1094,425.8516 Q124.2969,425.7422 124.5156,425.7422 Q124.8906,425.7422 125.125,426.0078 Q125.3594,426.2578 125.3594,426.8672 L125.3594,428.3203 Q125.3594,428.9297 125.125,429.1953 Q124.8906,429.4609 124.5156,429.4609 Q124.1719,429.4609 123.9688,429.2578 Q123.7656,429.0703 123.6563,428.5547 Q123.6094,428.1953 123.4219,428.0078 Q123.0938,427.6328 122.4844,427.4141 Q121.875,427.1953 121.25,427.1953 Q120.4844,427.1953 119.8438,427.5234 Q119.2188,427.8516 118.7188,428.6016 Q118.2344,429.3516 118.2344,430.3828 L118.2344,431.4766 Q118.2344,432.7109 119.125,433.5391 Q120.0156,434.3516 121.6094,434.3516 Q122.5469,434.3516 123.2031,434.1016 Q123.5938,433.9453 124.0156,433.5078 Q124.2813,433.2422 124.4219,433.1641 Q124.5781,433.0859 124.7813,433.0859 Q125.1094,433.0859 125.3594,433.3516 Q125.625,433.6016 125.625,433.9453 Q125.625,434.2891 125.2813,434.6953 Q124.7813,435.2734 123.9844,435.6016 Q122.9063,436.0547 121.6094,436.0547 Q120.0938,436.0547 118.8906,435.4297 Q117.9063,434.9297 117.2188,433.8672 Q116.5313,432.7891 116.5313,431.5078 L116.5313,430.3516 Q116.5313,429.0234 117.1406,427.8828 Q117.7656,426.7266 118.8594,426.1172 Q119.9531,425.4922 121.1875,425.4922 Q121.9219,425.4922 122.5625,425.6641 Q123.2188,425.8203 123.7656,426.1797 Z " fill="#000000"/><text fill="#000000" font-family="sans-serif" font-size="12" font-style="italic" lengthAdjust="spacing" textLength="82.0547" x="133" y="425.9629">&#171;Value Object&#187;</text><text fill="#000000" font-family="sans-serif" font-size="14" lengthAdjust="spacing" textLength="68.4756" x="139.7896" y="444.082">ValorInicial</text><line style="stroke:#181818;stroke-width:0.5;" x1="107" x2="215.0547" y1="452.5957" y2="452.5957"/><line style="stroke:#181818;stroke-width:0.5;" x1="107" x2="215.0547" y1="460.5957" y2="460.5957"/></g><!--class Periodo--><g class="entity" data-entity="Periodo" data-source-line="33" data-uid="ent0009" id="entity_Periodo"><rect fill="#F1F1F1" height="60.582" rx="2.5" ry="2.5" style="stroke:#181818;stroke-width:0.5;" width="110.0547" x="208" y="210.0137"/><ellipse cx="223" cy="232.3047" fill="#ADD1B2" rx="11" ry="11" style="stroke:#181818;stroke-width:1;"/><path d="M225.7656,228.1797 Q225.9219,227.9609 226.1094,227.8516 Q226.2969,227.7422 226.5156,227.7422 Q226.8906,227.7422 227.125,228.0078 Q227.3594,228.2578 227.3594,228.8672 L227.3594,230.3203 Q227.3594,230.9297 227.125,231.1953 Q226.8906,231.4609 226.5156,231.4609 Q226.1719,231.4609 225.9688,231.2578 Q225.7656,231.0703 225.6563,230.5547 Q225.6094,230.1953 225.4219,230.0078 Q225.0938,229.6328 224.4844,229.4141 Q223.875,229.1953 223.25,229.1953 Q222.4844,229.1953 221.8438,229.5234 Q221.2188,229.8516 220.7188,230.6016 Q220.2344,231.3516 220.2344,232.3828 L220.2344,233.4766 Q220.2344,234.7109 221.125,235.5391 Q222.0156,236.3516 223.6094,236.3516 Q224.5469,236.3516 225.2031,236.1016 Q225.5938,235.9453 226.0156,235.5078 Q226.2813,235.2422 226.4219,235.1641 Q226.5781,235.0859 226.7813,235.0859 Q227.1094,235.0859 227.3594,235.3516 Q227.625,235.6016 227.625,235.9453 Q227.625,236.2891 227.2813,236.6953 Q226.7813,237.2734 225.9844,237.6016 Q224.9063,238.0547 223.6094,238.0547 Q222.0938,238.0547 220.8906,237.4297 Q219.9063,236.9297 219.2188,235.8672 Q218.5313,234.7891 218.5313,233.5078 L218.5313,232.3516 Q218.5313,231.0234 219.1406,229.8828 Q219.7656,228.7266 220.8594,228.1172 Q221.9531,227.4922 223.1875,227.4922 Q223.9219,227.4922 224.5625,227.6641 Q225.2188,227.8203 225.7656,228.1797 Z " fill="#000000"/><text fill="#000000" font-family="sans-serif" font-size="12" font-style="italic" lengthAdjust="spacing" textLength="82.0547" x="235" y="227.9629">&#171;Value Object&#187;</text><text fill="#000000" font-family="sans-serif" font-size="14" lengthAdjust="spacing" textLength="48.2549" x="251.8999" y="246.082">Periodo</text><line style="stroke:#181818;stroke-width:0.5;" x1="209" x2="317.0547" y1="254.5957" y2="254.5957"/><line style="stroke:#181818;stroke-width:0.5;" x1="209" x2="317.0547" y1="262.5957" y2="262.5957"/></g><!--class Transacao--><g class="entity" data-entity="Transacao" data-source-line="62" data-uid="ent0022" id="entity_Transacao"><rect fill="#F1F1F1" height="76.543" rx="2.5" ry="2.5" style="stroke:#181818;stroke-width:0.5;" width="98.1445" x="1126" y="400.0137"/><ellipse cx="1141" cy="430.2852" fill="#ADD1B2" rx="11" ry="11" style="stroke:#181818;stroke-width:1;"/><path d="M1143.7656,426.1602 Q1143.9219,425.9414 1144.1094,425.832 Q1144.2969,425.7227 1144.5156,425.7227 Q1144.8906,425.7227 1145.125,425.9883 Q1145.3594,426.2383 1145.3594,426.8477 L1145.3594,428.3008 Q1145.3594,428.9102 1145.125,429.1758 Q1144.8906,429.4414 1144.5156,429.4414 Q1144.1719,429.4414 1143.9688,429.2383 Q1143.7656,429.0508 1143.6563,428.5352 Q1143.6094,428.1758 1143.4219,427.9883 Q1143.0938,427.6133 1142.4844,427.3945 Q1141.875,427.1758 1141.25,427.1758 Q1140.4844,427.1758 1139.8438,427.5039 Q1139.2188,427.832 1138.7188,428.582 Q1138.2344,429.332 1138.2344,430.3633 L1138.2344,431.457 Q1138.2344,432.6914 1139.125,433.5195 Q1140.0156,434.332 1141.6094,434.332 Q1142.5469,434.332 1143.2031,434.082 Q1143.5938,433.9258 1144.0156,433.4883 Q1144.2813,433.2227 1144.4219,433.1445 Q1144.5781,433.0664 1144.7813,433.0664 Q1145.1094,433.0664 1145.3594,433.332 Q1145.625,433.582 1145.625,433.9258 Q1145.625,434.2695 1145.2813,434.6758 Q1144.7813,435.2539 1143.9844,435.582 Q1142.9063,436.0352 1141.6094,436.0352 Q1140.0938,436.0352 1138.8906,435.4102 Q1137.9063,434.9102 1137.2188,433.8477 Q1136.5313,432.7695 1136.5313,431.4883 L1136.5313,430.332 Q1136.5313,429.0039 1137.1406,427.8633 Q1137.7656,426.707 1138.8594,426.0977 Q1139.9531,425.4727 1141.1875,425.4727 Q1141.9219,425.4727 1142.5625,425.6445 Q1143.2188,425.8008 1143.7656,426.1602 Z " fill="#000000"/><text fill="#000000" font-family="sans-serif" font-size="12" font-style="italic" lengthAdjust="spacing" textLength="43.3594" x="1166.3926" y="417.9629">&#171;Entity&#187;</text><text fill="#000000" font-family="sans-serif" font-size="12" font-style="italic" lengthAdjust="spacing" textLength="34.0254" x="1171.0596" y="433.9238">&#171;root&#187;</text><text fill="#000000" font-family="sans-serif" font-size="14" lengthAdjust="spacing" textLength="66.1445" x="1155" y="452.043">Transacao</text><line style="stroke:#181818;stroke-width:0.5;" x1="1127" x2="1223.1445" y1="460.5566" y2="460.5566"/><line style="stroke:#181818;stroke-width:0.5;" x1="1127" x2="1223.1445" y1="468.5566" y2="468.5566"/></g><!--class Categoria--><g class="entity" data-entity="Categoria" data-source-line="66" data-uid="ent0023" id="entity_Categoria"><rect fill="#F1F1F1" height="60.582" rx="2.5" ry="2.5" style="stroke:#181818;stroke-width:0.5;" width="92.7031" x="760.5" y="556.0137"/><ellipse cx="775.5" cy="578.3047" fill="#ADD1B2" rx="11" ry="11" style="stroke:#181818;stroke-width:1;"/><path d="M778.2656,574.1797 Q778.4219,573.9609 778.6094,573.8516 Q778.7969,573.7422 779.0156,573.7422 Q779.3906,573.7422 779.625,574.0078 Q779.8594,574.2578 779.8594,574.8672 L779.8594,576.3203 Q779.8594,576.9297 779.625,577.1953 Q779.3906,577.4609 779.0156,577.4609 Q778.6719,577.4609 778.4688,577.2578 Q778.2656,577.0703 778.1563,576.5547 Q778.1094,576.1953 777.9219,576.0078 Q777.5938,575.6328 776.9844,575.4141 Q776.375,575.1953 775.75,575.1953 Q774.9844,575.1953 774.3438,575.5234 Q773.7188,575.8516 773.2188,576.6016 Q772.7344,577.3516 772.7344,578.3828 L772.7344,579.4766 Q772.7344,580.7109 773.625,581.5391 Q774.5156,582.3516 776.1094,582.3516 Q777.0469,582.3516 777.7031,582.1016 Q778.0938,581.9453 778.5156,581.5078 Q778.7813,581.2422 778.9219,581.1641 Q779.0781,581.0859 779.2813,581.0859 Q779.6094,581.0859 779.8594,581.3516 Q780.125,581.6016 780.125,581.9453 Q780.125,582.2891 779.7813,582.6953 Q779.2813,583.2734 778.4844,583.6016 Q777.4063,584.0547 776.1094,584.0547 Q774.5938,584.0547 773.3906,583.4297 Q772.4063,582.9297 771.7188,581.8672 Q771.0313,580.7891 771.0313,579.5078 L771.0313,578.3516 Q771.0313,577.0234 771.6406,575.8828 Q772.2656,574.7266 773.3594,574.1172 Q774.4531,573.4922 775.6875,573.4922 Q776.4219,573.4922 777.0625,573.6641 Q777.7188,573.8203 778.2656,574.1797 Z " fill="#000000"/><text fill="#000000" font-family="sans-serif" font-size="12" font-style="italic" lengthAdjust="spacing" textLength="43.3594" x="798.1719" y="573.9629">&#171;Entity&#187;</text><text fill="#000000" font-family="sans-serif" font-size="14" lengthAdjust="spacing" textLength="60.7031" x="789.5" y="592.082">Categoria</text><line style="stroke:#181818;stroke-width:0.5;" x1="761.5" x2="852.2031" y1="600.5957" y2="600.5957"/><line style="stroke:#181818;stroke-width:0.5;" x1="761.5" x2="852.2031" y1="608.5957" y2="608.5957"/></g><!--class Data--><g class="entity" data-entity="Data" data-source-line="72" data-uid="ent0024" id="entity_Data"><rect fill="#F1F1F1" height="60.582" rx="2.5" ry="2.5" style="stroke:#181818;stroke-width:0.5;" width="110.0547" x="889" y="556.0137"/><ellipse cx="904" cy="578.3047" fill="#ADD1B2" rx="11" ry="11" style="stroke:#181818;stroke-width:1;"/><path d="M906.7656,574.1797 Q906.9219,573.9609 907.1094,573.8516 Q907.2969,573.7422 907.5156,573.7422 Q907.8906,573.7422 908.125,574.0078 Q908.3594,574.2578 908.3594,574.8672 L908.3594,576.3203 Q908.3594,576.9297 908.125,577.1953 Q907.8906,577.4609 907.5156,577.4609 Q907.1719,577.4609 906.9688,577.2578 Q906.7656,577.0703 906.6563,576.5547 Q906.6094,576.1953 906.4219,576.0078 Q906.0938,575.6328 905.4844,575.4141 Q904.875,575.1953 904.25,575.1953 Q903.4844,575.1953 902.8438,575.5234 Q902.2188,575.8516 901.7188,576.6016 Q901.2344,577.3516 901.2344,578.3828 L901.2344,579.4766 Q901.2344,580.7109 902.125,581.5391 Q903.0156,582.3516 904.6094,582.3516 Q905.5469,582.3516 906.2031,582.1016 Q906.5938,581.9453 907.0156,581.5078 Q907.2813,581.2422 907.4219,581.1641 Q907.5781,581.0859 907.7813,581.0859 Q908.1094,581.0859 908.3594,581.3516 Q908.625,581.6016 908.625,581.9453 Q908.625,582.2891 908.2813,582.6953 Q907.7813,583.2734 906.9844,583.6016 Q905.9063,584.0547 904.6094,584.0547 Q903.0938,584.0547 901.8906,583.4297 Q900.9063,582.9297 900.2188,581.8672 Q899.5313,580.7891 899.5313,579.5078 L899.5313,578.3516 Q899.5313,577.0234 900.1406,575.8828 Q900.7656,574.7266 901.8594,574.1172 Q902.9531,573.4922 904.1875,573.4922 Q904.9219,573.4922 905.5625,573.6641 Q906.2188,573.8203 906.7656,574.1797 Z " fill="#000000"/><text fill="#000000" font-family="sans-serif" font-size="12" font-style="italic" lengthAdjust="spacing" textLength="82.0547" x="916" y="573.9629">&#171;Value Object&#187;</text><text fill="#000000" font-family="sans-serif" font-size="14" lengthAdjust="spacing" textLength="29.5723" x="942.2412" y="592.082">Data</text><line style="stroke:#181818;stroke-width:0.5;" x1="890" x2="998.0547" y1="600.5957" y2="600.5957"/><line style="stroke:#181818;stroke-width:0.5;" x1="890" x2="998.0547" y1="608.5957" y2="608.5957"/></g><!--class Dinheiro--><g class="entity" data-entity="Dinheiro" data-source-line="76" data-uid="ent0025" id="entity_Dinheiro"><rect fill="#F1F1F1" height="60.582" rx="2.5" ry="2.5" style="stroke:#181818;stroke-width:0.5;" width="110.0547" x="1034" y="556.0137"/><ellipse cx="1049" cy="578.3047" fill="#ADD1B2" rx="11" ry="11" style="stroke:#181818;stroke-width:1;"/><path d="M1051.7656,574.1797 Q1051.9219,573.9609 1052.1094,573.8516 Q1052.2969,573.7422 1052.5156,573.7422 Q1052.8906,573.7422 1053.125,574.0078 Q1053.3594,574.2578 1053.3594,574.8672 L1053.3594,576.3203 Q1053.3594,576.9297 1053.125,577.1953 Q1052.8906,577.4609 1052.5156,577.4609 Q1052.1719,577.4609 1051.9688,577.2578 Q1051.7656,577.0703 1051.6563,576.5547 Q1051.6094,576.1953 1051.4219,576.0078 Q1051.0938,575.6328 1050.4844,575.4141 Q1049.875,575.1953 1049.25,575.1953 Q1048.4844,575.1953 1047.8438,575.5234 Q1047.2188,575.8516 1046.7188,576.6016 Q1046.2344,577.3516 1046.2344,578.3828 L1046.2344,579.4766 Q1046.2344,580.7109 1047.125,581.5391 Q1048.0156,582.3516 1049.6094,582.3516 Q1050.5469,582.3516 1051.2031,582.1016 Q1051.5938,581.9453 1052.0156,581.5078 Q1052.2813,581.2422 1052.4219,581.1641 Q1052.5781,581.0859 1052.7813,581.0859 Q1053.1094,581.0859 1053.3594,581.3516 Q1053.625,581.6016 1053.625,581.9453 Q1053.625,582.2891 1053.2813,582.6953 Q1052.7813,583.2734 1051.9844,583.6016 Q1050.9063,584.0547 1049.6094,584.0547 Q1048.0938,584.0547 1046.8906,583.4297 Q1045.9063,582.9297 1045.2188,581.8672 Q1044.5313,580.7891 1044.5313,579.5078 L1044.5313,578.3516 Q1044.5313,577.0234 1045.1406,575.8828 Q1045.7656,574.7266 1046.8594,574.1172 Q1047.9531,573.4922 1049.1875,573.4922 Q1049.9219,573.4922 1050.5625,573.6641 Q1051.2188,573.8203 1051.7656,574.1797 Z " fill="#000000"/><text fill="#000000" font-family="sans-serif" font-size="12" font-style="italic" lengthAdjust="spacing" textLength="82.0547" x="1061" y="573.9629">&#171;Value Object&#187;</text><text fill="#000000" font-family="sans-serif" font-size="14" lengthAdjust="spacing" textLength="52.1377" x="1075.9585" y="592.082">Dinheiro</text><line style="stroke:#181818;stroke-width:0.5;" x1="1035" x2="1143.0547" y1="600.5957" y2="600.5957"/><line style="stroke:#181818;stroke-width:0.5;" x1="1035" x2="1143.0547" y1="608.5957" y2="608.5957"/></g><!--class Descricao--><g class="entity" data-entity="Descricao" data-source-line="80" data-uid="ent0026" id="entity_Descricao"><rect fill="#F1F1F1" height="60.582" rx="2.5" ry="2.5" style="stroke:#181818;stroke-width:0.5;" width="110.0547" x="959" y="696.0137"/><ellipse cx="974" cy="718.3047" fill="#ADD1B2" rx="11" ry="11" style="stroke:#181818;stroke-width:1;"/><path d="M976.7656,714.1797 Q976.9219,713.9609 977.1094,713.8516 Q977.2969,713.7422 977.5156,713.7422 Q977.8906,713.7422 978.125,714.0078 Q978.3594,714.2578 978.3594,714.8672 L978.3594,716.3203 Q978.3594,716.9297 978.125,717.1953 Q977.8906,717.4609 977.5156,717.4609 Q977.1719,717.4609 976.9688,717.2578 Q976.7656,717.0703 976.6563,716.5547 Q976.6094,716.1953 976.4219,716.0078 Q976.0938,715.6328 975.4844,715.4141 Q974.875,715.1953 974.25,715.1953 Q973.4844,715.1953 972.8438,715.5234 Q972.2188,715.8516 971.7188,716.6016 Q971.2344,717.3516 971.2344,718.3828 L971.2344,719.4766 Q971.2344,720.7109 972.125,721.5391 Q973.0156,722.3516 974.6094,722.3516 Q975.5469,722.3516 976.2031,722.1016 Q976.5938,721.9453 977.0156,721.5078 Q977.2813,721.2422 977.4219,721.1641 Q977.5781,721.0859 977.7813,721.0859 Q978.1094,721.0859 978.3594,721.3516 Q978.625,721.6016 978.625,721.9453 Q978.625,722.2891 978.2813,722.6953 Q977.7813,723.2734 976.9844,723.6016 Q975.9063,724.0547 974.6094,724.0547 Q973.0938,724.0547 971.8906,723.4297 Q970.9063,722.9297 970.2188,721.8672 Q969.5313,720.7891 969.5313,719.5078 L969.5313,718.3516 Q969.5313,717.0234 970.1406,715.8828 Q970.7656,714.7266 971.8594,714.1172 Q972.9531,713.4922 974.1875,713.4922 Q974.9219,713.4922 975.5625,713.6641 Q976.2188,713.8203 976.7656,714.1797 Z " fill="#000000"/><text fill="#000000" font-family="sans-serif" font-size="12" font-style="italic" lengthAdjust="spacing" textLength="82.0547" x="986" y="713.9629">&#171;Value Object&#187;</text><text fill="#000000" font-family="sans-serif" font-size="14" lengthAdjust="spacing" textLength="62.2412" x="995.9067" y="732.082">Descricao</text><line style="stroke:#181818;stroke-width:0.5;" x1="960" x2="1068.0547" y1="740.5957" y2="740.5957"/><line style="stroke:#181818;stroke-width:0.5;" x1="960" x2="1068.0547" y1="748.5957" y2="748.5957"/></g><!--class Reembolso--><g class="entity" data-entity="Reembolso" data-source-line="84" data-uid="ent0027" id="entity_Reembolso"><rect fill="#F1F1F1" height="60.582" rx="2.5" ry="2.5" style="stroke:#181818;stroke-width:0.5;" width="110.0547" x="1272" y="556.0137"/><ellipse cx="1287" cy="578.3047" fill="#ADD1B2" rx="11" ry="11" style="stroke:#181818;stroke-width:1;"/><path d="M1289.7656,574.1797 Q1289.9219,573.9609 1290.1094,573.8516 Q1290.2969,573.7422 1290.5156,573.7422 Q1290.8906,573.7422 1291.125,574.0078 Q1291.3594,574.2578 1291.3594,574.8672 L1291.3594,576.3203 Q1291.3594,576.9297 1291.125,577.1953 Q1290.8906,577.4609 1290.5156,577.4609 Q1290.1719,577.4609 1289.9688,577.2578 Q1289.7656,577.0703 1289.6563,576.5547 Q1289.6094,576.1953 1289.4219,576.0078 Q1289.0938,575.6328 1288.4844,575.4141 Q1287.875,575.1953 1287.25,575.1953 Q1286.4844,575.1953 1285.8438,575.5234 Q1285.2188,575.8516 1284.7188,576.6016 Q1284.2344,577.3516 1284.2344,578.3828 L1284.2344,579.4766 Q1284.2344,580.7109 1285.125,581.5391 Q1286.0156,582.3516 1287.6094,582.3516 Q1288.5469,582.3516 1289.2031,582.1016 Q1289.5938,581.9453 1290.0156,581.5078 Q1290.2813,581.2422 1290.4219,581.1641 Q1290.5781,581.0859 1290.7813,581.0859 Q1291.1094,581.0859 1291.3594,581.3516 Q1291.625,581.6016 1291.625,581.9453 Q1291.625,582.2891 1291.2813,582.6953 Q1290.7813,583.2734 1289.9844,583.6016 Q1288.9063,584.0547 1287.6094,584.0547 Q1286.0938,584.0547 1284.8906,583.4297 Q1283.9063,582.9297 1283.2188,581.8672 Q1282.5313,580.7891 1282.5313,579.5078 L1282.5313,578.3516 Q1282.5313,577.0234 1283.1406,575.8828 Q1283.7656,574.7266 1284.8594,574.1172 Q1285.9531,573.4922 1287.1875,573.4922 Q1287.9219,573.4922 1288.5625,573.6641 Q1289.2188,573.8203 1289.7656,574.1797 Z " fill="#000000"/><text fill="#000000" font-family="sans-serif" font-size="12" font-style="italic" lengthAdjust="spacing" textLength="82.0547" x="1299" y="573.9629">&#171;Value Object&#187;</text><text fill="#000000" font-family="sans-serif" font-size="14" lengthAdjust="spacing" textLength="70.8135" x="1304.6206" y="592.082">Reembolso</text><line style="stroke:#181818;stroke-width:0.5;" x1="1273" x2="1381.0547" y1="600.5957" y2="600.5957"/><line style="stroke:#181818;stroke-width:0.5;" x1="1273" x2="1381.0547" y1="608.5957" y2="608.5957"/></g><!--class Tipo--><g class="entity" data-entity="Tipo" data-source-line="88" data-uid="ent0028" id="entity_Tipo"><rect fill="#F1F1F1" height="60.582" rx="2.5" ry="2.5" style="stroke:#181818;stroke-width:0.5;" width="110.0547" x="1417" y="556.0137"/><ellipse cx="1432" cy="578.3047" fill="#ADD1B2" rx="11" ry="11" style="stroke:#181818;stroke-width:1;"/><path d="M1434.7656,574.1797 Q1434.9219,573.9609 1435.1094,573.8516 Q1435.2969,573.7422 1435.5156,573.7422 Q1435.8906,573.7422 1436.125,574.0078 Q1436.3594,574.2578 1436.3594,574.8672 L1436.3594,576.3203 Q1436.3594,576.9297 1436.125,577.1953 Q1435.8906,577.4609 1435.5156,577.4609 Q1435.1719,577.4609 1434.9688,577.2578 Q1434.7656,577.0703 1434.6563,576.5547 Q1434.6094,576.1953 1434.4219,576.0078 Q1434.0938,575.6328 1433.4844,575.4141 Q1432.875,575.1953 1432.25,575.1953 Q1431.4844,575.1953 1430.8438,575.5234 Q1430.2188,575.8516 1429.7188,576.6016 Q1429.2344,577.3516 1429.2344,578.3828 L1429.2344,579.4766 Q1429.2344,580.7109 1430.125,581.5391 Q1431.0156,582.3516 1432.6094,582.3516 Q1433.5469,582.3516 1434.2031,582.1016 Q1434.5938,581.9453 1435.0156,581.5078 Q1435.2813,581.2422 1435.4219,581.1641 Q1435.5781,581.0859 1435.7813,581.0859 Q1436.1094,581.0859 1436.3594,581.3516 Q1436.625,581.6016 1436.625,581.9453 Q1436.625,582.2891 1436.2813,582.6953 Q1435.7813,583.2734 1434.9844,583.6016 Q1433.9063,584.0547 1432.6094,584.0547 Q1431.0938,584.0547 1429.8906,583.4297 Q1428.9063,582.9297 1428.2188,581.8672 Q1427.5313,580.7891 1427.5313,579.5078 L1427.5313,578.3516 Q1427.5313,577.0234 1428.1406,575.8828 Q1428.7656,574.7266 1429.8594,574.1172 Q1430.9531,573.4922 1432.1875,573.4922 Q1432.9219,573.4922 1433.5625,573.6641 Q1434.2188,573.8203 1434.7656,574.1797 Z " fill="#000000"/><text fill="#000000" font-family="sans-serif" font-size="12" font-style="italic" lengthAdjust="spacing" textLength="82.0547" x="1444" y="573.9629">&#171;Value Object&#187;</text><text fill="#000000" font-family="sans-serif" font-size="14" lengthAdjust="spacing" textLength="27.2344" x="1471.4102" y="592.082">Tipo</text><line style="stroke:#181818;stroke-width:0.5;" x1="1418" x2="1526.0547" y1="600.5957" y2="600.5957"/><line style="stroke:#181818;stroke-width:0.5;" x1="1418" x2="1526.0547" y1="608.5957" y2="608.5957"/></g><!--class Status--><g class="entity" data-entity="Status" data-source-line="92" data-uid="ent0029" id="entity_Status"><rect fill="#F1F1F1" height="60.582" rx="2.5" ry="2.5" style="stroke:#181818;stroke-width:0.5;" width="110.0547" x="1562" y="556.0137"/><ellipse cx="1577" cy="578.3047" fill="#ADD1B2" rx="11" ry="11" style="stroke:#181818;stroke-width:1;"/><path d="M1579.7656,574.1797 Q1579.9219,573.9609 1580.1094,573.8516 Q1580.2969,573.7422 1580.5156,573.7422 Q1580.8906,573.7422 1581.125,574.0078 Q1581.3594,574.2578 1581.3594,574.8672 L1581.3594,576.3203 Q1581.3594,576.9297 1581.125,577.1953 Q1580.8906,577.4609 1580.5156,577.4609 Q1580.1719,577.4609 1579.9688,577.2578 Q1579.7656,577.0703 1579.6563,576.5547 Q1579.6094,576.1953 1579.4219,576.0078 Q1579.0938,575.6328 1578.4844,575.4141 Q1577.875,575.1953 1577.25,575.1953 Q1576.4844,575.1953 1575.8438,575.5234 Q1575.2188,575.8516 1574.7188,576.6016 Q1574.2344,577.3516 1574.2344,578.3828 L1574.2344,579.4766 Q1574.2344,580.7109 1575.125,581.5391 Q1576.0156,582.3516 1577.6094,582.3516 Q1578.5469,582.3516 1579.2031,582.1016 Q1579.5938,581.9453 1580.0156,581.5078 Q1580.2813,581.2422 1580.4219,581.1641 Q1580.5781,581.0859 1580.7813,581.0859 Q1581.1094,581.0859 1581.3594,581.3516 Q1581.625,581.6016 1581.625,581.9453 Q1581.625,582.2891 1581.2813,582.6953 Q1580.7813,583.2734 1579.9844,583.6016 Q1578.9063,584.0547 1577.6094,584.0547 Q1576.0938,584.0547 1574.8906,583.4297 Q1573.9063,582.9297 1573.2188,581.8672 Q1572.5313,580.7891 1572.5313,579.5078 L1572.5313,578.3516 Q1572.5313,577.0234 1573.1406,575.8828 Q1573.7656,574.7266 1574.8594,574.1172 Q1575.9531,573.4922 1577.1875,573.4922 Q1577.9219,573.4922 1578.5625,573.6641 Q1579.2188,573.8203 1579.7656,574.1797 Z " fill="#000000"/><text fill="#000000" font-family="sans-serif" font-size="12" font-style="italic" lengthAdjust="spacing" textLength="82.0547" x="1589" y="573.9629">&#171;Value Object&#187;</text><text fill="#000000" font-family="sans-serif" font-size="14" lengthAdjust="spacing" textLength="39.6895" x="1610.1826" y="592.082">Status</text><line style="stroke:#181818;stroke-width:0.5;" x1="1563" x2="1671.0547" y1="600.5957" y2="600.5957"/><line style="stroke:#181818;stroke-width:0.5;" x1="1563" x2="1671.0547" y1="608.5957" y2="608.5957"/></g><!--link Banco to Conta--><g class="link" data-entity-1="Banco" data-entity-2="Conta" data-source-line="41" data-uid="lnk10" id="link_Banco_Conta"><path codeLine="41" d="M470.3,123.0737 C462.66,132.5037 454.32,143.0737 447,153.0137 C435.42,168.7337 426.5971,181.5874 416.4371,196.9674" fill="none" id="Banco-to-Conta" style="stroke:#181818;stroke-width:1;"/><polygon fill="#181818" points="413.13,201.9737,421.4282,196.669,415.8859,197.8018,414.7532,192.2595,413.13,201.9737" style="stroke:#181818;stroke-width:1;"/><text fill="#000000" font-family="sans-serif" font-size="13" lengthAdjust="spacing" textLength="37.5781" x="448" y="168.042">possui</text><text fill="#000000" font-family="sans-serif" font-size="13" lengthAdjust="spacing" textLength="7.23" x="457.9752" y="144.6154">1</text><text fill="#000000" font-family="sans-serif" font-size="13" lengthAdjust="spacing" textLength="19.5127" x="396.7496" y="190.6896">1..*</text></g><!--link Banco to Nome--><g class="link" data-entity-1="Banco" data-entity-2="Nome" data-source-line="42" data-uid="lnk11" id="link_Banco_Nome"><path codeLine="42" d="M495.2,123.2537 C494.77,138.0537 493.44,156.1337 490,172.0137 C470.72,260.9337 429.3598,354.1814 406.3098,402.3514" fill="none" id="Banco-to-Nome" style="stroke:#181818;stroke-width:1;"/><polygon fill="#181818" points="403.72,407.7637,411.213,401.3718,405.8782,403.2534,403.9966,397.9187,403.72,407.7637" style="stroke:#181818;stroke-width:1;"/><text fill="#000000" font-family="sans-serif" font-size="13" lengthAdjust="spacing" textLength="21.6709" x="482" y="246.042">tem</text><text fill="#000000" font-family="sans-serif" font-size="13" lengthAdjust="spacing" textLength="7.23" x="487.6408" y="144.5822">1</text><text fill="#000000" font-family="sans-serif" font-size="13" lengthAdjust="spacing" textLength="7.23" x="399.0522" y="396.7698">1</text></g><!--link Banco to Total--><g class="link" data-entity-1="Banco" data-entity-2="Total" data-source-line="43" data-uid="lnk12" id="link_Banco_Total"><path codeLine="43" d="M531.17,113.2637 C560.95,131.7937 601.09,162.5537 619,202.0137 C650.18,270.7337 623.2432,356.0033 604.0332,402.2133" fill="none" id="Banco-to-Total" style="stroke:#181818;stroke-width:1;"/><polygon fill="#181818" points="601.73,407.7537,608.8783,400.9786,603.6493,403.1367,601.4912,397.9077,601.73,407.7537" style="stroke:#181818;stroke-width:1;"/><text fill="#000000" font-family="sans-serif" font-size="13" lengthAdjust="spacing" textLength="21.6709" x="633" y="246.042">tem</text><text fill="#000000" font-family="sans-serif" font-size="13" lengthAdjust="spacing" textLength="7.23" x="538.783" y="112.6947">1</text><text fill="#000000" font-family="sans-serif" font-size="13" lengthAdjust="spacing" textLength="7.23" x="596.858" y="396.7577">1</text></g><!--link Conta to ValorInicial--><g class="link" data-entity-1="Conta" data-entity-2="ValorInicial" data-source-line="46" data-uid="lnk13" id="link_Conta_ValorInicial"><path codeLine="46" d="M353.38,272.1337 C310.29,309.1737 242.8097,367.1822 200.1797,403.8322" fill="none" id="Conta-to-ValorInicial" style="stroke:#181818;stroke-width:1;"/><polygon fill="#181818" points="195.63,407.7437,205.0623,404.9096,199.4214,404.4841,199.8469,398.8432,195.63,407.7437" style="stroke:#181818;stroke-width:1;"/><text fill="#000000" font-family="sans-serif" font-size="13" lengthAdjust="spacing" textLength="21.6709" x="309" y="324.042">tem</text><text fill="#000000" font-family="sans-serif" font-size="13" lengthAdjust="spacing" textLength="7.23" x="338.2982" y="274.0076">1</text><text fill="#000000" font-family="sans-serif" font-size="13" lengthAdjust="spacing" textLength="7.23" x="195.0686" y="396.7457">1</text></g><!--link Conta to Total--><g class="link" data-entity-1="Conta" data-entity-2="Total" data-source-line="47" data-uid="lnk14" id="link_Conta_Total"><path codeLine="47" d="M424.58,276.5537 C462.59,313.9937 517.9052,368.4734 553.6552,403.6834" fill="none" id="Conta-to-Total" style="stroke:#181818;stroke-width:1;"/><polygon fill="#181818" points="557.93,407.8937,554.3246,398.7285,554.3677,404.3851,548.711,404.4282,557.93,407.8937" style="stroke:#181818;stroke-width:1;"/><text fill="#000000" font-family="sans-serif" font-size="13" lengthAdjust="spacing" textLength="21.6709" x="477" y="324.042">tem</text><text fill="#000000" font-family="sans-serif" font-size="13" lengthAdjust="spacing" textLength="7.23" x="432.6269" y="299.8455">1</text><text fill="#000000" font-family="sans-serif" font-size="13" lengthAdjust="spacing" textLength="7.23" x="544.0243" y="396.9266">1</text></g><!--link Conta to Nome--><g class="link" data-entity-1="Conta" data-entity-2="Nome" data-source-line="48" data-uid="lnk15" id="link_Conta_Nome"><path codeLine="48" d="M389,279.3037 C389,316.7937 389,367.4737 389,401.8337" fill="none" id="Conta-to-Nome" style="stroke:#181818;stroke-width:1;"/><polygon fill="#181818" points="389,407.8337,393,398.8337,389,402.8337,385,398.8337,389,407.8337" style="stroke:#181818;stroke-width:1;"/><text fill="#000000" font-family="sans-serif" font-size="13" lengthAdjust="spacing" textLength="21.6709" x="390" y="324.042">tem</text><text fill="#000000" font-family="sans-serif" font-size="13" lengthAdjust="spacing" textLength="7.23" x="381.4542" y="300.6305">1</text><text fill="#000000" font-family="sans-serif" font-size="13" lengthAdjust="spacing" textLength="7.23" x="381.2962" y="396.8542">1</text></g><!--link CartaoCredito to Conta--><g class="link" data-entity-1="CartaoCredito" data-entity-2="Conta" data-source-line="51" data-uid="lnk16" id="link_CartaoCredito_Conta"><path codeLine="51" d="M288.5,123.0637 C308.13,145.8037 331.4797,172.8615 352.6597,197.4015" fill="none" id="CartaoCredito-to-Conta" style="stroke:#181818;stroke-width:1;"/><polygon fill="#181818" points="356.58,201.9437,353.7277,192.5169,353.3131,198.1585,347.6715,197.7439,356.58,201.9437" style="stroke:#181818;stroke-width:1;"/><text fill="#000000" font-family="sans-serif" font-size="13" lengthAdjust="spacing" textLength="52.019" x="330" y="168.042">refere-se</text><text fill="#000000" font-family="sans-serif" font-size="13" lengthAdjust="spacing" textLength="7.23" x="285.7012" y="144.6035">1</text><text fill="#000000" font-family="sans-serif" font-size="13" lengthAdjust="spacing" textLength="7.23" x="343.1702" y="190.6543">1</text></g><!--link CartaoCredito to ValorInicial--><g class="link" data-entity-1="CartaoCredito" data-entity-2="ValorInicial" data-source-line="52" data-uid="lnk17" id="link_CartaoCredito_ValorInicial"><path codeLine="52" d="M203.18,110.1737 C160.11,125.8737 105.91,154.2937 84,202.0137 C51.34,273.1637 100.5051,357.3255 133.6951,402.8455" fill="none" id="CartaoCredito-to-ValorInicial" style="stroke:#181818;stroke-width:1;"/><polygon fill="#181818" points="137.23,407.6937,135.1597,398.0649,134.2842,403.6536,128.6955,402.7781,137.23,407.6937" style="stroke:#181818;stroke-width:1;"/><text fill="#000000" font-family="sans-serif" font-size="13" lengthAdjust="spacing" textLength="21.6709" x="85" y="246.042">tem</text><text fill="#000000" font-family="sans-serif" font-size="13" lengthAdjust="spacing" textLength="7.23" x="188.4677" y="108.3616">1</text><text fill="#000000" font-family="sans-serif" font-size="13" lengthAdjust="spacing" textLength="7.23" x="124.6236" y="396.6854">1</text></g><!--link CartaoCredito to Total--><g class="link" data-entity-1="CartaoCredito" data-entity-2="Total" data-source-line="53" data-uid="lnk18" id="link_CartaoCredito_Total"><path codeLine="53" d="M322.54,97.4237 C370.14,103.2137 436.39,117.5637 483,153.0137 C564.92,215.3237 582.562,342.3969 586.512,401.8069" fill="none" id="CartaoCredito-to-Total" style="stroke:#181818;stroke-width:1;"/><polygon fill="#181818" points="586.91,407.7937,590.3041,398.5481,586.5783,402.8047,582.3217,399.0789,586.91,407.7937" style="stroke:#181818;stroke-width:1;"/><text fill="#000000" font-family="sans-serif" font-size="13" lengthAdjust="spacing" textLength="21.6709" x="563" y="246.042">tem</text><text fill="#000000" font-family="sans-serif" font-size="13" lengthAdjust="spacing" textLength="7.23" x="330.622" y="94.0374">1</text><text fill="#000000" font-family="sans-serif" font-size="13" lengthAdjust="spacing" textLength="7.23" x="578.9814" y="396.806">1</text></g><!--link CartaoCredito to Nome--><g class="link" data-entity-1="CartaoCredito" data-entity-2="Nome" data-source-line="54" data-uid="lnk19" id="link_CartaoCredito_Nome"><path codeLine="54" d="M225.53,123.3737 C203.92,143.0937 178.76,170.9637 167,202.0137 C154.87,234.0137 151.34,248.5837 167,279.0137 C176.67,297.8037 275.7609,364.1813 337.9109,404.6213" fill="none" id="CartaoCredito-to-Nome" style="stroke:#181818;stroke-width:1;"/><polygon fill="#181818" points="342.94,407.8937,337.5779,399.6324,338.7491,405.1667,333.2148,406.3379,342.94,407.8937" style="stroke:#181818;stroke-width:1;"/><text fill="#000000" font-family="sans-serif" font-size="13" lengthAdjust="spacing" textLength="21.6709" x="168" y="246.042">tem</text><text fill="#000000" font-family="sans-serif" font-size="13" lengthAdjust="spacing" textLength="7.23" x="210.9834" y="144.7244">1</text><text fill="#000000" font-family="sans-serif" font-size="13" lengthAdjust="spacing" textLength="7.23" x="325.7363" y="396.9266">1</text></g><!--link CartaoCredito to Periodo--><g class="link" data-entity-1="CartaoCredito" data-entity-2="Periodo" data-source-line="55" data-uid="lnk20" id="link_CartaoCredito_Periodo"><path codeLine="55" d="M263,123.0637 C263,148.3937 263,178.6937 263,204.0137" fill="none" id="CartaoCredito-to-Periodo" style="stroke:#181818;stroke-width:1;"/><polygon fill="#181818" points="263,210.0137,267,201.0137,263,205.0137,259,201.0137,263,210.0137" style="stroke:#181818;stroke-width:1;"/><text fill="#000000" font-family="sans-serif" font-size="13" lengthAdjust="spacing" textLength="21.6709" x="264" y="168.042">tem</text><text fill="#000000" font-family="sans-serif" font-size="13" lengthAdjust="spacing" textLength="7.23" x="255.3403" y="144.6035">1</text><text fill="#000000" font-family="sans-serif" font-size="13" lengthAdjust="spacing" textLength="7.23" x="255.2535" y="198.5883">1</text></g><!--link Transacao to Categoria--><g class="link" data-entity-1="Transacao" data-entity-2="Categoria" data-source-line="99" data-uid="lnk30" id="link_Transacao_Categoria"><path codeLine="99" d="M1125.8,454.5737 C1085.2,467.3837 1026.29,486.8737 976,507.0137 C933.96,523.8537 892.7426,543.1232 859.1426,559.5132" fill="none" id="Transacao-to-Categoria" style="stroke:#181818;stroke-width:1;"/><polygon fill="#181818" points="853.75,562.1437,863.5926,561.793,858.2439,559.9516,860.0853,554.6028,853.75,562.1437" style="stroke:#181818;stroke-width:1;"/><text fill="#000000" font-family="sans-serif" font-size="13" lengthAdjust="spacing" textLength="52.7363" x="977" y="522.042">classifica</text><text fill="#000000" font-family="sans-serif" font-size="13" lengthAdjust="spacing" textLength="7.23" x="1110.7369" y="452.8169">1</text><text fill="#000000" font-family="sans-serif" font-size="13" lengthAdjust="spacing" textLength="7.23" x="861.1692" y="554.3963">1</text></g><!--link Transacao to Data--><g class="link" data-entity-1="Transacao" data-entity-2="Data" data-source-line="100" data-uid="lnk31" id="link_Transacao_Data"><path codeLine="100" d="M1125.73,470.6537 C1085.84,495.8637 1035.1224,527.9288 995.9024,552.7088" fill="none" id="Transacao-to-Data" style="stroke:#181818;stroke-width:1;"/><polygon fill="#181818" points="990.83,555.9137,1000.5751,554.488,995.057,553.243,996.302,547.7248,990.83,555.9137" style="stroke:#181818;stroke-width:1;"/><text fill="#000000" font-family="sans-serif" font-size="13" lengthAdjust="spacing" textLength="21.6709" x="1067" y="522.042">tem</text><text fill="#000000" font-family="sans-serif" font-size="13" lengthAdjust="spacing" textLength="7.23" x="1110.6561" y="490.9623">1</text><text fill="#000000" font-family="sans-serif" font-size="13" lengthAdjust="spacing" textLength="7.23" x="992.7849" y="544.9507">1</text></g><!--link Transacao to Dinheiro--><g class="link" data-entity-1="Transacao" data-entity-2="Dinheiro" data-source-line="101" data-uid="lnk32" id="link_Transacao_Dinheiro"><path codeLine="101" d="M1152.85,477.1137 C1138.42,501.6137 1122.8954,527.964 1109.5054,550.694" fill="none" id="Transacao-to-Dinheiro" style="stroke:#181818;stroke-width:1;"/><polygon fill="#181818" points="1106.46,555.8637,1114.4746,550.1394,1108.9978,551.5556,1107.5817,546.0789,1106.46,555.8637" style="stroke:#181818;stroke-width:1;"/><text fill="#000000" font-family="sans-serif" font-size="13" lengthAdjust="spacing" textLength="21.6709" x="1135" y="522.042">tem</text><text fill="#000000" font-family="sans-serif" font-size="13" lengthAdjust="spacing" textLength="7.23" x="1141.7688" y="498.7082">1</text><text fill="#000000" font-family="sans-serif" font-size="13" lengthAdjust="spacing" textLength="7.23" x="1102.3573" y="544.8904">1</text></g><!--link Transacao to Descricao--><g class="link" data-entity-1="Transacao" data-entity-2="Descricao" data-source-line="102" data-uid="lnk33" id="link_Transacao_Descricao"><path codeLine="102" d="M1180.95,477.0737 C1185.03,514.8737 1186.02,573.6237 1162,617.0137 C1141.4,654.2237 1107.2931,679.2346 1074.3331,697.4246" fill="none" id="Transacao-to-Descricao" style="stroke:#181818;stroke-width:1;"/><polygon fill="#181818" points="1069.08,700.3237,1078.8924,699.4771,1073.4576,697.9078,1075.0269,692.4729,1069.08,700.3237" style="stroke:#181818;stroke-width:1;"/><text fill="#000000" font-family="sans-serif" font-size="13" lengthAdjust="spacing" textLength="21.6709" x="1181" y="592.042">tem</text><text fill="#000000" font-family="sans-serif" font-size="13" lengthAdjust="spacing" textLength="7.23" x="1174.3473" y="498.6618">1</text><text fill="#000000" font-family="sans-serif" font-size="13" lengthAdjust="spacing" textLength="7.23" x="1076.9635" y="692.7382">1</text></g><!--link Transacao to Reembolso--><g class="link" data-entity-1="Transacao" data-entity-2="Reembolso" data-source-line="103" data-uid="lnk34" id="link_Transacao_Reembolso"><path codeLine="103" d="M1214.14,477.1137 C1239.65,501.6137 1268.1432,528.9769 1291.8032,551.7069" fill="none" id="Transacao-to-Reembolso" style="stroke:#181818;stroke-width:1;"/><polygon fill="#181818" points="1296.13,555.8637,1292.4109,546.744,1292.5243,552.3997,1286.8686,552.5131,1296.13,555.8637" style="stroke:#181818;stroke-width:1;"/><text fill="#000000" font-family="sans-serif" font-size="13" lengthAdjust="spacing" textLength="51.3081" x="1265" y="522.042">pode-ser</text><text fill="#000000" font-family="sans-serif" font-size="13" lengthAdjust="spacing" textLength="7.23" x="1212.8269" y="498.7082">1</text><text fill="#000000" font-family="sans-serif" font-size="13" lengthAdjust="spacing" textLength="21.6836" x="1266.6623" y="544.8904">0..1</text></g><!--link Transacao to Tipo--><g class="link" data-entity-1="Transacao" data-entity-2="Tipo" data-source-line="104" data-uid="lnk35" id="link_Transacao_Tipo"><path codeLine="104" d="M1224.03,460.5737 C1253.52,473.4937 1291.68,490.6437 1325,507.0137 C1356.42,522.4537 1385.7107,537.9642 1413.4207,553.0542" fill="none" id="Transacao-to-Tipo" style="stroke:#181818;stroke-width:1;"/><polygon fill="#181818" points="1418.69,555.9237,1412.699,548.1065,1414.2989,553.5324,1408.873,555.1323,1418.69,555.9237" style="stroke:#181818;stroke-width:1;"/><text fill="#000000" font-family="sans-serif" font-size="13" lengthAdjust="spacing" textLength="21.6709" x="1362" y="522.042">tem</text><text fill="#000000" font-family="sans-serif" font-size="13" lengthAdjust="spacing" textLength="7.23" x="1232.0802" y="479.3388">1</text><text fill="#000000" font-family="sans-serif" font-size="13" lengthAdjust="spacing" textLength="7.23" x="1401.9408" y="546.2943">1</text></g><!--link Transacao to Status--><g class="link" data-entity-1="Transacao" data-entity-2="Status" data-source-line="105" data-uid="lnk36" id="link_Transacao_Status"><path codeLine="105" d="M1224.24,453.5037 C1295.59,474.1137 1431.58,514.6837 1545,556.0137 C1550.46,558.0037 1550.5236,557.9647 1556.1636,560.1747" fill="none" id="Transacao-to-Status" style="stroke:#181818;stroke-width:1;"/><polygon fill="#181818" points="1561.75,562.3637,1554.8297,555.3559,1557.0946,560.5395,1551.911,562.8044,1561.75,562.3637" style="stroke:#181818;stroke-width:1;"/><text fill="#000000" font-family="sans-serif" font-size="13" lengthAdjust="spacing" textLength="21.6709" x="1455" y="522.042">tem</text><text fill="#000000" font-family="sans-serif" font-size="13" lengthAdjust="spacing" textLength="7.23" x="1231.9925" y="451.5401">1</text><text fill="#000000" font-family="sans-serif" font-size="13" lengthAdjust="spacing" textLength="7.23" x="1546.8672" y="555.0523">1</text></g><!--link Categoria to Descricao--><g class="link" data-entity-1="Categoria" data-entity-2="Descricao" data-source-line="108" data-uid="lnk37" id="link_Categoria_Descricao"><path codeLine="108" d="M851.41,617.1137 C886.33,640.4037 929.7675,669.3558 964.6775,692.6258" fill="none" id="Categoria-to-Descricao" style="stroke:#181818;stroke-width:1;"/><polygon fill="#181818" points="969.67,695.9537,964.3998,687.6335,965.5096,693.1804,959.9626,694.2902,969.67,695.9537" style="stroke:#181818;stroke-width:1;"/><text fill="#000000" font-family="sans-serif" font-size="13" lengthAdjust="spacing" textLength="21.6709" x="923" y="662.042">tem</text><text fill="#000000" font-family="sans-serif" font-size="13" lengthAdjust="spacing" textLength="7.23" x="852.2587" y="638.663">1</text><text fill="#000000" font-family="sans-serif" font-size="13" lengthAdjust="spacing" textLength="7.23" x="952.2264" y="684.5152">1</text></g><!--link Conta to Transacao--><g class="link" data-entity-1="Conta" data-entity-2="Transacao" data-source-line="116" data-uid="lnk38" id="link_Conta_Transacao"><path codeLine="116" d="M424.61,265.4437 C433.3,270.4937 442.76,275.3937 452,279.0137 C565.39,323.4137 601.02,310.0937 720,336.0137 C867.88,368.2337 1036.6477,406.2206 1120.0277,425.0706" fill="none" id="Conta-to-Transacao" style="stroke:#181818;stroke-width:1;"/><polygon fill="#181818" points="1125.88,426.3937,1117.9836,420.5076,1121.0031,425.2911,1116.2195,428.3106,1125.88,426.3937" style="stroke:#181818;stroke-width:1;"/><text fill="#000000" font-family="sans-serif" font-size="13" lengthAdjust="spacing" textLength="21.6709" x="675" y="324.042">tem</text><text fill="#000000" font-family="sans-serif" font-size="13" lengthAdjust="spacing" textLength="7.23" x="432.6631" y="265.9378">1</text><text fill="#000000" font-family="sans-serif" font-size="13" lengthAdjust="spacing" textLength="19.5127" x="1098.6624" y="420.5749">0..*</text></g><!--SRC=[dPJ1Ri8m38RlF4NK2zAaLd15NG-37RXiQ4ExcsAwR2MfaY1jclRkIvkqIO6MQ3qroMV7_cExWlmJ2YJHaZC5929f2aKXi025MKP-9XEYl-cz_iWZKrHHbAHUcOEy12c9iKtJ1lZMPcagE5TPPir_Up081NmfS4yLzuokiG_0SfyX3lBYUeFoXEHvzu6vkWpkYHzHk_2XdYD7Rhc2CWpL21ThHdCQQh51GVcUZy4cfIQ1MbAcpobdVaPJ8qYSaQzcRPRHF2AntelcIN8NcTTOa8fBUQ9NiQWHPK4K7WVE6oaCO2usJznTRAl5i_0LSPulES_pTS25Pc_krOkBeBVjEx3v2poWm5ZY3NmWy47-F851iA_nC6Shmw2w3Ags9RS2c8GS-3_Rqja7jwR2WWiAWsqPqd0hQ8P1G4-iA7j7AdWWZJ8NrAGJWByW7dUyb87ubbQ1vAi2TPAtsEbO6xkNwUhPUso_bjiNMPZBwK4BCCBNshkQ6s2iwZUvLkzHS9Oa-hSJkvux-xhhn8ZdMkjRjnkL-uEWhKvl2BHR8u7NFJMnOtND58fuOpliydNyENSsccRDSEs2DRx_0000]--></g></svg>